<?xml version="1.0" standalone="no"?>
<!DOCTYPE svg PUBLIC "-//W3C//DTD SVG 20010904//EN"
 "http://www.w3.org/TR/2001/REC-SVG-20010904/DTD/svg10.dtd">
<svg version="1.0" xmlns="http://www.w3.org/2000/svg"
 width="300.000000pt" height="204.000000pt" viewBox="0 0 300.000000 204.000000"
 preserveAspectRatio="xMidYMid meet">
<metadata>
Created by potrace 1.10, written by Peter Selinger 2001-2011
</metadata>
<g transform="translate(0.000000,204.000000) scale(0.100000,-0.100000)"
fill="#000000" stroke="none">
<path d="M2743 1811 c-5 -19 -7 -20 -17 -5 -11 15 -49 16 -407 11 -217 -3
-410 -8 -429 -11 -57 -8 -271 -18 -468 -21 -101 -2 -185 -5 -187 -7 -1 -2 -5
-107 -9 -234 -3 -127 -10 -253 -15 -280 -5 -27 -12 -103 -16 -169 -4 -66 -11
-128 -16 -137 -12 -21 7 -24 32 -5 12 9 18 39 23 117 3 58 11 139 16 180 5 41
12 141 16 222 l6 148 162 -6 c129 -5 163 -10 173 -22 12 -15 12 -54 -2 -192
-2 -19 -4 -48 -4 -65 -1 -26 -2 -28 -17 -14 -19 20 -37 136 -23 160 11 21 12
66 2 72 -5 3 -43 8 -85 12 -75 6 -78 6 -78 -14 0 -17 7 -21 38 -22 20 -1 51
-5 67 -9 35 -9 20 -12 -62 -14 -51 -1 -53 0 -53 26 0 26 -15 46 -27 34 -3 -3
-8 -25 -10 -49 -7 -57 2 -62 94 -58 l71 3 7 -65 c8 -69 35 -127 60 -127 12 0
14 -7 9 -27 -4 -16 -7 -29 -8 -30 -1 -1 -16 5 -34 12 -18 8 -34 13 -36 12 -2
-1 -13 6 -25 17 -16 15 -29 17 -63 12 -51 -8 -74 -23 -88 -60 -8 -23 -6 -31
15 -52 19 -19 32 -24 57 -20 57 7 98 26 98 46 0 18 2 18 36 4 59 -25 127 -22
166 8 27 21 38 23 58 16 14 -6 59 -7 102 -4 60 4 77 2 82 -9 7 -18 98 -65 156
-80 44 -11 45 -12 45 -52 0 -23 3 -45 8 -49 4 -4 7 14 7 39 0 26 3 47 6 47 3
0 34 -7 68 -16 33 -9 80 -14 104 -11 39 4 42 3 42 -20 0 -52 48 -93 110 -93
50 0 70 16 70 55 0 51 -44 97 -96 100 -21 1 -41 3 -44 4 -3 1 -39 2 -80 2 -83
-1 -176 19 -174 37 1 7 2 23 3 37 1 23 5 25 46 25 48 0 79 -13 106 -45 14 -16
27 -19 75 -17 69 3 104 22 104 58 0 28 -49 84 -74 84 -25 0 -70 -20 -93 -42
-19 -18 -25 -19 -39 -8 -8 8 -39 15 -67 16 -41 1 -52 5 -51 18 0 9 1 35 2 59
l2 42 109 21 c60 12 127 30 147 41 l38 19 22 -25 c17 -20 30 -25 64 -24 23 1
48 7 56 14 19 15 18 73 -1 89 -8 7 -15 19 -15 28 0 23 -56 9 -127 -32 -73 -43
-279 -96 -284 -73 0 4 2 35 6 70 8 67 21 101 35 92 5 -3 115 -5 245 -5 l235 0
-5 -38 c-26 -190 -65 -595 -65 -679 0 -24 -4 -43 -8 -43 -5 0 -55 9 -113 19
-118 21 -186 28 -379 36 -74 4 -198 13 -275 21 -77 8 -180 16 -230 19 -49 3
-133 10 -185 15 -104 11 -222 11 -230 0 -3 -4 -34 -22 -70 -40 -36 -18 -77
-41 -92 -51 -38 -27 -47 -24 -68 26 -11 25 -27 48 -36 52 -13 5 -15 16 -9 69
3 35 10 75 14 90 6 23 8 25 20 10 38 -46 101 10 101 91 0 32 -5 46 -24 61 -17
13 -22 23 -15 33 14 22 11 59 -6 65 -10 4 -15 20 -15 48 0 51 -21 82 -60 91
-43 9 -75 -14 -88 -65 -11 -45 -7 -77 16 -103 14 -16 13 -20 -16 -48 -18 -17
-32 -38 -32 -45 0 -23 28 -16 46 10 17 27 111 92 120 83 15 -15 -13 -50 -67
-82 -32 -20 -59 -40 -59 -44 0 -4 14 -17 30 -30 25 -18 28 -25 20 -41 -5 -10
-10 -30 -10 -44 0 -20 -7 -27 -37 -35 -26 -7 -41 -7 -50 1 -10 8 -20 8 -37 0
-14 -6 -48 -8 -81 -5 -46 5 -55 9 -49 22 4 9 16 53 27 99 18 74 22 82 43 82
47 0 84 59 84 134 0 62 -23 80 -92 73 -29 -3 -62 -8 -73 -11 -11 -2 -23 -5
-26 -5 -11 -2 -29 -51 -29 -79 0 -32 31 -87 58 -101 18 -10 18 -14 -13 -138
-30 -122 -32 -128 -56 -126 -13 2 -49 -12 -79 -30 -61 -36 -93 -85 -126 -188
-17 -51 -22 -59 -44 -59 -31 0 -44 8 -59 38 -6 12 -18 22 -26 22 -19 0 -19 -2
6 -61 l22 -50 -38 -32 c-45 -39 -41 -61 10 -55 l33 4 -29 -34 c-17 -19 -29
-41 -27 -50 4 -23 44 -27 73 -8 23 15 23 15 30 -37 19 -154 38 -206 69 -194
12 5 15 13 10 32 -6 24 -4 25 19 20 21 -6 26 -2 35 24 13 37 19 39 18 9 -1
-16 5 -23 19 -23 14 0 22 10 30 38 13 46 33 34 27 -17 -3 -27 -8 -33 -22 -29
-28 8 -56 -41 -42 -72 7 -14 18 -25 25 -25 8 0 19 -11 25 -25 15 -34 66 -35
83 -2 6 12 21 33 33 45 l21 24 -22 18 c-36 28 -28 36 35 36 31 -1 72 2 90 6
27 6 32 5 32 -11 0 -12 -7 -17 -21 -17 -49 2 -50 -85 -1 -92 14 -2 22 -10 22
-22 0 -20 28 -34 52 -25 8 3 32 26 53 52 37 44 38 47 24 72 -10 18 -22 25 -37
23 -12 -2 -22 1 -22 6 0 28 26 75 63 114 24 24 55 71 71 103 45 97 91 136 174
150 23 4 42 11 42 15 0 5 18 30 40 55 22 25 40 51 40 56 0 15 -30 23 -43 10
-21 -21 -29 -11 -13 14 19 29 14 45 -16 45 -20 0 -20 0 -1 33 13 21 26 31 39
30 10 -2 51 -7 89 -13 39 -5 138 -14 220 -20 83 -5 211 -16 285 -24 74 -8 196
-17 270 -20 160 -7 268 -20 408 -48 56 -11 108 -18 116 -15 9 4 15 47 20 169
4 89 13 224 21 298 26 239 45 394 56 450 14 73 9 114 -14 118 -12 3 -20 -4
-24 -17z m-565 -102 l2 -71 -270 5 c-149 2 -272 6 -275 9 -2 2 -2 28 2 56 l6
52 86 1 c47 1 131 5 186 9 55 3 136 7 181 8 l81 2 1 -71z m558 0 l-9 -66 -248
1 c-136 0 -250 3 -252 6 -3 3 -9 34 -13 68 l-7 63 269 -3 269 -3 -9 -66z
m-1135 -6 l-6 -48 -92 0 c-57 0 -92 4 -90 10 2 11 19 11 56 -1 24 -7 24 -6 18
39 l-6 46 57 3 c31 2 59 2 63 1 3 -1 3 -23 0 -50z m-148 27 c-6 -23 -7 -24
-32 -8 -31 19 -51 4 -41 -31 l9 -31 -44 0 c-63 0 -75 7 -75 45 0 32 2 34 38
38 20 2 62 4 94 5 52 2 56 0 51 -18z m737 -153 c0 -12 -3 -46 -6 -74 l-7 -52
-29 24 c-16 14 -38 25 -47 25 -24 0 -71 -37 -71 -56 0 -19 -67 -92 -101 -110
-21 -10 -46 -13 -97 -8 -47 5 -71 3 -76 -5 -11 -17 -150 -15 -143 2 3 8 11 73
18 145 l13 132 273 -1 273 0 0 -22z m410 -72 c20 -24 4 -45 -34 -45 -46 0 -52
14 -20 39 32 25 38 26 54 6z m-1646 -107 c-1 -29 -3 -54 -3 -56 -1 -1 -11 2
-22 9 -18 9 -20 17 -16 46 6 37 24 66 37 58 4 -2 6 -28 4 -57z m1186 47 c19
-22 -5 -45 -46 -45 -40 0 -46 21 -12 44 28 20 42 20 58 1z m-1395 -35 c5 -8
11 -7 20 0 23 19 38 1 32 -37 -9 -56 -32 -83 -70 -83 -51 0 -64 13 -37 40 16
16 21 31 18 56 -3 27 0 34 13 34 10 0 21 -5 24 -10z m1423 -136 c-2 -1 -56 -6
-119 -10 -118 -7 -154 2 -108 26 11 7 38 27 59 46 34 31 40 33 67 23 23 -7 39
-7 64 4 l34 14 3 -50 c2 -27 2 -51 0 -53z m-340 -5 c21 0 46 -4 57 -9 19 -8
18 -9 -5 -11 -34 -3 -92 0 -109 6 -11 4 -11 8 0 21 8 10 15 12 17 5 2 -6 20
-11 40 -12z m-111 -14 c5 -16 -51 -45 -84 -45 -27 0 -29 3 -25 30 4 29 6 30
55 27 28 -1 52 -7 54 -12z m753 -10 c19 -23 0 -37 -59 -43 -40 -4 -51 -1 -51
10 0 13 23 29 60 41 27 9 37 7 50 -8z m-1420 -53 c0 -21 -6 -46 -13 -56 -13
-17 -16 -16 -45 20 -18 21 -32 42 -32 47 0 10 39 26 68 26 19 1 22 -4 22 -37z
m1110 -3 c0 -40 -1 -41 -27 -34 -16 3 -55 18 -88 33 l-60 27 65 5 c36 3 75 6
88 7 20 3 22 -2 22 -38z m-686 11 c11 -11 -79 -24 -95 -15 -9 6 -7 12 7 22 19
14 70 10 88 -7z m1048 -147 c29 -26 22 -43 -18 -43 -42 0 -74 15 -74 35 0 27
64 34 92 8z m-1782 -59 c0 -20 -4 -25 -16 -20 -9 3 -27 9 -40 12 -40 10 -29
34 16 34 36 0 40 -2 40 -26z m90 -9 c0 -38 -13 -44 -44 -22 -26 19 -13 57 20
57 21 0 24 -5 24 -35z m90 10 c0 -29 0 -29 -35 -13 -29 13 -32 25 -7 31 35 9
42 7 42 -18z m-245 -41 c21 -8 44 -13 52 -10 10 4 13 1 9 -12 -2 -9 -10 -44
-16 -77 -6 -33 -20 -89 -32 -123 -15 -48 -17 -67 -9 -75 9 -9 16 -9 30 0 25
16 31 8 31 -44 0 -24 5 -43 11 -43 6 0 33 23 60 51 l51 52 -11 80 c-16 121
-15 164 8 176 30 17 78 -8 97 -49 23 -48 53 -80 78 -80 12 0 56 22 99 50 79
51 92 52 56 6 -16 -21 -19 -30 -10 -39 9 -9 16 -9 31 1 30 18 32 15 10 -20
-14 -23 -16 -35 -8 -45 5 -7 14 -10 19 -7 5 3 9 1 9 -4 0 -9 -42 -33 -101 -56
-44 -17 -106 -70 -115 -99 -12 -40 -84 -145 -120 -176 -53 -47 -100 -64 -180
-65 -61 0 -75 3 -102 24 -17 14 -31 30 -31 37 -1 7 -8 16 -18 21 -15 9 -15 13
-1 56 9 27 11 49 6 52 -17 11 -37 -18 -49 -72 -10 -44 -16 -53 -29 -49 -10 3
-23 -1 -30 -10 -11 -14 -14 -13 -25 2 -15 20 -45 11 -46 -14 -3 -41 -17 48
-18 113 -1 82 33 231 75 324 29 66 78 116 122 126 15 3 32 7 37 9 18 6 22 5
60 -11z m129 -67 c0 -18 3 -67 8 -110 7 -67 6 -82 -9 -102 -22 -31 -31 -31
-35 -2 -2 12 -13 26 -26 32 -12 5 -21 14 -20 20 2 5 14 53 27 106 19 76 28 95
40 92 11 -3 16 -15 15 -36z m-435 -204 c0 -5 -3 -15 -7 -25 -6 -14 -9 -13 -25
8 -18 24 -18 24 8 24 14 0 25 -3 24 -7z m-24 -53 c19 0 1 -71 -21 -87 -31 -23
-38 -14 -10 13 14 15 26 36 26 46 0 17 -5 19 -30 16 -16 -3 -30 -1 -30 3 0 10
22 18 38 13 8 -2 20 -4 27 -4z m93 -272 c-3 -7 -15 -15 -28 -16 -21 -3 -22 -2
-11 12 16 19 44 21 39 4z m185 -56 c-2 -11 0 -23 6 -26 17 -11 13 -24 -6 -22
-12 1 -18 -6 -18 -21 0 -13 -4 -23 -10 -22 -5 0 -9 10 -7 22 2 12 4 46 5 74 1
50 2 52 18 34 10 -11 15 -27 12 -39z m260 23 c-5 -30 -2 -36 21 -45 14 -5 26
-14 26 -19 0 -15 -18 -23 -25 -12 -12 20 -33 -1 -31 -31 0 -18 -5 -33 -13 -36
-11 -3 -12 6 -5 49 4 30 8 68 7 84 0 24 10 44 24 45 1 0 -1 -16 -4 -35z m-53
-62 c0 -5 -5 -15 -10 -23 -9 -13 -11 -13 -19 0 -5 8 -7 18 -5 22 6 10 34 11
34 1z"/>
<path d="M1846 1751 c-9 -14 9 -94 22 -99 7 -2 12 5 12 17 0 25 -2 25 44 6 20
-9 41 -13 46 -10 6 4 10 26 10 51 0 34 -4 44 -16 44 -9 0 -18 -9 -21 -20 -3
-11 -11 -20 -18 -20 -6 0 -20 9 -30 20 -19 21 -40 26 -49 11z"/>
<path d="M2417 1763 c-14 -24 -16 -70 -5 -86 12 -16 22 -17 78 -10 48 6 65 12
65 23 0 11 -14 16 -52 18 -51 3 -53 4 -53 33 0 27 -22 41 -33 22z"/>
<path d="M788 1693 c-24 -26 -78 -144 -78 -170 0 -15 -5 -20 -17 -17 -24 6
-55 -17 -45 -34 7 -9 20 -10 65 -1 58 12 69 21 42 37 -13 6 -13 14 -4 40 6 18
16 29 22 25 6 -3 7 -1 3 5 -4 6 3 29 14 52 15 30 26 40 45 40 46 0 74 -21 86
-64 6 -23 16 -44 22 -48 11 -7 9 -8 -38 -23 -18 -5 -20 -35 -2 -35 6 1 37 7
67 14 62 14 78 42 23 40 -29 -2 -32 0 -27 21 8 33 -20 92 -53 108 -15 8 -46
18 -68 21 -33 6 -44 3 -57 -11z"/>
</g>
</svg>
