<?xml version="1.0" standalone="no"?>
<!DOCTYPE svg PUBLIC "-//W3C//DTD SVG 20010904//EN"
 "http://www.w3.org/TR/2001/REC-SVG-20010904/DTD/svg10.dtd">
<svg version="1.0" xmlns="http://www.w3.org/2000/svg"
 width="300.000000pt" height="241.000000pt" viewBox="0 0 300.000000 241.000000"
 preserveAspectRatio="xMidYMid meet">
<metadata>
Created by potrace 1.10, written by Peter Selinger 2001-2011
</metadata>
<g transform="translate(0.000000,241.000000) scale(0.100000,-0.100000)"
fill="#000000" stroke="none">
<path d="M2637 2243 c16 -261 -6 -749 -33 -739 -60 23 -205 29 -224 10 -5 -5
-27 -81 -49 -170 -23 -88 -52 -195 -66 -239 -19 -59 -22 -81 -14 -92 15 -17
217 -80 287 -89 47 -6 52 -5 52 13 0 11 9 37 19 59 l19 39 4 -93 c2 -50 2 -92
0 -92 -14 0 -295 89 -368 117 l-93 35 -93 -48 c-51 -26 -117 -60 -147 -75
l-53 -27 -127 34 c-70 18 -139 38 -154 43 -22 9 -29 8 -34 -5 -9 -25 9 -34
144 -71 210 -57 192 -54 227 -29 17 13 76 47 131 76 l100 53 218 -72 c239 -78
257 -85 257 -106 0 -8 4 -15 10 -15 17 0 23 73 17 232 -6 150 -5 160 18 219
14 34 30 67 36 75 8 10 9 17 0 28 -8 10 -6 26 10 64 12 28 19 58 16 65 -3 8
-26 20 -51 28 -41 12 -62 29 -36 29 6 0 10 19 9 43 -1 23 4 128 10 232 8 117
10 267 5 393 l-6 202 -25 0 -24 0 8 -127z m-28 -788 c52 -17 81 -31 81 -40 0
-8 -9 -37 -19 -65 -15 -41 -16 -50 -5 -50 8 0 14 -8 14 -19 0 -21 -25 -45 -38
-37 -10 6 -22 -39 -22 -83 0 -36 -47 -155 -70 -176 -18 -16 -24 -16 -107 3
-119 28 -143 38 -143 60 0 18 3 18 47 -4 46 -24 133 -33 133 -15 0 5 3 18 6
28 4 13 3 14 -3 5 -8 -11 -23 -11 -76 -2 -37 7 -67 16 -67 21 0 5 -7 9 -15 9
-8 0 -15 7 -15 15 0 20 6 19 28 -5 15 -16 26 -19 52 -14 19 4 35 14 37 24 4
15 11 16 45 8 44 -9 72 2 52 22 -14 14 -134 44 -142 36 -3 -4 -1 -16 6 -27 12
-19 11 -20 -25 -13 -21 4 -39 7 -40 8 -1 1 5 26 14 55 15 52 16 53 47 46 54
-11 221 -24 227 -17 13 14 50 155 45 168 -3 8 -18 14 -33 14 -16 0 -60 10 -98
21 -39 12 -82 22 -97 22 -27 0 -35 7 -21 20 15 16 126 6 202 -18z m-81 -70
c67 -18 72 -21 72 -47 0 -15 -5 -38 -11 -51 -10 -22 -16 -24 -62 -20 -85 6
-137 14 -137 20 0 20 47 123 55 120 6 -1 43 -11 83 -22z"/>
<path d="M2365 1220 c-11 -19 6 -30 45 -30 22 0 58 -7 80 -16 39 -16 70 -14
70 4 0 13 -53 34 -89 36 -16 1 -33 5 -37 9 -11 11 -62 9 -69 -3z"/>
<path d="M2534 2326 c-42 -20 -198 -69 -254 -81 -8 -2 -49 -15 -90 -30 -65
-24 -80 -26 -120 -17 -91 21 -165 55 -204 94 -21 21 -42 38 -46 38 -8 0 -158
-62 -260 -107 -19 -9 -61 -26 -93 -39 l-59 -23 -57 29 c-32 16 -72 40 -88 54
-17 14 -41 26 -54 26 -12 0 -84 -38 -159 -85 -122 -76 -139 -84 -166 -76 -46
13 -110 48 -148 81 -18 17 -43 30 -53 30 -19 0 -21 -10 -28 -117 -4 -65 -7
-248 -7 -408 0 -197 -2 -280 -9 -258 -12 39 -75 93 -110 93 -14 0 -33 -8 -42
-18 -21 -23 -47 -109 -47 -153 1 -19 -2 -51 -6 -71 -3 -21 -3 -46 2 -55 4 -10
6 -41 5 -69 -2 -29 2 -55 7 -58 7 -4 7 -18 1 -42 -6 -19 -9 -49 -7 -67 3 -29
6 -32 41 -35 31 -3 37 0 37 16 0 15 -5 18 -25 14 -21 -4 -25 -1 -25 19 1 13 7
35 15 49 19 33 19 70 0 70 -20 0 -20 39 0 67 14 20 14 24 -6 42 -27 25 -20 71
11 71 26 0 26 24 -1 42 -19 12 -20 17 -9 58 13 50 35 90 50 90 13 0 80 -60 80
-71 0 -5 -11 -9 -25 -9 -33 0 -45 -27 -50 -105 -2 -35 -8 -73 -14 -84 -16 -30
-13 -62 10 -100 15 -25 21 -56 25 -127 2 -51 6 -122 9 -156 8 -103 0 -123 -53
-147 -26 -11 -72 -40 -102 -65 -30 -25 -79 -59 -110 -75 -31 -17 -65 -39 -75
-51 -19 -21 -19 -21 4 -27 23 -6 23 -6 -5 -18 l-29 -12 39 -23 38 -23 -41 -34
c-23 -20 -41 -43 -41 -55 0 -18 4 -20 38 -14 20 3 47 9 60 12 21 6 20 3 -13
-47 -52 -80 -46 -99 25 -74 57 20 61 19 44 -12 -7 -16 -14 -41 -14 -56 0 -27
2 -28 32 -22 34 6 71 21 192 75 38 17 70 29 72 27 2 -2 -1 -20 -7 -41 -7 -25
-18 -40 -35 -46 -18 -7 -24 -17 -24 -38 0 -26 5 -31 45 -42 40 -11 49 -10 87
8 39 18 45 19 60 5 16 -14 20 -14 42 1 29 19 36 20 36 6 0 -6 -10 -14 -22 -19
l-22 -8 21 -11 c17 -9 25 -8 44 7 13 10 33 21 45 25 11 3 26 17 33 30 18 33 0
63 -42 71 l-33 7 -3 88 c-1 69 3 107 23 173 13 47 31 96 39 108 8 13 18 38 21
54 4 17 23 63 43 103 27 55 39 70 48 62 7 -6 57 -19 111 -29 55 -11 107 -22
117 -26 13 -5 17 -2 17 13 0 25 -32 37 -131 53 -42 6 -83 15 -90 20 -10 6 -4
27 28 94 40 83 45 115 19 115 -6 0 -18 -9 -26 -20 -23 -32 -31 -23 -13 15 13
27 14 38 5 47 -9 9 -15 9 -24 -3 -7 -8 -22 -22 -32 -29 -18 -13 -19 -13 -13 2
3 9 0 21 -7 27 -14 12 -46 -24 -176 -197 -65 -86 -65 -86 -75 75 l-7 111 43 7
c98 16 147 68 123 129 -3 9 -13 16 -21 16 -11 0 -10 6 6 26 34 43 22 84 -24
84 -12 0 -26 -5 -33 -12 -9 -9 -12 -5 -12 18 0 55 -74 106 -107 73 -7 -7 -15
-3 -26 15 -10 15 -13 26 -6 28 7 2 10 48 7 133 -4 178 0 647 7 653 3 3 20 -10
38 -29 19 -19 64 -48 100 -64 l66 -30 1 -85 c1 -93 7 -156 20 -198 5 -17 9 29
9 124 l1 151 125 83 c69 45 130 89 136 96 18 22 31 16 18 -8 -13 -25 -26 -288
-14 -276 4 4 12 47 16 95 5 48 11 97 13 108 3 11 5 33 5 49 l1 29 23 -21 c26
-25 152 -92 173 -92 11 0 13 -25 11 -139 -1 -101 1 -143 11 -152 10 -11 12 -9
13 7 3 70 9 179 14 240 6 64 9 71 33 81 15 6 91 39 170 73 l143 63 37 -35 c51
-49 76 -60 224 -102 51 -14 61 -15 80 -2 13 8 123 46 246 86 212 68 250 87
206 104 -19 7 -11 10 -70 -18z m-1880 -967 c13 -19 13 -25 1 -43 -8 -11 -13
-25 -12 -30 1 -5 -18 -9 -41 -10 l-44 -1 6 35 c3 19 6 43 6 53 0 26 64 23 84
-4z m104 -83 c28 1 28 -20 0 -40 -16 -12 -26 -13 -42 -4 -39 20 -46 47 -20 73
15 15 17 14 28 -7 7 -14 21 -23 34 -22z m-148 -46 c10 -5 23 -24 29 -42 10
-28 9 -35 -6 -45 -23 -18 -36 -16 -29 3 9 22 -11 54 -34 54 -25 0 -26 16 -2
29 21 13 20 13 42 1z m240 -10 c-6 -11 -29 -32 -50 -46 -62 -41 -52 -73 16
-49 50 17 62 9 33 -21 -22 -24 -54 -35 -131 -49 -24 -3 -38 -11 -38 -20 0 -8
5 -15 10 -15 6 0 10 -38 10 -93 0 -116 20 -196 65 -257 19 -26 44 -67 55 -91
21 -47 26 -114 10 -124 -5 -3 -10 -17 -10 -31 0 -25 -28 -89 -36 -82 -2 2 1
19 6 38 8 27 4 45 -21 105 -34 83 -62 113 -115 125 -88 20 -193 -21 -289 -113
-65 -62 -95 -80 -95 -58 0 5 9 11 20 14 28 7 15 37 -16 37 -13 0 -24 5 -24 10
0 6 8 10 18 10 22 0 96 46 177 110 55 43 69 49 117 51 35 1 47 130 30 337 -7
79 -7 82 14 82 54 0 90 62 64 111 -7 13 -7 19 0 19 5 0 10 -4 10 -10 0 -5 11
-12 25 -16 26 -6 32 -18 15 -29 -6 -3 -17 -19 -25 -35 -12 -23 -12 -30 -1 -39
11 -9 20 -1 46 38 32 51 92 111 111 111 6 0 6 -7 -1 -20z m151 -299 c-15 -28
-14 -61 3 -61 19 0 47 46 40 67 -5 17 -5 17 6 0 9 -15 5 -30 -26 -85 -89 -159
-113 -208 -114 -232 0 -14 -8 -38 -19 -53 l-18 -28 -18 48 c-21 54 -40 88 -69
121 l-20 22 26 28 c31 33 127 168 135 188 5 13 7 12 17 -1 11 -15 14 -15 36 3
27 23 37 14 21 -17z m-327 -362 c29 -14 76 -114 76 -163 0 -45 -66 -112 -152
-153 -102 -49 -219 -96 -224 -90 -9 9 39 96 50 90 6 -3 3 2 -6 12 -16 17 -19
17 -67 -3 -28 -11 -51 -18 -51 -15 0 15 66 103 78 103 17 0 15 11 -5 26 -15
10 -24 10 -52 -2 -58 -24 -57 -16 5 44 85 80 137 120 186 142 48 22 124 26
162 9z m160 -437 c5 -8 17 -11 31 -8 29 7 40 -7 19 -24 -11 -10 -18 -10 -26
-2 -7 7 -22 12 -35 12 -19 0 -23 6 -24 33 0 17 -6 57 -13 87 -11 50 -10 57 9
81 l20 25 5 -95 c3 -53 9 -102 14 -109z m-69 9 c-6 -14 -7 -14 -16 2 -6 9 -20
17 -33 17 -22 0 -23 2 -13 40 7 23 19 42 29 46 10 3 19 11 19 17 1 7 6 -14 11
-47 5 -32 6 -66 3 -75z m-101 29 c-5 -41 -4 -51 10 -56 9 -3 23 -1 31 6 10 8
15 9 15 2 0 -18 -35 -33 -48 -20 -8 8 -14 5 -20 -12 -7 -20 -10 -21 -15 -7 -4
10 -2 29 3 43 6 14 10 41 10 60 0 19 5 34 10 34 7 0 8 -18 4 -50z"/>
<path d="M624 729 c-3 -5 14 -9 37 -9 23 0 39 3 35 7 -11 11 -65 12 -72 2z"/>
<path d="M1791 2261 c-18 -33 -25 -154 -11 -210 20 -82 31 -71 29 31 -1 51 2
114 6 139 8 50 -6 74 -24 40z"/>
<path d="M1995 2095 c-49 -12 -102 -28 -118 -35 -25 -12 -27 -17 -21 -49 4
-20 19 -101 34 -181 21 -120 29 -145 44 -148 17 -4 18 1 12 51 -4 30 -13 77
-20 105 l-14 51 25 -10 c33 -12 67 -11 98 3 44 20 30 35 -32 34 l-58 -1 -3 42
c-3 41 -2 42 35 52 21 5 47 11 57 13 11 2 18 8 15 13 -5 13 -58 8 -111 -11
-45 -16 -64 -10 -35 11 18 13 129 43 177 49 33 3 52 15 45 27 -8 12 -26 10
-130 -16z"/>
<path d="M2107 2072 c-12 -2 -16 -10 -12 -25 3 -12 11 -62 19 -112 15 -90 38
-196 50 -226 6 -13 -12 -19 -106 -38 -61 -12 -114 -24 -117 -27 -3 -2 0 -9 7
-16 13 -13 123 2 193 26 28 10 39 11 35 3 -7 -18 -24 -79 -31 -109 -7 -39 -51
-86 -83 -90 -33 -4 -37 -32 -4 -36 28 -4 84 30 107 65 10 14 23 51 30 82 7 31
18 74 24 96 5 22 6 42 2 45 -11 6 74 231 91 242 7 4 29 8 49 8 28 0 41 -6 53
-25 31 -47 88 -42 122 10 14 21 14 30 5 54 -11 25 -46 51 -70 51 -5 0 -19 -11
-32 -24 -18 -17 -40 -25 -83 -29 -70 -7 -94 -27 -121 -102 -29 -78 -46 -117
-50 -113 -7 7 -45 210 -45 242 0 39 -10 53 -33 48z m393 -92 c0 -26 -38 -47
-46 -25 -7 18 12 45 32 45 8 0 14 -9 14 -20z"/>
<path d="M1803 1935 c0 -27 3 -81 7 -120 7 -68 7 -69 7 -15 0 30 -3 84 -7 120
-7 61 -7 62 -7 15z"/>
<path d="M1210 1900 c0 -40 3 -71 6 -67 7 7 7 128 -1 135 -3 3 -5 -28 -5 -68z"/>
<path d="M1496 1878 c-9 -12 -16 -27 -16 -33 0 -18 45 -55 66 -55 47 0 123
-31 142 -58 11 -15 34 -83 52 -151 47 -182 70 -222 141 -255 20 -9 41 -28 47
-41 13 -29 40 -32 82 -10 46 24 51 44 24 87 -32 50 -67 59 -98 25 -23 -25 -24
-25 -52 -8 -16 10 -34 24 -40 32 -15 19 -46 110 -80 238 -30 112 -53 142 -126
167 -19 6 -34 19 -37 30 -9 53 -76 73 -105 32z m68 -23 c7 -20 -21 -32 -37
-16 -9 9 -8 14 3 21 21 13 27 12 34 -5z m434 -507 c17 -17 15 -23 -13 -36 -21
-10 -27 -9 -31 3 -14 35 18 59 44 33z"/>
<path d="M2012 1830 c-45 -18 -55 -90 -13 -90 29 0 69 20 76 38 5 15 -6 14
-47 -3 -25 -10 -23 12 2 27 11 7 20 18 20 25 0 15 -6 15 -38 3z"/>
<path d="M1448 1773 c-41 -44 -67 -107 -74 -175 -3 -35 -9 -67 -11 -72 -6 -10
-149 -76 -165 -76 -25 0 -194 -83 -210 -103 -35 -44 -78 -149 -78 -188 0 -40
30 -18 44 32 29 95 59 135 134 172 37 19 99 44 137 57 93 30 162 66 175 89 5
11 10 37 10 59 0 58 27 138 60 176 49 56 28 82 -22 29z"/>
<path d="M1155 1780 c-5 -8 -26 -10 -66 -5 -86 10 -89 5 -89 -126 0 -59 -4
-119 -10 -134 -9 -23 -7 -27 17 -36 15 -5 56 -11 92 -12 l65 -2 13 140 c7 77
14 149 15 160 3 21 -26 33 -37 15z m-8 -45 c7 -3 10 -10 7 -18 -4 -10 -17 -12
-60 -6 -60 8 -69 12 -60 27 5 9 82 6 113 -3z m-1 -92 c-3 -21 -9 -64 -13 -96
-5 -53 -8 -58 -27 -53 -12 3 -33 6 -48 6 -27 0 -28 2 -28 55 l0 55 50 0 c37 0
50 4 50 15 0 16 -36 28 -71 23 -16 -2 -25 3 -27 15 -3 15 5 17 59 17 l62 0 -7
-37z"/>
<path d="M1047 1584 c-16 -16 -6 -35 16 -32 12 2 22 10 22 18 0 16 -26 25 -38
14z"/>
<path d="M880 1534 c0 -58 4 -84 9 -74 9 13 4 150 -5 159 -2 2 -4 -36 -4 -85z"/>
<path d="M2030 1536 c0 -25 6 -48 14 -55 11 -9 14 -2 20 35 6 50 2 64 -20 64
-10 0 -14 -12 -14 -44z"/>
<path d="M1454 1420 c0 -85 2 -120 3 -77 2 42 2 112 0 155 -1 42 -3 7 -3 -78z"/>
<path d="M888 1388 c5 -89 9 -97 11 -20 0 39 -2 72 -6 72 -5 0 -7 -24 -5 -52z"/>
<path d="M1154 1270 c0 -58 1 -81 3 -52 2 28 2 76 0 105 -2 28 -3 5 -3 -53z"/>
<path d="M2057 1273 c-3 -5 -1 -28 3 -53 l7 -45 2 53 c1 49 -2 62 -12 45z"/>
<path d="M1442 1248 c-18 -18 -17 -278 2 -303 11 -16 14 4 19 141 3 87 2 162
-2 167 -4 4 -12 2 -19 -5z"/>
<path d="M1807 1213 c-19 -18 1 -275 22 -296 8 -8 11 36 11 146 0 124 -3 157
-13 157 -8 0 -17 -3 -20 -7z"/>
<path d="M2050 1150 c-21 -39 2 -208 23 -173 3 4 6 45 8 90 4 90 -9 124 -31
83z"/>
<path d="M1154 1149 c-9 -16 6 -372 17 -384 10 -10 11 11 12 140 0 237 -5 282
-29 244z"/>
<path d="M790 997 c0 -10 -7 -20 -16 -24 -8 -3 -13 -12 -9 -21 3 -8 0 -21 -7
-30 -11 -13 -10 -14 2 -10 8 2 17 13 19 24 1 10 9 26 17 34 8 10 10 20 4 30
-8 13 -10 12 -10 -3z"/>
<path d="M1405 828 c-91 -60 -121 -86 -123 -104 -2 -13 1 -24 7 -24 6 0 54 31
108 69 54 37 113 76 131 85 34 18 41 49 12 53 -8 1 -69 -34 -135 -79z"/>
<path d="M2167 339 c-19 -11 -59 -88 -52 -100 3 -3 -6 -4 -19 -2 -20 4 -26 -1
-36 -34 -12 -36 -35 -74 -28 -45 3 12 -71 62 -92 62 -4 0 -22 -12 -39 -26 -30
-25 -42 -64 -20 -64 7 0 9 -10 5 -24 -12 -48 33 -65 76 -29 14 13 18 12 28 -6
14 -28 34 -26 50 4 15 27 30 24 30 -6 0 -27 44 -47 65 -29 13 11 25 10 70 -5
l54 -19 26 24 c15 14 25 35 25 51 0 15 5 29 10 31 15 5 19 59 7 86 -9 19 -16
22 -36 17 -20 -5 -23 -4 -15 5 17 17 0 81 -27 103 -24 19 -55 22 -82 6z m75
-26 c19 -17 26 -79 8 -68 -5 3 -10 16 -10 27 0 12 -3 18 -7 15 -3 -4 -12 -2
-19 4 -15 12 -44 -9 -44 -32 0 -8 7 -4 17 8 16 20 17 20 50 -24 18 -24 33 -47
33 -51 0 -4 -10 -16 -22 -27 -15 -13 -18 -20 -10 -23 20 -6 52 28 52 55 0 15
5 23 12 21 17 -6 18 -76 1 -89 -7 -6 -13 -23 -13 -38 0 -16 -8 -31 -21 -39
-18 -11 -24 -11 -40 4 -11 10 -19 12 -19 6 0 -7 -4 -12 -10 -12 -5 0 -10 6
-10 14 0 23 -36 25 -54 4 -22 -25 -43 -10 -52 38 -3 19 -10 31 -15 28 -5 -3
-6 -10 -3 -16 4 -7 2 -8 -4 -4 -7 4 -17 -3 -24 -18 -14 -32 -21 -32 -41 -4
-12 17 -18 20 -25 10 -5 -7 -23 -17 -41 -22 l-33 -9 6 39 c4 26 2 40 -7 43
-18 6 10 37 34 37 24 0 99 -46 99 -61 0 -13 21 -7 23 6 3 26 27 80 34 78 41
-8 48 -7 45 6 -5 25 9 68 29 90 24 25 56 27 81 4z"/>
</g>
</svg>
