<?xml version="1.0" standalone="no"?>
<!DOCTYPE svg PUBLIC "-//W3C//DTD SVG 20010904//EN"
 "http://www.w3.org/TR/2001/REC-SVG-20010904/DTD/svg10.dtd">
<svg version="1.0" xmlns="http://www.w3.org/2000/svg"
 width="300.000000pt" height="225.000000pt" viewBox="0 0 300.000000 225.000000"
 preserveAspectRatio="xMidYMid meet">
<metadata>
Created by potrace 1.10, written by Peter Selinger 2001-2011
</metadata>
<g transform="translate(0.000000,225.000000) scale(0.100000,-0.100000)"
fill="#000000" stroke="none">
<path d="M985 1849 c-107 -8 -166 -32 -218 -88 -28 -30 -48 -62 -52 -83 -6
-33 -13 -38 -113 -87 -59 -28 -116 -51 -128 -51 -14 0 -27 13 -42 45 -27 57
-67 79 -88 50 -9 -12 -12 -30 -8 -48 5 -22 1 -32 -20 -48 -43 -34 -32 -119 13
-104 18 5 21 2 21 -19 0 -25 31 -66 49 -66 15 0 41 30 41 46 0 17 5 17 30 4
32 -17 57 -72 62 -135 6 -81 -1 -107 -35 -116 -24 -7 -30 -3 -51 29 -59 92
-99 93 -104 2 -2 -34 -10 -62 -23 -78 -10 -14 -19 -31 -19 -38 0 -22 23 -64
34 -64 6 0 20 -19 31 -42 11 -23 26 -44 32 -46 23 -7 73 54 73 87 0 17 2 31 5
31 20 0 95 -47 117 -73 25 -30 28 -31 44 -15 15 15 15 19 -11 53 -28 36 -77
67 -126 78 -33 8 -54 -14 -63 -65 -13 -73 -51 -55 -41 20 6 42 -1 52 -22 31
-12 -12 -33 -5 -33 11 0 4 14 13 30 19 33 11 37 26 15 55 -8 11 -15 28 -15 38
0 34 22 18 43 -32 21 -49 22 -50 64 -50 48 0 70 18 90 73 11 31 12 31 12 6 1
-30 20 -89 32 -103 6 -6 13 -6 20 1 7 7 6 31 -4 82 -15 73 -11 166 13 250 13
48 13 61 -4 61 -20 0 -34 -43 -50 -145 l-13 -90 -7 60 c-9 79 -34 125 -85 153
-47 27 -71 19 -71 -24 0 -13 -4 -24 -10 -24 -10 0 -14 18 -10 58 1 18 -4 22
-29 22 -16 0 -33 5 -36 10 -4 6 8 10 29 10 41 0 48 14 30 59 -8 19 -12 36 -9
39 8 8 12 1 33 -53 l20 -50 43 3 c29 3 78 22 144 57 l101 54 19 -37 c23 -41
175 -162 205 -162 10 0 22 9 25 21 6 17 13 20 35 15 25 -4 29 -2 32 19 3 24 4
25 33 9 27 -14 31 -14 41 1 9 12 13 13 16 3 5 -15 107 -18 109 -3 1 6 2 17 3
25 0 8 12 17 26 20 27 7 28 21 4 58 -22 33 -38 36 -115 22 -37 -7 -72 -14 -76
-14 -4 -1 -10 13 -15 30 -4 17 -17 39 -28 49 -19 17 -20 17 -26 0 -4 -10 -1
-27 6 -39 20 -31 53 -99 56 -113 1 -7 -13 -1 -32 13 -44 34 -91 19 -49 -16 8
-7 15 -16 15 -20 0 -13 -38 1 -56 21 -9 10 -23 19 -31 19 -19 0 -16 -37 4 -49
10 -5 15 -13 11 -16 -11 -11 -157 117 -173 152 -14 29 -14 36 -1 61 21 41 79
89 123 102 21 6 78 14 127 17 l89 6 126 -64 c120 -61 132 -70 249 -187 68 -67
135 -125 148 -128 13 -3 24 -10 24 -14 0 -18 106 -33 285 -41 105 -4 193 -8
196 -9 3 0 11 -18 18 -40 16 -55 48 -74 108 -66 27 3 57 15 69 27 12 12 27 18
33 15 15 -10 53 13 48 29 -4 10 4 10 41 -1 62 -19 70 -29 84 -101 10 -54 9
-64 -8 -93 -23 -39 -76 -70 -121 -70 -38 0 -47 27 -11 32 13 2 24 11 26 20 3
14 -5 17 -45 17 -26 -1 -67 2 -89 6 -37 6 -45 3 -75 -23 -28 -25 -34 -37 -34
-71 0 -55 -21 -54 -35 2 -6 23 -13 50 -16 59 -3 10 -5 36 -6 58 0 46 -19 53
-36 15 -20 -43 24 -221 65 -267 14 -16 14 -18 -1 -24 -11 -4 -28 1 -44 13 -47
34 -70 79 -77 148 -4 36 -11 68 -16 70 -18 12 -27 -33 -19 -95 4 -36 5 -68 3
-72 -7 -14 -50 -9 -63 7 -14 17 -11 37 21 121 20 54 22 65 10 90 l-13 29 -13
-25 c-7 -13 -11 -30 -8 -37 3 -7 -7 -42 -22 -78 -28 -65 -28 -65 -69 -65 -23
0 -81 -6 -129 -14 -98 -16 -109 -23 -229 -147 -78 -81 -134 -110 -269 -140
-139 -30 -216 -24 -310 25 -106 55 -123 70 -158 131 -36 64 -38 78 -11 137 19
43 113 159 152 186 16 12 17 10 12 -16 -4 -19 -1 -32 10 -41 21 -18 92 16 88
42 -2 9 2 17 8 17 6 0 8 -15 4 -40 -8 -47 7 -70 43 -70 22 0 24 -2 12 -16 -8
-10 -14 -45 -15 -88 -2 -60 1 -75 19 -93 20 -23 47 -30 60 -16 4 4 -5 19 -19
34 -28 30 -35 89 -15 127 11 20 11 20 72 1 33 -10 65 -19 69 -19 5 0 16 24 25
53 9 28 26 74 38 100 l21 49 -22 17 c-13 9 -67 40 -120 68 -78 40 -101 48
-113 39 -20 -14 -89 -117 -89 -132 0 -6 -7 -17 -15 -24 -12 -10 -15 -9 -15 5
0 11 -5 15 -15 11 -8 -3 -15 0 -15 5 0 6 9 9 19 6 20 -5 31 10 31 39 0 75
-205 -86 -260 -204 -11 -24 -23 -62 -26 -85 -5 -36 0 -51 31 -104 47 -77 63
-92 154 -142 110 -61 186 -82 258 -71 130 19 198 37 283 74 19 8 60 43 90 78
30 34 67 74 83 88 15 13 27 29 27 35 0 13 88 31 196 41 64 6 74 4 92 -14 31
-31 71 -38 103 -19 26 15 28 14 34 -3 8 -26 66 -60 101 -60 31 0 68 25 77 51
3 9 -5 27 -18 41 -14 15 -20 30 -15 37 5 9 14 3 30 -19 31 -44 63 -54 106 -34
19 9 34 21 34 26 0 6 9 8 21 5 29 -8 69 9 69 29 0 12 -6 15 -25 10 -20 -5 -25
-3 -25 12 0 27 10 33 26 17 12 -12 22 -11 64 7 102 42 130 135 83 266 -18 47
-44 66 -109 77 -36 5 -41 9 -36 27 5 19 2 20 -26 15 -27 -6 -32 -4 -32 13 0
15 7 20 29 20 17 0 31 6 35 15 7 20 -16 29 -52 20 -38 -9 -51 -8 -101 6 l-44
12 -38 -40 -38 -41 -193 8 c-106 5 -200 10 -208 13 -132 41 -127 38 -202 122
-105 117 -188 180 -313 240 -125 60 -134 62 -230 54z m245 -288 c0 -5 -17 -11
-37 -14 -21 -4 -53 -9 -70 -13 -20 -4 -33 -2 -33 4 0 5 21 14 48 20 62 13 92
14 92 3z m998 -173 c20 -23 35 -23 57 2 10 11 22 17 26 14 15 -9 10 -66 -8
-86 -19 -22 -95 -25 -112 -5 -22 27 -24 75 -5 104 17 26 19 26 22 8 2 -11 11
-28 20 -37z m-1064 -155 l94 -46 -19 -41 c-10 -23 -19 -48 -19 -57 0 -8 -6
-23 -13 -33 -11 -15 -21 -17 -56 -11 -37 6 -42 10 -37 28 9 34 -9 47 -50 35
-46 -12 -53 -4 -24 27 30 32 14 57 -33 49 -24 -4 -28 -3 -16 5 9 6 28 28 44
51 15 22 29 40 31 40 2 0 46 -21 98 -47z m1144 -153 c18 -22 26 -108 8 -90
-16 16 -44 12 -64 -11 l-20 -20 -11 32 c-16 47 -14 86 7 98 28 17 61 13 80 -9z"/>
<path d="M1100 1220 c0 -5 9 -14 20 -20 15 -8 19 -17 14 -34 -4 -17 1 -30 18
-46 21 -19 23 -20 27 -4 2 10 -2 20 -8 22 -8 3 -8 9 0 24 9 16 6 24 -12 44
-22 24 -59 33 -59 14z"/>
<path d="M1040 1212 c0 -5 11 -19 25 -32 23 -21 25 -22 31 -5 5 12 1 23 -11
31 -21 16 -45 18 -45 6z"/>
<path d="M1431 1386 c-10 -12 -10 -28 3 -79 9 -35 16 -80 16 -101 0 -49 21
-44 34 8 6 27 4 57 -8 104 -19 76 -28 89 -45 68z"/>
<path d="M1564 1355 c-45 -69 -36 -370 12 -389 13 -5 14 4 7 72 -12 117 -7
242 11 286 9 21 16 42 16 47 0 19 -30 8 -46 -16z"/>
<path d="M1639 1338 c-41 -67 -51 -98 -45 -132 3 -20 9 -53 12 -73 4 -21 11
-44 17 -51 19 -23 27 8 27 106 0 59 5 106 15 129 18 43 18 43 1 43 -7 0 -20
-10 -27 -22z"/>
</g>
</svg>
