<?xml version="1.0" encoding="UTF-8"?>
<svg width="1407px" height="996px" viewBox="0 0 1407 996" version="1.1" xmlns="http://www.w3.org/2000/svg" xmlns:xlink="http://www.w3.org/1999/xlink">
    <!-- Generator: Sketch 52.5 (67469) - http://www.bohemiancoding.com/sketch -->
    <title>Group 2</title>
    <desc>Created with Sketch.</desc>
    <g id="Page-1" stroke="none" stroke-width="1" fill="none" fill-rule="evenodd" opacity="0.68422154">
        <g id="Desktop-HD" transform="translate(-33.000000, 0.000000)" fill-rule="nonzero">
            <g id="Group-2" transform="translate(33.000000, -48.000000)">
                <polygon id="Path-2" fill="#385BC8" points="1061.51334 811 1034 824.660606 1034 860 1087.53784 842.181818"></polygon>
                <polygon id="Path-2" fill="#385BC8" points="1007.51334 778 980 791.660606 980 827 1033.53784 809.181818"></polygon>
                <polygon id="Path-2" fill="#385BC8" points="980.513335 840 953 853.660606 953 889 1006.53784 871.181818"></polygon>
                <polygon id="Path-2" fill="#385BC8" points="918.513335 904 891 917.660606 891 953 944.537838 935.181818"></polygon>
                <polygon id="Path-2" fill="#385BC8" points="988.513335 891 961 904.660606 961 940 1014.53784 922.181818"></polygon>
                <polygon id="Path-2" fill="#385BC8" points="1061.51334 873 1034 886.660606 1034 922 1087.53784 904.181818"></polygon>
                <polygon id="Path-2" fill="#385BC8" points="1073.51334 757 1046 770.660606 1046 806 1099.53784 788.181818"></polygon>
                <polygon id="Path-2" fill="#385BC8" points="1127.51334 787 1100 800.660606 1100 836 1153.53784 818.181818"></polygon>
                <polygon id="Path-2" fill="#385BC8" points="1132.51334 725 1105 738.660606 1105 774 1158.53784 756.181818"></polygon>
                <polygon id="Path-2" fill="#385BC8" points="1201.51334 740 1174 753.660606 1174 789 1227.53784 771.181818"></polygon>
                <polygon id="Path-2" fill="#385BC8" points="1189.51334 791 1162 804.660606 1162 840 1215.53784 822.181818"></polygon>
                <polygon id="Path-2" fill="#385BC8" points="1201.51334 694 1174 707.660606 1174 743 1227.53784 725.181818"></polygon>
                <polygon id="Path-2" fill="#385BC8" points="1147.51334 663 1120 676.660606 1120 712 1173.53784 694.181818"></polygon>
                <polygon id="Path-2" fill="#385BC8" points="1079.51334 697 1052 710.660606 1052 746 1105.53784 728.181818"></polygon>
                <polygon id="Path-2" fill="#385BC8" points="1127.51334 849 1100 862.660606 1100 898 1153.53784 880.181818"></polygon>
                <polygon id="Path-2" fill="#385BC8" points="1193.51334 842 1166 855.660606 1166 891 1219.53784 873.181818"></polygon>
                <polygon id="Path-2" fill="#385BC8" points="1273.51334 814 1246 827.660606 1246 863 1299.53784 845.181818"></polygon>
                <polygon id="Path-2" fill="#385BC8" points="1343.51334 791 1316 804.660606 1316 840 1369.53784 822.181818"></polygon>
                <polygon id="Path-2" fill="#10276E" points="1267.51334 759 1240 772.660606 1240 808 1293.53784 790.181818"></polygon>
                <polygon id="Path-2" fill="#385BC8" points="1343.51334 733 1316 746.660606 1316 782 1369.53784 764.181818"></polygon>
                <polygon id="Path-2" fill="#385BC8" points="1277.51334 704 1250 717.660606 1250 753 1303.53784 735.181818"></polygon>
                <polygon id="Path-2" fill="#385BC8" points="1340.51334 675 1313 688.660606 1313 724 1366.53784 706.181818"></polygon>
                <polygon id="Path-2" fill="#385BC8" points="1255.51334 649 1228 662.660606 1228 698 1281.53784 680.181818"></polygon>
                <polygon id="Path-2" fill="#385BC8" points="1201.51334 617 1174 630.660606 1174 666 1227.53784 648.181818"></polygon>
                <polygon id="Path-2" fill="#385BC8" points="1318.9755 625 1291.46216 638.660606 1291.46216 674 1345 656.181818"></polygon>
                <polygon id="Path-2" fill="#385BC8" points="1265.51334 584 1238 597.660606 1238 633 1291.53784 615.181818"></polygon>
                <polygon id="Path-2" fill="#385BC8" points="1327.51334 535 1300 548.660606 1300 584 1353.53784 566.181818"></polygon>
                <polygon id="Path-2" fill="#385BC8" points="1359.51334 581 1332 594.660606 1332 630 1385.53784 612.181818"></polygon>
                <polygon id="Path-2" fill="#385BC8" points="170.513335 902 143 915.660606 143 951 196.537838 933.181818"></polygon>
                <polygon id="Path-2" fill="#385BC8" points="116.513335 869 89 882.660606 89 918 142.537838 900.181818"></polygon>
                <polygon id="Path-2" fill="#385BC8" points="89.5133353 931 62 944.660606 62 980 115.537838 962.181818"></polygon>
                <polygon id="Path-2" fill="#385BC8" points="27.5133353 995 2.38031816e-13 1008.66061 2.38031816e-13 1044 53.537838 1026.18182"></polygon>
                <polygon id="Path-2" fill="#385BC8" points="97.5133353 982 70 995.660606 70 1031 123.537838 1013.18182"></polygon>
                <polygon id="Path-2" fill="#385BC8" points="170.513335 964 143 977.660606 143 1013 196.537838 995.181818"></polygon>
                <polygon id="Path-2" fill="#385BC8" points="182.513335 848 155 861.660606 155 897 208.537838 879.181818"></polygon>
                <polygon id="Path-2" fill="#385BC8" points="236.513335 878 209 891.660606 209 927 262.537838 909.181818"></polygon>
                <polygon id="Path-2" fill="#385BC8" points="241.513335 816 214 829.660606 214 865 267.537838 847.181818"></polygon>
                <polygon id="Path-2" fill="#385BC8" points="310.513335 831 283 844.660606 283 880 336.537838 862.181818"></polygon>
                <polygon id="Path-2" fill="#385BC8" points="298.513335 882 271 895.660606 271 931 324.537838 913.181818"></polygon>
                <polygon id="Path-2" fill="#E1D011" points="310.513335 785 283 798.660606 283 834 336.537838 816.181818"></polygon>
                <polygon id="Path-2" fill="#385BC8" points="256.513335 754 229 767.660606 229 803 282.537838 785.181818"></polygon>
                <polygon id="Path-2" fill="#385BC8" points="188.513335 788 161 801.660606 161 837 214.537838 819.181818"></polygon>
                <polygon id="Path-2" fill="#385BC8" points="236.513335 940 209 953.660606 209 989 262.537838 971.181818"></polygon>
                <polygon id="Path-2" fill="#385BC8" points="302.513335 933 275 946.660606 275 982 328.537838 964.181818"></polygon>
                <polygon id="Path-2" fill="#385BC8" points="382.513335 905 355 918.660606 355 954 408.537838 936.181818"></polygon>
                <polygon id="Path-7" fill="#385BC8" points="452.513335 882 425 895.660606 425 931 478.537838 913.181818"></polygon>
                <polygon id="Path-2" fill="#385BC8" points="376.513335 850 349 863.660606 349 899 402.537838 881.181818"></polygon>
                <polygon id="Path-2" fill="#385BC8" points="452.513335 824 425 837.660606 425 873 478.537838 855.181818"></polygon>
                <polygon id="Path-2" fill="#385BC8" points="386.513335 795 359 808.660606 359 844 412.537838 826.181818"></polygon>
                <polygon id="Path-2" fill="#385BC8" points="449.513335 766 422 779.660606 422 815 475.537838 797.181818"></polygon>
                <polygon id="Path-2" fill="#385BC8" points="364.513335 740 337 753.660606 337 789 390.537838 771.181818"></polygon>
                <polygon id="Path-2" fill="#385BC8" points="310.513335 708 283 721.660606 283 757 336.537838 739.181818"></polygon>
                <polygon id="Path-2" fill="#385BC8" points="427.513335 716 400 729.660606 400 765 453.537838 747.181818"></polygon>
                <polygon id="Path-2" fill="#385BC8" points="374.513335 675 347 688.660606 347 724 400.537838 706.181818"></polygon>
                <polygon id="Path-2" fill="#385BC8" points="436.513335 626 409 639.660606 409 675 462.537838 657.181818"></polygon>
                <polygon id="Path-2" fill="#385BC8" points="468.513335 672 441 685.660606 441 721 494.537838 703.181818"></polygon>
                <polygon id="Path-2" fill="#385BC8" points="650.513335 490 623 503.660606 623 539 676.537838 521.181818"></polygon>
                <polygon id="Path-2" fill="#385BC8" points="596.513335 457 569 470.660606 569 506 622.537838 488.181818"></polygon>
                <polygon id="Path-2" fill="#385BC8" points="569.513335 519 542 532.660606 542 568 595.537838 550.181818"></polygon>
                <polygon id="Path-2" fill="#385BC8" points="507.513335 583 480 596.660606 480 632 533.537838 614.181818"></polygon>
                <polygon id="Path-2" fill="#385BC8" points="577.513335 570 550 583.660606 550 619 603.537838 601.181818"></polygon>
                <polygon id="Path-2" fill="#385BC8" points="650.513335 552 623 565.660606 623 601 676.537838 583.181818"></polygon>
                <polygon id="Path-2" fill="#385BC8" points="662.513335 436 635 449.660606 635 485 688.537838 467.181818"></polygon>
                <polygon id="Path-2" fill="#385BC8" points="716.513335 466 689 479.660606 689 515 742.537838 497.181818"></polygon>
                <polygon id="Path-6" fill="#385BC8" points="721.513335 404 694 417.660606 694 453 747.537838 435.181818"></polygon>
                <polygon id="Path-2" fill="#385BC8" points="790.513335 419 763 432.660606 763 468 816.537838 450.181818"></polygon>
                <polygon id="Path-2" fill="#385BC8" points="778.513335 470 751 483.660606 751 519 804.537838 501.181818"></polygon>
                <polygon id="Path-2" fill="#385BC8" points="790.513335 373 763 386.660606 763 422 816.537838 404.181818"></polygon>
                <polygon id="Path-2" fill="#385BC8" points="736.513335 342 709 355.660606 709 391 762.537838 373.181818"></polygon>
                <polygon id="Path-2" fill="#385BC8" points="668.513335 376 641 389.660606 641 425 694.537838 407.181818"></polygon>
                <polygon id="Path-2" fill="#385BC8" points="716.513335 528 689 541.660606 689 577 742.537838 559.181818"></polygon>
                <polygon id="Path-2" fill="#385BC8" points="782.513335 521 755 534.660606 755 570 808.537838 552.181818"></polygon>
                <polygon id="Path-2" fill="#385BC8" points="862.513335 493 835 506.660606 835 542 888.537838 524.181818"></polygon>
                <polygon id="Path-2" fill="#385BC8" points="932.513335 470 905 483.660606 905 519 958.537838 501.181818"></polygon>
                <polygon id="Path-2" fill="#385BC8" points="856.513335 438 829 451.660606 829 487 882.537838 469.181818"></polygon>
                <polygon id="Path-2" fill="#385BC8" points="932.513335 412 905 425.660606 905 461 958.537838 443.181818"></polygon>
                <polygon id="Path-2" fill="#385BC8" points="866.513335 383 839 396.660606 839 432 892.537838 414.181818"></polygon>
                <polygon id="Path-2" fill="#385BC8" points="929.513335 354 902 367.660606 902 403 955.537838 385.181818"></polygon>
                <polygon id="Path-2" fill="#C87338" points="844.513335 328 817 341.660606 817 377 870.537838 359.181818"></polygon>
                <polygon id="Path-2" fill="#385BC8" points="790.513335 296 763 309.660606 763 345 816.537838 327.181818"></polygon>
                <polygon id="Path-2" fill="#385BC8" points="907.513335 304 880 317.660606 880 353 933.537838 335.181818"></polygon>
                <polygon id="Path-2" fill="#385BC8" points="854.513335 263 827 276.660606 827 312 880.537838 294.181818"></polygon>
                <polygon id="Path-2" fill="#385BC8" points="916.513335 214 889 227.660606 889 263 942.537838 245.181818"></polygon>
                <polygon id="Path-2" fill="#385BC8" points="948.513335 260 921 273.660606 921 309 974.537838 291.181818"></polygon>
                <polygon id="Path-2" fill="#385BC8" points="659.513335 807 632 820.660606 632 856 685.537838 838.181818"></polygon>
                <polygon id="Path-2" fill="#385BC8" points="605.513335 774 578 787.660606 578 823 631.537838 805.181818"></polygon>
                <polygon id="Path-2" fill="#385BC8" points="578.513335 836 551 849.660606 551 885 604.537838 867.181818"></polygon>
                <polygon id="Path-2" fill="#385BC8" points="516.513335 900 489 913.660606 489 949 542.537838 931.181818"></polygon>
                <polygon id="Path-2" fill="#385BC8" points="586.513335 887 559 900.660606 559 936 612.537838 918.181818"></polygon>
                <polygon id="Path-2" fill="#385BC8" points="659.513335 869 632 882.660606 632 918 685.537838 900.181818"></polygon>
                <polygon id="Path-5" fill="#385BC8" points="671.513335 753 644 766.660606 644 802 697.537838 784.181818"></polygon>
                <polygon id="Path-2" fill="#385BC8" points="725.513335 783 698 796.660606 698 832 751.537838 814.181818"></polygon>
                <polygon id="Path-2" fill="#385BC8" points="730.513335 721 703 734.660606 703 770 756.537838 752.181818"></polygon>
                <polygon id="Path-2" fill="#385BC8" points="799.513335 736 772 749.660606 772 785 825.537838 767.181818"></polygon>
                <polygon id="Path-2" fill="#385BC8" points="787.513335 787 760 800.660606 760 836 813.537838 818.181818"></polygon>
                <polygon id="Path-2" fill="#385BC8" points="799.513335 690 772 703.660606 772 739 825.537838 721.181818"></polygon>
                <polygon id="Path-2" fill="#385BC8" points="745.513335 659 718 672.660606 718 708 771.537838 690.181818"></polygon>
                <polygon id="Path-2" fill="#385BC8" points="677.513335 693 650 706.660606 650 742 703.537838 724.181818"></polygon>
                <polygon id="Path-2" fill="#385BC8" points="725.513335 845 698 858.660606 698 894 751.537838 876.181818"></polygon>
                <polygon id="Path-2" fill="#385BC8" points="791.513335 838 764 851.660606 764 887 817.537838 869.181818"></polygon>
                <polygon id="Path-2" fill="#385BC8" points="871.513335 810 844 823.660606 844 859 897.537838 841.181818"></polygon>
                <polygon id="Path-2" fill="#385BC8" points="941.513335 787 914 800.660606 914 836 967.537838 818.181818"></polygon>
                <polygon id="Path-2" fill="#385BC8" points="865.513335 755 838 768.660606 838 804 891.537838 786.181818"></polygon>
                <polygon id="Path-2" fill="#385BC8" points="941.513335 729 914 742.660606 914 778 967.537838 760.181818"></polygon>
                <polygon id="Path-2" fill="#385BC8" points="875.513335 700 848 713.660606 848 749 901.537838 731.181818"></polygon>
                <polygon id="Path-2" fill="#385BC8" points="938.513335 671 911 684.660606 911 720 964.537838 702.181818"></polygon>
                <polygon id="Path-2" fill="#385BC8" points="853.513335 645 826 658.660606 826 694 879.537838 676.181818"></polygon>
                <polygon id="Path-2" fill="#385BC8" points="799.513335 613 772 626.660606 772 662 825.537838 644.181818"></polygon>
                <polygon id="Path-2" fill="#385BC8" points="916.513335 621 889 634.660606 889 670 942.537838 652.181818"></polygon>
                <polygon id="Path-2" fill="#385BC8" points="863.513335 580 836 593.660606 836 629 889.537838 611.181818"></polygon>
                <polygon id="Path-2" fill="#385BC8" points="925.513335 531 898 544.660606 898 580 951.537838 562.181818"></polygon>
                <polygon id="Path-2" fill="#385BC8" points="957.513335 577 930 590.660606 930 626 983.537838 608.181818"></polygon>
                <polygon id="Path-4" fill="#385BC8" points="1124.51334 71 1097 84.6606061 1097 120 1150.53784 102.181818"></polygon>
                <polygon id="Path-2" fill="#385BC8" points="1070.51334 38 1043 51.6606061 1043 87 1096.53784 69.1818182"></polygon>
                <polygon id="Path-2" fill="#385BC8" points="1043.51334 100 1016 113.660606 1016 149 1069.53784 131.181818"></polygon>
                <polygon id="Path-2" fill="#385BC8" points="981.513335 164 954 177.660606 954 213 1007.53784 195.181818"></polygon>
                <polygon id="Path-2" fill="#385BC8" points="1051.51334 151 1024 164.660606 1024 200 1077.53784 182.181818"></polygon>
                <polygon id="Path-2" fill="#385BC8" points="1124.51334 133 1097 146.660606 1097 182 1150.53784 164.181818"></polygon>
                <polygon id="Path-2" fill="#385BC8" points="1136.51334 17 1109 30.6606061 1109 66 1162.53784 48.1818182"></polygon>
                <polygon id="Path-2" fill="#385BC8" points="1190.51334 47 1163 60.6606061 1163 96 1216.53784 78.1818182"></polygon>
                <polygon id="Path-2" fill="#385BC8" points="1264.51334 3.55271368e-15 1237 13.6606061 1237 49 1290.53784 31.1818182"></polygon>
                <polygon id="Path-2" fill="#385BC8" points="1252.51334 51 1225 64.6606061 1225 100 1278.53784 82.1818182"></polygon>
                <polygon id="Path-2" fill="#385BC8" points="1190.51334 109 1163 122.660606 1163 158 1216.53784 140.181818"></polygon>
                <polygon id="Path-2" fill="#385BC8" points="1256.51334 102 1229 115.660606 1229 151 1282.53784 133.181818"></polygon>
                <polygon id="Path-2" fill="#385BC8" points="1336.51334 74 1309 87.6606061 1309 123 1362.53784 105.181818"></polygon>
                <polygon id="Path-2" fill="#385BC8" points="1406.51334 51 1379 64.6606061 1379 100 1432.53784 82.1818182"></polygon>
                <polygon id="Path-2" fill="#385BC8" points="1330.51334 19 1303 32.6606061 1303 68 1356.53784 50.1818182"></polygon>
                <polygon id="Path-2" fill="#385BC8" points="1146.51334 397 1119 410.660606 1119 446 1172.53784 428.181818"></polygon>
                <polygon id="Path-2" fill="#385BC8" points="1092.51334 364 1065 377.660606 1065 413 1118.53784 395.181818"></polygon>
                <polygon id="Path-2" fill="#385BC8" points="1065.51334 426 1038 439.660606 1038 475 1091.53784 457.181818"></polygon>
                <polygon id="Path-2" fill="#385BC8" points="1003.51334 490 976 503.660606 976 539 1029.53784 521.181818"></polygon>
                <polygon id="Path-2" fill="#385BC8" points="1073.51334 477 1046 490.660606 1046 526 1099.53784 508.181818"></polygon>
                <polygon id="Path-2" fill="#385BC8" points="1146.51334 459 1119 472.660606 1119 508 1172.53784 490.181818"></polygon>
                <polygon id="Path-3" fill="#385BC8" points="1158.51334 343 1131 356.660606 1131 392 1184.53784 374.181818"></polygon>
                <polygon id="Path-2" fill="#38C883" points="1212.51334 373 1185 386.660606 1185 422 1238.53784 404.181818"></polygon>
                <polygon id="Path-2" fill="#385BC8" points="1217.51334 311 1190 324.660606 1190 360 1243.53784 342.181818"></polygon>
                <polygon id="Path-2" fill="#385BC8" points="1286.51334 326 1259 339.660606 1259 375 1312.53784 357.181818"></polygon>
                <polygon id="Path-2" fill="#385BC8" points="1274.51334 377 1247 390.660606 1247 426 1300.53784 408.181818"></polygon>
                <polygon id="Path-2" fill="#385BC8" points="1286.51334 280 1259 293.660606 1259 329 1312.53784 311.181818"></polygon>
                <polygon id="Path-2" fill="#385BC8" points="1232.51334 249 1205 262.660606 1205 298 1258.53784 280.181818"></polygon>
                <polygon id="Path-2" fill="#385BC8" points="1164.51334 283 1137 296.660606 1137 332 1190.53784 314.181818"></polygon>
                <polygon id="Path-2" fill="#385BC8" points="1212.51334 435 1185 448.660606 1185 484 1238.53784 466.181818"></polygon>
                <polygon id="Path-2" fill="#385BC8" points="1278.51334 428 1251 441.660606 1251 477 1304.53784 459.181818"></polygon>
                <polygon id="Path-2" fill="#385BC8" points="1358.51334 400 1331 413.660606 1331 449 1384.53784 431.181818"></polygon>
                <polygon id="Path-2" fill="#0D0974" points="1428.51334 377 1401 390.660606 1401 426 1454.53784 408.181818"></polygon>
                <polygon id="Path-2" fill="#385BC8" points="1352.51334 345 1325 358.660606 1325 394 1378.53784 376.181818"></polygon>
                <polygon id="Path-2" fill="#0D0974" points="1428.51334 319 1401 332.660606 1401 368 1454.53784 350.181818"></polygon>
                <polygon id="Path-2" fill="#385BC8" points="1362.51334 290 1335 303.660606 1335 339 1388.53784 321.181818"></polygon>
                <polygon id="Path-2" fill="#0D0974" points="1425.51334 261 1398 274.660606 1398 310 1451.53784 292.181818"></polygon>
                <polygon id="Path-2" fill="#385BC8" points="1340.51334 235 1313 248.660606 1313 284 1366.53784 266.181818"></polygon>
                <polygon id="Path-2" fill="#385BC8" points="1286.51334 203 1259 216.660606 1259 252 1312.53784 234.181818"></polygon>
                <polygon id="Path-2" fill="#385BC8" points="1403.51334 211 1376 224.660606 1376 260 1429.53784 242.181818"></polygon>
                <polygon id="Path-2" fill="#385BC8" points="1350.51334 170 1323 183.660606 1323 219 1376.53784 201.181818"></polygon>
                <polygon id="Path-2" fill="#385BC8" points="1412.51334 121 1385 134.660606 1385 170 1438.53784 152.181818"></polygon>
            </g>
        </g>
    </g>
</svg>