<?xml version="1.0" standalone="no"?>
<!DOCTYPE svg PUBLIC "-//W3C//DTD SVG 20010904//EN"
 "http://www.w3.org/TR/2001/REC-SVG-20010904/DTD/svg10.dtd">
<svg version="1.0" xmlns="http://www.w3.org/2000/svg"
 width="300.000000pt" height="267.000000pt" viewBox="0 0 300.000000 267.000000"
 preserveAspectRatio="xMidYMid meet">
<metadata>
Created by potrace 1.10, written by Peter Selinger 2001-2011
</metadata>
<g xmlns="http://www.w3.org/2000/svg" transform="translate(0.000000,267.000000) scale(0.050000,-0.050000)" fill="#000000" stroke="none">
<path d="M4882 5333 c22 -20 1118 -33 1118 -14 0 14 -188 21 -563 21 -310 0 -560 -3 -555 -7z"/>
<path d="M2979 5081 c-102 -19 -213 -115 -265 -227 -35 -75 -52 -94 -82 -86 -135 35 -343 -177 -302 -308 15 -46 176 -203 229 -223 82 -31 15 -746 -103 -1107 -42 -130 -125 -232 -236 -290 -123 -65 -287 -241 -318 -340 -55 -174 -124 -264 -192 -251 -33 7 -103 17 -155 24 -79 10 -92 17 -72 40 34 41 -9 111 -104 169 -94 58 -94 52 -17 176 70 112 67 146 -16 186 -41 19 -59 45 -66 95 -13 85 -53 101 -80 31 -33 -86 -24 -144 30 -183 l50 -37 -51 -85 c-73 -121 -127 -117 -122 9 3 93 2 94 -74 112 l-78 19 10 88 c17 145 -35 131 -87 -23 -37 -113 -48 -121 -110 -72 -49 38 -58 40 -73 12 -30 -53 -9 -119 40 -126 45 -7 59 -53 30 -94 -31 -43 -222 -107 -385 -130 -419 -58 -370 -240 64 -240 l107 0 34 -271 c23 -179 52 -316 87 -402 28 -71 49 -133 45 -136 -15 -13 -230 42 -291 75 -70 37 -108 15 -64 -38 56 -68 229 -105 324 -70 29 11 65 2 113 -26 130 -77 565 -54 592 30 10 34 24 40 71 31 32 -7 58 -3 58 7 0 11 40 20 89 20 105 0 164 57 128 125 -16 31 -12 45 21 68 67 47 52 98 -38 135 -111 44 -100 56 42 49 215 -12 184 157 -36 193 -129 22 -138 28 -91 61 23 16 79 32 123 35 95 6 143 41 106 78 -18 18 -17 31 4 55 35 38 152 268 152 297 0 33 193 194 292 243 99 50 225 49 344 -1 71 -30 129 -10 140 47 8 41 -151 155 -216 155 -66 0 -61 117 8 186 64 65 137 481 138 790 l0 237 88 47 c193 102 227 333 65 446 -93 65 55 274 194 274 54 0 84 -16 137 -74 105 -115 214 -57 137 73 -60 102 -212 152 -368 122z m-190 -500 c56 -108 -5 -241 -112 -241 -46 0 -46 2 5 88 22 39 39 96 37 126 -7 108 23 119 70 27z m-1799 -1923 c0 -35 -13 -50 -45 -54 -51 -8 -52 -6 -25 66 24 64 70 56 70 -12z m-26 -203 c4 -30 20 -45 46 -45 26 0 42 15 46 45 9 58 75 60 90 2 9 -33 23 -40 62 -32 70 13 133 -53 91 -94 -42 -40 -176 -73 -192 -47 -8 13 -19 10 -30 -10 -27 -48 -270 -44 -353 7 -54 32 -96 139 -56 139 5 0 23 5 40 12 20 8 32 1 32 -17 0 -43 49 -78 89 -63 22 9 31 27 24 53 -16 59 6 95 58 95 33 0 48 -13 53 -45z m-415 -211 c-8 -11 -334 40 -387 60 -84 31 -10 71 178 96 93 13 174 28 180 33 10 11 39 -177 29 -189z m694 -269 c-5 -150 3 -245 30 -352 46 -189 35 -201 -201 -196 -246 5 -282 54 -343 469 -41 275 -41 271 52 243 89 -26 286 -19 378 14 39 14 76 26 81 26 6 1 7 -91 3 -204z m324 191 c8 -7 -28 -56 -80 -109 -119 -121 -101 -164 61 -147 l102 11 -115 -55 c-129 -62 -155 -101 -99 -146 28 -24 33 -39 17 -64 -24 -38 13 -96 61 -96 15 0 23 -9 16 -20 -72 -117 -174 55 -178 298 -1 95 -10 178 -20 185 -34 25 8 79 93 117 92 42 121 48 142 26z"/>

<path d="M3372 4803 c-6 -10 -46 -23 -88 -30 -229 -37 -291 -467 -75 -521 l49 -12 -40 -69 c-90 -153 0 -229 102 -87 57 79 258 236 303 236 106 0 -20 -173 -205 -281 -150 -87 -177 -122 -138 -169 38 -45 84 -37 211 40 118 71 233 92 261 47 53 -86 -442 -252 -503 -169 -16 23 -22 13 -23 -45 -1 -40 5 -82 13 -93 9 -11 21 -127 28 -257 6 -130 20 -247 30 -260 10 -13 28 -54 39 -93 11 -38 25 -84 32 -101 11 -25 -2 -29 -69 -22 -58 5 -92 -3 -120 -28 -77 -69 -51 -89 120 -89 87 0 164 -9 171 -20 7 -11 34 -20 60 -20 25 0 51 -11 57 -25 8 -20 10 -20 11 0 7 97 77 0 80 -110 0 -25 3 -101 5 -170 2 -69 -3 -150 -10 -180 -10 -40 -6 -55 14 -55 33 0 53 85 53 228 l0 102 100 -200 99 -200 -11 130 c-7 72 -20 139 -30 149 -10 10 -18 32 -18 47 0 36 -63 168 -74 156 -5 -5 2 -29 16 -55 13 -25 31 -73 40 -107 8 -33 21 -82 28 -110 8 -27 -19 15 -58 94 -91 186 -107 245 -63 238 72 -10 211 -233 211 -338 0 -28 9 -57 20 -64 35 -22 0 151 -53 264 -53 113 -156 214 -200 198 -15 -6 -27 -2 -27 9 0 10 -19 19 -43 19 -41 0 -40 3 12 45 103 83 326 305 334 333 16 49 91 -10 105 -82 18 -96 18 -101 2 -161 -11 -43 -8 -55 18 -55 25 0 30 12 21 48 -11 44 -7 48 59 46 82 -2 88 -13 32 -64 -22 -20 -40 -51 -40 -69 0 -18 -17 -87 -37 -152 -21 -66 -58 -185 -82 -265 -24 -81 -80 -222 -123 -313 -83 -176 -93 -222 -53 -238 14 -5 7 -11 -15 -12 -22 -1 -112 -70 -200 -154 -461 -439 -1248 -469 -1560 -61 -40 52 -84 94 -98 94 -46 0 -77 -53 -55 -94 17 -33 12 -36 -57 -29 -83 7 -160 -23 -160 -65 0 -28 122 -52 263 -52 42 0 77 -7 77 -15 0 -8 50 -51 111 -95 60 -44 101 -83 90 -86 -13 -5 -16 -39 -8 -85 11 -70 7 -80 -37 -97 -96 -36 -176 -122 -176 -188 0 -58 -2 -60 -29 -23 -26 34 -30 35 -30 5 -1 -51 115 -100 204 -85 59 10 78 5 87 -20 28 -73 116 -93 173 -40 29 27 65 44 80 38 79 -30 222 89 207 174 -19 112 -66 152 -134 116 -55 -29 -71 -12 -62 67 l8 68 223 0 c154 -1 257 9 332 32 59 19 110 34 112 34 29 0 -29 -100 -72 -124 -143 -83 -142 -276 1 -276 38 0 60 -10 60 -28 0 -92 95 -84 231 19 51 40 113 69 144 69 69 1 89 15 120 86 54 121 -8 260 -112 253 -90 -6 -103 0 -103 43 0 24 35 75 80 116 44 40 80 80 80 89 0 9 38 57 85 107 47 49 120 127 162 172 125 134 274 474 342 781 l35 157 58 -56 c32 -30 58 -64 58 -75 0 -11 20 -42 44 -67 34 -37 45 -74 47 -164 2 -64 11 -129 21 -144 9 -16 18 -74 19 -131 1 -82 14 -119 60 -180 48 -63 58 -93 52 -161 -4 -52 6 -110 27 -150 18 -36 51 -113 73 -170 63 -167 295 -261 357 -145 25 45 -14 70 -119 76 -113 7 -197 107 -130 156 54 39 63 34 77 -41 7 -38 25 -73 40 -78 20 -8 18 13 -10 86 -32 86 -33 99 -6 121 16 14 27 44 24 67 -9 60 -115 68 -165 13 -52 -57 -71 -51 -71 20 0 73 32 139 66 139 36 0 154 112 154 146 0 87 -98 87 -201 0 -74 -62 -103 -44 -107 67 -2 66 5 77 48 86 69 15 110 43 137 95 51 96 -43 139 -164 76 -76 -40 -73 -41 -73 49 0 60 9 81 38 90 158 50 206 282 51 243 l-54 -14 52 62 c61 72 62 77 24 126 -70 93 -246 42 -296 -86 -11 -27 -15 -27 -34 0 -31 41 -12 175 31 222 25 28 29 45 13 61 -15 15 -15 39 0 82 17 50 15 65 -10 84 -43 31 -48 72 -18 127 33 60 5 96 -83 110 -116 18 -264 64 -264 82 0 39 122 29 200 -16 161 -93 194 -18 110 246 -101 315 -176 451 -255 458 -63 6 -64 7 -32 56 41 62 28 203 -25 274 -139 185 -481 132 -418 -65 17 -55 45 -52 104 11 38 41 59 49 102 38 166 -41 166 -212 1 -360 -55 -48 -61 -61 -32 -66 19 -4 35 -15 35 -24 0 -10 27 -47 60 -84 56 -60 140 -243 140 -302 0 -13 -20 -33 -45 -44 -74 -33 -111 -119 -70 -164 31 -35 31 -39 -8 -63 -37 -24 -41 -40 -32 -144 l11 -118 -133 -121 c-73 -67 -157 -144 -186 -172 l-53 -51 -32 46 c-17 25 -46 91 -64 146 -18 56 -42 112 -52 124 -10 13 -15 126 -11 250 l7 226 99 28 c54 15 143 45 197 66 54 20 103 33 108 27 17 -16 103 136 103 184 1 47 -79 120 -150 138 l-45 11 49 74 c72 106 23 263 -82 263 -27 0 -71 126 -71 205 0 95 -206 226 -248 158z m-72 -222 c0 -54 108 -127 165 -111 37 10 32 0 -25 -50 -145 -128 -271 -37 -201 146 23 63 61 72 61 15z m901 -610 c33 -88 69 -182 80 -207 37 -89 26 -109 -41 -74 -45 23 -60 45 -60 87 0 146 -89 323 -162 323 -53 0 -66 38 -28 80 58 65 137 -14 211 -209z m171 -653 c34 -28 -10 -144 -83 -218 -46 -46 -49 -46 -49 -9 0 21 18 51 40 64 88 56 22 170 -74 127 -66 -30 -106 0 -65 49 30 37 182 28 231 -13z m248 -678 c-22 -41 -80 -56 -80 -21 0 19 57 59 86 60 8 1 6 -17 -6 -39z m-1171 -1368 c-15 -100 25 -140 127 -128 48 5 55 -1 60 -59 8 -81 -28 -86 -88 -11 -57 72 -118 35 -97 -59 12 -56 -48 -155 -94 -155 -31 0 -17 54 23 90 42 38 53 100 22 119 -10 6 -22 45 -27 86 -5 41 -15 90 -23 109 -13 28 54 89 104 95 4 1 0 -39 -7 -87z m-913 -79 c-11 -22 -16 -83 -9 -136 6 -53 2 -101 -8 -108 -10 -6 -19 -32 -19 -58 0 -71 -54 -107 -89 -59 -24 32 -22 45 12 92 22 32 33 66 24 80 -8 14 -16 61 -17 105 -1 45 -9 100 -17 123 -13 41 -11 42 65 22 71 -19 77 -26 58 -61z m748 -193 c-36 -64 -98 -80 -117 -30 -17 45 30 90 95 90 l56 0 -34 -60z m-944 -17 c0 -25 -94 -123 -118 -123 -43 0 -44 46 -1 91 44 47 119 67 119 32z m360 -40 c0 -89 -92 -110 -104 -24 -7 48 -1 60 33 66 55 9 71 0 71 -42z"/>









</g>
</svg>
