<?xml version="1.0" standalone="no"?>
<!DOCTYPE svg PUBLIC "-//W3C//DTD SVG 20010904//EN"
 "http://www.w3.org/TR/2001/REC-SVG-20010904/DTD/svg10.dtd">
<svg version="1.0" xmlns="http://www.w3.org/2000/svg"
 width="900.000000pt" height="630.000000pt" viewBox="0 0 900.000000 630.000000"
 preserveAspectRatio="xMidYMid meet">
<metadata>
Created by potrace 1.10, written by Peter Selinger 2001-2011
</metadata>
<g transform="translate(0.000000,630.000000) scale(0.100000,-0.100000)"
fill="#000000" stroke="none">
<path d="M2570 6009 c-140 -19 -290 -31 -405 -33 -153 -4 -294 -16 -314 -27
-25 -14 -134 -49 -151 -49 -27 0 -93 -36 -122 -67 l-27 -28 11 -334 c8 -239 8
-350 0 -392 -7 -40 -7 -70 -1 -94 6 -20 8 -42 6 -49 -3 -8 -36 -16 -86 -20
-45 -3 -96 -13 -114 -21 -17 -7 -39 -16 -47 -20 -83 -34 -220 -164 -220 -209
0 -8 -4 -17 -9 -20 -28 -18 -81 -275 -81 -397 0 -91 -13 -119 -55 -119 -24 0
-101 -64 -131 -110 -21 -32 -25 -51 -27 -121 -2 -75 1 -88 23 -119 52 -73 97
-106 167 -124 l48 -12 6 -225 c4 -123 10 -377 14 -565 l8 -340 -58 -70 c-62
-73 -171 -189 -243 -257 -23 -22 -52 -60 -64 -85 -13 -24 -35 -50 -50 -58 -31
-16 -58 -71 -58 -118 0 -18 -4 -36 -9 -41 -20 -23 -81 -146 -81 -165 0 -12 -5
-31 -12 -43 -7 -12 -15 -49 -19 -82 -3 -33 -12 -76 -19 -95 -16 -43 -40 -100
-51 -120 -5 -8 -20 -37 -34 -65 -14 -27 -35 -63 -45 -80 -11 -16 -23 -37 -27
-45 -21 -47 -108 -150 -126 -150 -7 -1 -23 -10 -37 -21 l-25 -21 24 -19 c34
-28 66 -33 114 -20 23 7 49 13 57 14 21 3 25 -37 5 -53 -20 -17 -19 -56 1 -64
19 -7 80 2 107 16 26 13 34 -18 13 -52 -24 -42 -21 -77 8 -84 26 -6 84 2 101
16 5 4 24 19 41 33 39 30 48 31 73 4 19 -20 20 -20 125 -5 59 9 141 16 184 16
l77 0 40 -70 c22 -38 43 -70 47 -70 3 0 11 -14 17 -30 8 -25 7 -32 -5 -37 -8
-3 -23 2 -34 12 -23 20 -95 24 -113 6 -7 -7 -12 -32 -12 -56 0 -35 6 -50 30
-75 57 -60 103 -72 169 -45 l36 15 22 -35 c13 -19 37 -42 55 -52 30 -16 34
-16 75 2 46 20 98 62 98 79 1 6 9 21 19 34 24 28 87 31 106 5 15 -21 73 -23
109 -4 23 13 27 11 49 -15 20 -23 32 -28 66 -27 22 1 52 10 65 20 30 22 59 81
56 114 -3 39 -1 49 13 49 19 0 53 40 60 70 10 40 -3 68 -40 91 -33 21 -69 22
-115 4 -13 -5 -20 0 -28 19 -12 31 -4 56 19 57 9 0 36 11 61 24 25 13 55 29
68 34 12 6 56 44 97 85 54 54 77 85 85 114 6 23 15 44 20 47 6 3 10 29 10 57
0 59 24 106 60 115 29 7 46 26 61 65 6 16 15 28 20 28 5 0 9 11 9 25 0 34 31
95 49 95 8 0 23 -8 34 -18 17 -15 51 -17 386 -17 201 0 447 -6 546 -12 99 -7
378 -15 620 -17 242 -3 535 -11 650 -16 123 -7 493 -10 895 -8 l685 3 3 -25
c6 -52 55 -158 103 -225 55 -75 139 -147 228 -196 24 -14 47 -31 51 -39 36
-77 52 -101 94 -148 28 -30 59 -58 70 -63 12 -5 44 -22 71 -38 l50 -30 -4 -53
c-1 -29 -5 -55 -7 -57 -2 -2 -21 1 -42 8 -32 11 -44 10 -80 -4 -81 -33 -102
-93 -57 -164 30 -49 35 -52 99 -60 l51 -6 3 -61 c4 -84 29 -109 112 -109 53 0
62 3 93 33 19 19 41 54 49 80 11 34 23 51 44 61 45 23 63 51 64 102 0 49 -25
83 -65 91 -16 3 -21 13 -25 58 -4 47 -8 55 -27 58 -28 4 -57 -54 -57 -117 -1
-49 -3 -47 61 -50 23 -1 37 -28 27 -54 -9 -25 -128 -20 -153 7 -24 26 -26 45
-16 121 10 82 19 95 61 95 22 0 37 6 40 15 9 23 48 18 101 -13 63 -38 177 -56
252 -42 61 11 74 5 69 -31 -2 -19 -10 -25 -38 -27 -54 -4 -87 -21 -115 -57
-38 -50 -34 -97 10 -132 19 -15 45 -30 57 -33 18 -5 24 -15 29 -45 7 -54 27
-82 69 -99 30 -12 40 -12 70 0 36 15 91 67 103 96 3 9 30 32 59 51 31 20 61
49 72 71 18 35 18 37 1 75 -10 22 -31 50 -47 62 -26 20 -29 28 -27 72 3 46 5
51 53 87 28 20 57 44 65 53 7 10 20 17 27 17 8 0 22 9 31 20 19 22 43 27 43 8
0 -7 -5 -46 -10 -86 -13 -98 -3 -122 48 -122 38 0 72 23 72 48 0 7 4 12 8 12
10 0 130 162 155 209 11 20 32 52 47 71 32 42 115 212 125 257 3 18 11 35 16
38 5 4 9 24 9 46 0 22 7 69 16 104 17 67 17 68 -16 365 -9 78 -23 162 -42 240
-6 25 -14 65 -19 90 -10 62 -29 129 -45 168 -8 18 -14 38 -14 45 0 21 -38 89
-72 129 -26 31 -38 38 -69 38 -24 0 -39 -5 -43 -16 -11 -29 -6 -40 28 -56 26
-13 41 -32 65 -82 17 -36 31 -76 31 -89 1 -12 7 -33 15 -47 8 -14 14 -40 15
-58 0 -18 7 -49 15 -69 8 -19 15 -47 15 -62 0 -14 7 -48 15 -75 8 -27 15 -68
15 -90 0 -23 7 -73 15 -111 30 -145 16 -392 -30 -500 -7 -16 -20 -50 -30 -75
-24 -61 -52 -119 -76 -155 -10 -16 -22 -37 -26 -45 -4 -8 -31 -51 -61 -95 -57
-84 -100 -135 -114 -135 -12 0 -10 64 2 76 6 6 15 33 20 60 5 27 16 74 25 104
20 72 17 104 -12 108 -18 3 -26 -5 -42 -40 -11 -24 -22 -52 -25 -64 -4 -11
-17 -31 -31 -44 -23 -21 -25 -22 -31 -5 -4 10 -2 26 4 36 7 10 12 26 12 34 0
9 8 35 19 58 27 62 33 103 16 117 -8 7 -21 10 -29 7 -8 -3 -17 -3 -20 0 -6 6
18 58 38 83 7 8 18 35 25 59 10 35 10 49 0 68 -7 12 -17 23 -22 23 -13 0 -46
-43 -47 -61 0 -15 -28 -71 -86 -174 -13 -22 -33 -60 -46 -85 -12 -25 -27 -52
-34 -60 -20 -26 -24 -66 -9 -86 19 -26 40 -12 85 55 36 53 63 63 68 25 2 -12
-4 -28 -12 -36 -8 -8 -18 -33 -22 -54 -3 -21 -10 -46 -15 -56 -11 -20 -126
-98 -146 -98 -8 0 -26 -6 -41 -13 -58 -29 -185 -49 -272 -44 -88 5 -167 23
-191 44 -29 23 -64 25 -91 4 -17 -14 -41 -21 -68 -21 -37 0 -58 7 -120 41 -8
5 -34 18 -58 31 -51 26 -144 116 -136 130 4 6 20 7 38 3 100 -21 252 -11 303
21 26 16 86 18 113 4 16 -9 29 -2 77 41 156 140 261 242 291 281 18 24 48 54
67 67 41 28 44 49 12 79 -29 28 -55 28 -117 1 -51 -22 -80 -20 -80 4 0 15 4
18 103 87 47 34 57 46 57 71 0 21 -6 32 -22 38 -26 10 -158 -5 -172 -20 -12
-11 -76 -12 -76 -1 0 12 54 62 66 62 6 0 21 11 33 24 13 13 34 27 47 30 28 7
47 39 39 65 -8 25 -58 45 -82 33 -10 -5 -34 -12 -53 -16 -19 -3 -50 -14 -67
-23 -30 -16 -34 -16 -49 -1 -23 23 -10 54 29 64 l32 10 3 76 c2 52 -2 88 -13
114 -8 20 -15 63 -15 94 0 56 -1 59 -29 65 -41 9 -80 -4 -134 -44 l-48 -36 2
-80 c2 -50 -2 -89 -10 -104 -12 -22 -11 -65 5 -153 l6 -38 -59 0 c-37 0 -67
-6 -81 -16 -12 -8 -37 -20 -54 -25 -40 -11 -52 5 -32 43 8 15 21 41 29 57 8
16 15 36 15 44 0 9 8 30 17 49 31 61 33 68 33 88 0 25 -32 42 -65 34 -19 -5
-25 -13 -25 -35 0 -16 -5 -29 -10 -29 -6 0 -8 15 -4 40 5 32 3 41 -11 46 -31
12 -64 -43 -85 -144 -5 -23 -14 -51 -20 -61 -15 -30 -12 -68 10 -109 50 -93
114 -123 193 -88 30 13 140 37 235 51 23 4 56 14 73 22 25 12 36 13 56 4 25
-11 25 -12 8 -31 -10 -11 -58 -44 -107 -73 -75 -44 -88 -56 -86 -75 2 -13 15
-31 30 -40 29 -17 33 -16 179 30 66 21 99 20 98 -4 0 -7 -45 -49 -100 -92 -85
-68 -99 -84 -97 -105 2 -15 14 -31 30 -40 28 -16 33 -14 180 60 23 12 48 11
48 0 0 -26 -22 -50 -139 -153 -69 -62 -130 -118 -134 -125 -11 -18 -56 -16
-63 2 -9 23 -35 18 -69 -14 -40 -38 -130 -61 -237 -61 -83 0 -94 3 -168 41
-70 37 -164 103 -210 149 -53 53 -130 186 -130 225 0 9 -7 29 -16 46 -13 25
-14 67 -12 262 5 269 16 342 77 465 22 46 78 102 101 102 10 0 31 12 47 28 34
32 215 122 248 122 8 0 29 6 47 14 18 8 44 17 58 20 34 7 110 58 110 73 0 16
-82 18 -111 3 -10 -6 -38 -14 -61 -19 -44 -9 -91 -24 -143 -46 -16 -7 -50 -20
-75 -30 -25 -9 -52 -21 -60 -26 -8 -5 -22 -12 -30 -16 -8 -3 -31 -19 -51 -35
-20 -15 -41 -28 -46 -28 -18 0 -83 -73 -104 -116 -11 -24 -25 -46 -30 -50 -5
-3 -9 -15 -9 -27 0 -12 -6 -42 -14 -67 -30 -94 -48 -257 -44 -403 l3 -142
-305 -6 c-613 -12 -1724 2 -2610 32 -162 5 -407 7 -545 4 l-250 -7 -28 24 -29
23 21 27 c12 14 21 29 21 32 0 4 5 12 10 19 21 24 141 183 183 241 23 32 63
81 90 109 26 28 47 56 47 62 0 6 27 40 61 76 117 124 174 210 185 277 12 74
-38 97 -91 42 -16 -17 -42 -37 -57 -45 -28 -13 -28 -13 -21 13 6 26 47 90 104
163 l29 36 -25 27 c-30 32 -65 27 -109 -16 -17 -15 -34 -28 -39 -28 -5 0 -32
-18 -59 -40 -62 -49 -90 -53 -79 -12 5 16 16 42 25 60 9 17 16 42 16 56 0 14
4 27 9 31 5 3 13 20 17 38 3 17 15 43 25 56 11 13 19 34 19 46 0 24 -37 55
-65 55 -21 0 -65 -30 -65 -44 0 -7 -17 -28 -37 -47 -64 -61 -255 -207 -298
-229 -11 -6 -33 -19 -50 -30 -117 -76 -266 -121 -333 -99 -20 6 -43 13 -49 15
-9 2 -13 25 -13 66 0 35 -7 104 -14 153 -19 125 -14 132 96 137 76 4 128 16
168 39 8 5 21 12 29 16 20 9 81 72 81 83 0 6 4 10 8 10 19 0 52 92 52 144 0
63 -19 105 -69 152 -32 30 -49 37 -128 51 -60 10 -57 26 10 70 79 52 149 126
170 180 16 40 15 42 -6 75 -49 72 -177 98 -292 59 -92 -31 -112 -13 -51 47 19
19 41 57 52 88 18 53 18 57 1 85 -9 17 -17 36 -17 44 0 16 -78 88 -117 108
l-29 15 -3 204 c-1 130 -8 225 -17 263 -7 33 -14 76 -14 96 0 73 -53 154 -122
189 -42 20 -51 63 -42 188 5 59 8 127 7 152 -1 25 -4 155 -6 290 -5 274 -1
305 50 315 53 11 138 38 149 46 6 5 57 16 114 24 81 13 105 13 117 4 20 -17
265 -13 363 6 41 8 140 15 220 16 366 4 1808 -5 1920 -12 155 -9 669 -27 850
-30 74 -2 353 1 620 5 369 6 512 5 600 -4 163 -18 683 -25 793 -10 58 8 92 9
100 2 7 -5 83 -12 171 -14 l158 -3 39 -44 c22 -24 42 -56 45 -70 2 -14 11 -49
19 -77 8 -28 15 -65 15 -82 0 -17 5 -43 11 -59 7 -18 12 -141 14 -344 l3 -316
-43 -36 c-82 -69 -163 -214 -205 -367 -6 -25 -15 -83 -19 -130 -8 -83 -22
-130 -40 -130 -21 0 -31 34 -38 119 -3 50 -11 95 -17 100 -6 5 -21 5 -35 0
-23 -9 -23 -10 -19 -130 l4 -122 -46 -47 c-59 -61 -81 -136 -59 -202 17 -53
104 -141 153 -158 41 -13 44 -28 21 -83 -8 -20 -15 -50 -15 -66 0 -16 -3 -36
-6 -45 -8 -20 -51 -21 -97 -1 -79 33 -221 6 -281 -53 -46 -45 -63 -100 -46
-151 20 -60 70 -104 127 -111 61 -7 64 -22 18 -82 -49 -63 -75 -116 -75 -154
0 -68 83 -127 173 -122 47 3 52 1 50 -17 -4 -37 -15 -80 -29 -112 -8 -17 -14
-41 -14 -52 0 -12 -6 -37 -14 -56 l-14 -34 -99 -4 c-188 -9 -361 -68 -266 -92
34 -8 144 3 207 21 27 8 68 14 91 14 25 0 52 7 66 18 13 10 38 24 54 30 21 9
35 25 46 55 26 67 41 128 48 191 l6 60 70 34 c39 19 77 38 85 43 8 5 22 12 30
16 14 7 48 34 76 61 27 26 10 72 -26 72 -9 0 -35 -14 -59 -32 -120 -88 -295
-152 -366 -134 -77 19 39 203 154 242 40 13 52 45 28 78 -12 16 -28 19 -118
20 -135 2 -179 19 -179 71 0 35 14 56 60 88 33 23 197 24 241 1 17 -8 44 -14
61 -12 27 3 32 9 55 73 13 39 28 93 33 122 9 57 16 73 32 73 22 0 83 35 112
65 53 54 66 86 66 163 0 64 2 70 23 76 30 7 87 64 87 86 0 24 -24 42 -46 33
-11 -3 -32 -19 -48 -35 -30 -28 -60 -36 -70 -19 -3 5 21 35 54 67 52 51 60 64
60 97 0 34 -2 37 -28 37 -22 0 -36 -11 -65 -48 -56 -74 -71 -86 -96 -72 -23
12 -24 9 37 104 40 63 41 84 2 99 -33 13 -37 31 -16 74 8 15 29 63 47 107 56
135 172 269 274 315 143 66 284 90 329 56 49 -37 56 -63 56 -201 0 -91 -5
-144 -15 -174 -8 -23 -15 -62 -15 -86 0 -23 -5 -55 -11 -71 -6 -15 -15 -50
-19 -78 -10 -57 -25 -119 -46 -185 -8 -25 -14 -57 -14 -71 0 -15 -12 -37 -30
-54 -24 -23 -30 -37 -30 -70 0 -44 -13 -65 -42 -65 -23 0 -25 55 -3 96 19 38
19 47 -4 68 -31 28 -64 0 -86 -74 -16 -54 -17 -61 -2 -83 15 -23 14 -26 -23
-62 -48 -47 -80 -128 -80 -203 0 -47 5 -64 33 -104 17 -27 40 -51 50 -54 21
-7 22 -22 1 -45 -9 -10 -20 -35 -24 -56 -9 -45 -27 -120 -46 -188 -20 -73 -47
-203 -79 -375 -23 -124 -37 -311 -24 -326 6 -8 15 -14 20 -14 16 0 39 32 39
56 0 14 6 37 14 52 9 17 15 68 17 137 2 61 8 121 14 135 6 14 19 61 29 105 24
111 46 193 62 240 8 23 14 50 14 62 0 11 7 37 15 56 8 20 15 50 15 67 0 33 0
33 87 30 60 -2 92 14 160 75 53 47 76 94 77 155 1 41 4 46 36 62 53 26 89 76
90 121 0 35 -2 37 -30 37 -16 0 -30 -3 -30 -7 0 -5 -16 -26 -35 -47 -33 -37
-36 -39 -60 -26 -35 19 -32 34 19 80 45 42 63 83 51 120 -13 42 -51 20 -104
-60 -13 -20 -34 -41 -48 -47 -21 -10 -25 -9 -35 12 -9 19 -7 30 7 52 10 15 22
44 26 63 4 19 12 49 17 65 18 53 41 138 58 215 9 41 22 98 29 125 25 92 37
189 42 320 4 115 2 135 -16 175 -40 91 -118 134 -232 128 -102 -5 -246 -48
-265 -79 -3 -5 -16 -9 -29 -9 l-23 0 -1 326 c-1 179 -5 334 -11 343 -5 10 -12
42 -16 72 -7 49 -21 89 -59 160 -21 38 -44 53 -108 73 -52 16 -118 18 -615 20
-416 3 -570 7 -607 17 -39 10 -206 12 -770 10 -443 -1 -781 2 -880 9 -88 6
-191 13 -230 15 -72 4 -542 18 -560 17 -5 -1 -264 -3 -575 -5 -433 -4 -597 -1
-700 9 -147 15 -259 16 -360 3z m-955 -1183 c50 -28 85 -87 85 -143 0 -23 5
-54 12 -70 6 -16 14 -118 18 -233 4 -113 9 -211 11 -219 3 -10 -9 -18 -33 -25
-42 -12 -82 -53 -113 -111 -16 -31 -20 -58 -20 -134 0 -91 2 -98 29 -134 16
-21 49 -47 73 -58 23 -11 43 -24 43 -29 0 -5 -15 -16 -32 -23 -18 -8 -57 -33
-86 -56 -44 -35 -53 -47 -50 -69 2 -22 9 -28 35 -30 20 -2 38 3 50 15 57 59
177 126 273 153 25 7 96 15 157 17 124 5 133 1 114 -50 -12 -30 -106 -124
-133 -133 -10 -3 -18 -9 -18 -14 0 -4 -8 -10 -17 -14 -10 -3 -31 -15 -48 -26
-16 -11 -36 -22 -42 -25 -7 -3 -19 -7 -25 -10 -7 -3 -20 -9 -28 -14 -34 -20
-92 -41 -114 -41 -14 0 -27 -9 -34 -24 -25 -55 54 -89 115 -48 22 14 50 17
148 17 106 0 124 -3 155 -22 38 -23 70 -69 70 -100 0 -18 -21 -64 -50 -111
-21 -33 -110 -97 -145 -106 -136 -32 -224 -33 -333 -2 -70 19 -94 12 -85 -27
10 -38 43 -57 104 -57 63 0 71 -8 62 -62 -3 -19 2 -72 11 -119 9 -47 16 -106
16 -131 0 -50 25 -92 63 -104 12 -4 27 -14 34 -23 17 -24 195 -22 254 3 68 29
121 56 154 77 17 10 36 22 44 26 50 24 167 113 244 186 56 53 86 50 62 -7 -7
-17 -21 -51 -30 -76 -24 -64 -47 -111 -68 -141 -10 -14 -15 -32 -12 -41 9 -23
54 -44 70 -33 7 6 44 31 82 56 38 26 74 54 82 63 7 9 24 16 36 16 19 0 21 -4
17 -26 -2 -14 -11 -28 -18 -31 -8 -3 -14 -9 -14 -14 0 -9 -36 -65 -50 -79 -3
-3 -18 -24 -34 -47 -27 -41 -28 -44 -12 -68 24 -37 51 -31 106 25 27 28 52 50
56 50 4 0 13 8 20 18 12 16 13 16 19 0 13 -34 -63 -124 -179 -212 -29 -22 -59
-57 -74 -84 -38 -75 -87 -149 -117 -177 -16 -15 -75 -92 -75 -98 0 -3 -19 -34
-43 -69 -39 -58 -107 -185 -107 -201 0 -3 -11 -18 -25 -33 -21 -23 -25 -24
-31 -10 -4 10 -2 28 5 42 46 102 -43 409 -170 580 -34 47 -44 54 -73 54 -32 0
-46 -13 -46 -43 0 -7 15 -28 33 -48 38 -43 49 -60 77 -119 48 -99 69 -157 79
-215 4 -22 13 -50 19 -62 26 -48 13 -193 -30 -318 -15 -46 -28 -95 -40 -150
-6 -27 -17 -57 -24 -66 -8 -8 -14 -22 -14 -30 0 -21 -128 -140 -173 -162 -114
-55 -170 -68 -327 -74 -122 -5 -164 -16 -197 -48 -10 -11 -23 -11 -70 1 -32 7
-82 13 -110 14 -29 0 -53 3 -53 7 0 12 43 53 56 53 7 0 19 6 26 13 18 16 48
35 73 46 28 12 182 149 225 199 73 85 96 115 115 150 11 20 26 43 33 50 6 7
12 19 12 26 0 7 13 26 30 42 61 60 28 109 -71 103 -48 -4 -54 -2 -57 17 -2 11
6 28 18 39 13 12 20 31 20 55 0 49 -32 66 -85 44 -19 -8 -35 -19 -35 -24 0
-13 -27 -13 -35 0 -4 6 3 29 14 51 29 55 28 107 -2 118 -13 5 -36 7 -53 4 -38
-6 -212 -93 -218 -110 -3 -7 5 -24 17 -39 26 -30 39 -26 121 31 46 32 76 36
76 11 0 -12 -66 -144 -82 -163 -13 -16 -1 -51 23 -63 23 -13 43 -4 83 39 31
32 50 39 62 20 4 -6 -16 -32 -45 -60 l-52 -49 25 -25 c31 -31 41 -31 91 0 41
25 79 32 89 16 6 -10 -59 -114 -75 -119 -5 -2 -9 -7 -9 -12 0 -45 -328 -337
-440 -392 -148 -72 -318 -57 -412 36 -27 26 -48 53 -48 61 0 7 -6 26 -14 42
-22 43 -46 125 -46 154 0 14 -7 46 -16 72 -28 82 -13 228 32 320 8 16 14 37
14 47 0 11 6 34 14 52 8 18 22 53 32 78 21 52 65 111 149 195 68 69 106 95
134 95 11 0 27 10 35 22 15 21 14 24 -4 42 -17 18 -22 18 -60 6 -22 -7 -60
-33 -84 -57 -41 -41 -66 -54 -66 -34 0 4 16 23 37 42 54 50 291 288 341 342
l44 47 -11 48 c-7 27 -11 132 -10 247 1 309 -13 838 -23 857 -7 14 2 29 41 69
69 71 91 119 91 201 0 46 -4 69 -15 78 -8 7 -15 18 -15 25 0 14 -66 77 -99 95
-19 10 -21 19 -21 128 0 71 6 138 15 172 8 30 15 67 15 82 0 68 92 230 149
262 25 14 96 49 141 69 54 24 147 21 195 -7z m6157 -687 c52 -14 78 -64 78
-153 0 -77 -18 -114 -74 -150 -43 -28 -70 -32 -110 -16 -25 9 -38 50 -16 50 5
0 18 31 30 70 19 65 20 72 5 107 -9 20 -23 45 -32 55 -15 17 -15 20 3 39 19
22 31 21 116 -2z m-6680 -85 c65 -59 86 -150 50 -217 -50 -92 -91 -124 -145
-113 -56 11 -62 25 -27 61 54 55 65 190 19 231 -19 18 -25 45 -11 58 13 14 92
-1 114 -20z m698 -6 c0 -12 -5 -36 -12 -55 -14 -39 3 -125 32 -158 34 -40 32
-53 -11 -76 l-40 -20 -42 20 c-33 16 -46 30 -61 67 -20 49 -21 43 11 174 10
43 42 70 85 70 32 0 38 -3 38 -22z m5818 -60 c-4 -29 -38 -38 -38 -10 0 22 8
32 27 32 9 0 13 -8 11 -22z m741 -172 c14 -17 55 -26 72 -15 36 22 89 -66 89
-148 0 -58 -32 -107 -63 -97 -12 4 -24 10 -27 13 -3 4 -24 17 -48 29 -50 26
-99 28 -130 6 -35 -24 -45 -9 -38 58 11 107 103 205 145 154z m-1181 -1711 c1
-11 -7 -35 -18 -53 -17 -28 -23 -32 -35 -22 -19 16 -19 29 1 69 18 35 47 39
52 6z m-368 -182 c-1 -25 -9 -48 -25 -68 -14 -16 -25 -25 -25 -18 0 6 5 15 10
18 6 3 10 25 10 49 0 23 3 46 7 49 15 16 23 5 23 -30z m364 -7 c8 -32 -3 -58
-23 -54 -20 4 -27 44 -11 64 18 20 27 17 34 -10z m-6683 -664 c16 -124 26
-161 61 -222 4 -8 12 -24 17 -35 5 -11 21 -31 35 -44 25 -24 36 -61 17 -61 -5
0 -23 -12 -40 -26 -37 -31 -52 -24 -49 21 3 50 -17 68 -69 60 -35 -5 -43 -3
-43 9 0 9 9 25 21 37 23 23 22 57 -3 73 -13 8 -26 7 -50 -6 -47 -23 -66 -28
-83 -22 -22 9 -18 22 16 56 17 17 35 41 40 52 5 12 18 35 29 51 10 17 30 54
45 84 31 66 46 59 56 -27z m229 -376 c0 -18 -39 -31 -52 -18 -15 15 0 32 28
32 14 0 24 -6 24 -14z m1044 -93 c15 -81 30 -92 100 -68 34 12 43 12 54 1 19
-19 6 -55 -22 -66 -13 -5 -42 -6 -65 -3 -39 5 -44 3 -81 -37 -22 -24 -40 -46
-40 -49 0 -2 -10 -15 -22 -28 -41 -44 -85 -19 -53 31 19 29 14 50 -20 89 -20
22 -36 28 -84 33 -33 4 -62 12 -64 18 -3 6 -2 34 0 62 l5 51 72 6 c39 4 75 2
80 -3 5 -5 4 -26 -3 -52 -26 -91 -26 -88 7 -88 35 0 44 10 61 70 24 84 29 92
50 81 11 -6 22 -27 25 -48z m-348 12 c3 -8 -3 -30 -15 -48 -25 -41 -27 -84 -5
-115 17 -25 11 -42 -16 -42 -10 0 -21 -4 -25 -10 -7 -12 30 -50 50 -50 27 0
17 -46 -16 -74 -46 -39 -61 -32 -78 31 -7 24 -22 54 -35 68 -13 14 -29 40 -36
58 -15 40 -51 110 -60 117 -10 7 -30 47 -30 59 0 16 42 13 64 -4 13 -10 43
-15 81 -15 49 0 66 4 80 20 22 24 34 25 41 5z m6228 -124 c3 -5 -6 -32 -20
-60 -32 -61 -27 -84 18 -79 26 2 34 -2 50 -28 31 -53 -3 -88 -63 -64 -23 10
-35 10 -59 0 -28 -11 -33 -10 -54 9 l-24 22 -50 -28 c-49 -27 -50 -28 -71 -9
-27 24 -27 44 1 73 25 27 49 29 83 7 13 -8 38 -14 57 -12 31 3 33 5 30 36 -4
38 14 99 36 125 16 18 57 23 66 8z m-6103 -51 c11 -6 19 -21 19 -35 0 -21 -5
-25 -27 -25 -16 0 -39 9 -53 20 -24 20 -25 21 -6 35 23 18 40 19 67 5z m317
-71 c1 -9 -6 -26 -16 -40 -17 -21 -23 -22 -46 -11 -25 11 -36 49 -19 66 14 13
78 2 81 -15z m-750 2 c9 -6 29 -12 45 -16 52 -11 28 -45 -33 -45 -30 0 -70 33
-70 57 0 15 32 17 58 4z m5713 -12 c63 -33 75 -68 33 -95 -37 -25 -94 -9 -107
29 -19 58 22 94 74 66z m177 -149 c28 -37 28 -77 0 -107 -27 -29 -64 -30 -79
-2 -17 32 -4 100 21 121 29 24 33 23 58 -12z m569 -2 c28 -26 29 -52 4 -77
-30 -30 -58 -35 -70 -12 -17 30 -13 57 12 85 27 31 25 31 54 4z"/>
<path d="M7040 5759 c-171 -40 -176 -40 -495 -20 -121 7 -260 10 -310 7 -49
-4 -110 -8 -134 -9 -35 -2 -46 -7 -52 -26 -6 -16 -14 -21 -28 -16 -44 14 -70
-21 -47 -63 8 -15 16 -34 19 -42 4 -13 51 -15 351 -14 199 1 349 -3 352 -8 3
-5 -1 -17 -10 -27 -9 -10 -16 -20 -16 -23 0 -15 33 -15 87 -3 32 8 86 14 121
15 72 0 202 -19 217 -31 5 -6 8 -110 7 -262 -2 -195 1 -270 13 -330 22 -116
23 -112 -42 -130 -69 -18 -381 -32 -403 -18 -12 9 -15 63 -17 363 -1 317 -3
353 -18 356 -9 2 -23 -2 -32 -9 -13 -12 -15 -58 -11 -397 3 -250 9 -387 16
-394 6 -6 30 -8 59 -4 26 3 118 11 203 16 85 6 175 17 199 25 25 8 61 15 80
15 27 1 41 7 54 26 17 23 18 27 3 43 -9 10 -16 29 -16 44 0 14 -6 38 -12 54
-9 19 -14 124 -18 333 l-5 304 -25 6 c-14 3 -25 12 -25 20 0 12 12 14 57 12
50 -3 57 -1 63 17 9 30 -2 56 -29 69 -15 6 -27 23 -31 41 -7 33 -48 72 -74 70
-9 -1 -32 -5 -51 -10z m68 -85 c5 -36 -17 -42 -168 -46 -187 -3 -562 2 -619 9
-100 13 -3 23 224 22 220 0 285 5 430 30 28 5 68 8 90 7 32 -1 41 -5 43 -22z
m-878 -24 c0 -5 -12 -10 -26 -10 -14 0 -23 4 -19 10 3 6 15 10 26 10 10 0 19
-4 19 -10z"/>
<path d="M4166 5741 c-4 -6 1 -27 10 -46 21 -45 13 -53 -24 -26 -34 24 -48 26
-55 9 -8 -22 4 -111 21 -155 15 -38 20 -43 50 -43 18 0 45 6 61 14 22 12 132
16 607 20 389 3 584 2 594 -5 10 -7 11 -12 4 -15 -26 -11 -47 -32 -41 -41 4
-6 47 -11 99 -11 51 -1 109 -6 128 -12 19 -5 50 -10 67 -10 20 0 33 -5 34 -12
0 -7 0 -148 0 -313 -1 -165 3 -317 8 -338 5 -20 6 -39 2 -41 -3 -2 -95 -7
-203 -11 l-198 -6 1 188 c0 176 9 339 25 460 6 50 5 53 -20 64 -14 7 -29 9
-32 6 -4 -3 -8 -52 -10 -108 -3 -56 -6 -105 -9 -108 -2 -4 -7 -131 -10 -282
l-7 -275 26 -12 c18 -8 34 -9 52 -1 15 5 121 10 236 11 205 1 210 2 224 23 13
20 13 28 -3 66 -25 62 -32 632 -9 678 14 26 14 30 -5 47 -17 15 -40 19 -132
21 -132 3 -197 11 -197 23 0 15 39 20 120 18 l75 -3 2 45 c2 25 4 58 5 74 3
26 -1 31 -32 39 -19 5 -60 6 -90 2 -87 -10 -338 -8 -415 5 -117 18 -173 23
-570 44 -154 9 -303 18 -331 22 -33 4 -54 2 -58 -5z m700 -92 c9 -15 -14 -29
-48 -29 -21 0 -28 5 -28 20 0 16 7 20 34 20 19 0 38 -5 42 -11z m-96 -39 c0
-5 -6 -10 -14 -10 -8 0 -18 5 -21 10 -3 6 3 10 14 10 12 0 21 -4 21 -10z m832
4 c3 -3 4 -14 1 -25 -8 -28 -33 -24 -33 6 0 23 18 34 32 19z"/>
<path d="M3859 5695 c-3 -2 -326 -5 -719 -5 -514 -1 -724 -4 -748 -13 -49 -17
-53 -51 -11 -86 26 -22 34 -36 35 -65 0 -20 3 -38 5 -41 3 -2 334 -6 736 -7
l732 -3 14 25 c9 17 11 36 6 59 -4 19 -3 45 2 58 13 34 12 40 -11 63 -20 20
-32 24 -41 15z m-684 -70 c73 -9 57 -20 -42 -30 -63 -6 -74 -5 -79 10 -8 20
13 36 41 30 11 -2 47 -7 80 -10z m591 -58 c21 -21 -20 -29 -134 -26 -118 4
-140 8 -128 27 7 11 251 10 262 -1z"/>
<path d="M6095 5513 c-48 -6 -74 -24 -77 -52 -2 -20 -9 -26 -28 -26 l-25 0
-13 -205 c-7 -113 -14 -292 -15 -398 -3 -182 -2 -194 16 -204 13 -7 33 -6 62
1 24 6 96 11 159 11 63 0 127 5 142 10 14 6 60 13 101 17 66 5 76 9 85 29 9
18 7 34 -6 66 -31 75 -46 188 -53 384 -5 162 -3 198 11 239 21 63 20 92 -2
104 -34 18 -276 35 -357 24z m245 -60 l55 -8 -3 -35 c-2 -19 -4 -129 -5 -245
0 -163 3 -230 17 -300 28 -139 35 -126 -74 -147 -121 -24 -327 -22 -321 2 5
19 4 28 -11 118 -9 57 -9 107 0 225 7 84 15 200 18 258 l7 107 36 21 c31 18
48 20 131 16 52 -3 120 -8 150 -12z"/>
<path d="M6210 5360 c-30 -4 -70 -12 -89 -18 -19 -6 -38 -9 -43 -6 -5 3 -15 0
-23 -6 -22 -18 1 -60 34 -61 151 -8 249 19 235 65 -4 11 -7 21 -8 22 -8 7 -62
9 -106 4z"/>
<path d="M6103 5193 c-9 -24 15 -62 44 -69 34 -9 134 11 145 28 10 16 10 20
-2 38 -13 21 -179 24 -187 3z"/>
<path d="M6076 5011 c-23 -26 -20 -37 16 -54 57 -28 83 23 29 55 -28 15 -31
15 -45 -1z"/>
<path d="M6200 4975 c0 -27 25 -45 65 -45 30 0 41 20 25 49 -8 16 -20 21 -50
21 -36 0 -40 -3 -40 -25z"/>
<path d="M6085 4898 c-26 -85 -27 -89 -14 -104 18 -21 63 -14 67 11 2 11 8 30
14 42 9 19 8 27 -7 43 -20 22 -54 27 -60 8z"/>
<path d="M6237 4873 c-15 -14 -6 -53 14 -64 24 -12 69 2 69 22 0 27 -65 60
-83 42z"/>
<path d="M4868 5457 c-21 -17 -23 -36 -5 -38 6 -1 58 -1 114 1 84 2 107 -1
133 -16 36 -21 35 -5 10 -199 -6 -44 -10 -181 -8 -304 l3 -225 -50 -13 c-66
-17 -160 -19 -212 -4 -37 10 -44 17 -53 49 -6 22 -10 170 -10 363 0 312 -1
327 -19 332 -41 10 -42 6 -42 -399 1 -214 1 -396 1 -404 0 -14 20 -16 143 -14
78 0 179 7 224 14 97 16 97 17 81 134 -13 97 -4 584 11 635 8 27 8 40 -4 57
-18 27 -44 33 -185 40 -90 4 -119 2 -132 -9z"/>
<path d="M4315 5430 c-119 -30 -141 -43 -129 -74 7 -18 26 -20 52 -7 57 29
124 42 203 39 l84 -3 -3 -105 c-2 -58 -10 -150 -18 -204 -18 -128 -18 -170 2
-287 10 -53 15 -103 11 -111 -4 -11 -37 -18 -124 -26 -206 -20 -251 -23 -256
-15 -3 5 -6 64 -7 133 -1 69 -7 210 -12 314 -8 148 -7 198 3 228 11 33 10 40
-6 58 -10 11 -23 20 -30 20 -20 0 -31 -43 -24 -90 11 -68 11 -668 -1 -689 -7
-14 -4 -24 15 -41 24 -22 27 -23 82 -10 32 7 117 16 188 20 72 5 146 13 165
19 19 6 50 11 67 11 28 0 33 4 33 23 0 13 -6 37 -14 53 -8 16 -22 80 -32 143
-15 100 -16 127 -5 215 18 150 32 348 26 366 -3 10 -17 22 -31 28 -36 17 -157
13 -239 -8z"/>
<path d="M3616 5411 c-4 -6 -3 -18 2 -27 7 -13 29 -16 121 -18 99 -1 114 -3
127 -20 22 -31 18 -50 -8 -41 -29 10 -94 10 -175 0 -75 -9 -82 -26 -28 -74 42
-37 96 -42 117 -12 16 22 77 55 86 46 4 -4 7 -48 7 -98 0 -90 14 -251 37 -415
16 -118 17 -117 -168 -117 -80 0 -147 2 -150 6 -2 4 -6 105 -8 224 -4 199 -3
216 12 209 10 -4 33 -9 54 -12 30 -3 38 0 48 19 19 34 -11 52 -73 44 l-48 -6
8 103 c12 164 12 163 -18 166 -22 3 -27 -2 -32 -27 -4 -16 -6 -196 -7 -400 0
-203 -3 -376 -6 -385 -10 -26 39 -43 74 -25 18 9 67 14 142 15 200 2 267 23
255 78 -3 12 -7 43 -10 69 -2 27 -7 52 -10 57 -6 9 -19 154 -35 373 -10 129
-7 165 15 219 8 19 -21 38 -69 44 -95 12 -254 16 -260 5z"/>
<path d="M3168 5393 c-107 -3 -118 -5 -118 -22 0 -35 23 -43 86 -32 78 15 146
14 168 -2 22 -16 19 -74 -4 -68 -109 28 -196 27 -214 -2 -9 -15 -6 -21 14 -37
20 -16 41 -20 105 -20 50 0 86 5 93 12 7 7 12 10 13 8 0 -3 1 -97 3 -210 1
-133 6 -212 14 -226 14 -26 31 -130 23 -143 -6 -9 -34 -12 -216 -27 -70 -5
-83 -4 -95 12 -12 14 -16 79 -18 366 -3 299 -6 350 -19 355 -8 3 -22 -2 -31
-10 -14 -15 -15 -29 -5 -124 5 -60 9 -229 8 -378 -1 -163 2 -275 8 -282 13
-18 106 -16 252 3 203 26 223 37 192 98 -9 17 -18 49 -21 71 -2 22 -9 60 -15
85 -20 89 -29 245 -19 336 10 97 3 210 -14 231 -6 7 -25 12 -42 11 -17 -1 -84
-4 -148 -5z"/>
<path d="M6793 5394 c-26 -6 -40 -53 -24 -83 16 -29 65 -61 95 -61 59 0 116
52 97 89 -22 41 -105 68 -168 55z m87 -58 c0 -19 -27 -39 -40 -31 -8 5 -6 13
6 26 20 22 34 25 34 5z"/>
<path d="M2445 5359 c-4 -5 -4 -22 0 -36 5 -21 10 -24 28 -17 12 4 84 9 160
11 134 4 138 4 157 -19 16 -19 19 -39 20 -118 0 -52 5 -111 11 -130 16 -54 15
-390 -2 -401 -8 -5 -85 -8 -171 -7 -133 3 -160 6 -175 20 -15 16 -17 49 -20
305 -2 159 -6 298 -8 310 -5 20 -40 41 -52 30 -4 -5 -4 -272 2 -586 2 -136 3
-137 113 -142 220 -10 368 1 404 30 22 18 22 18 2 47 -17 26 -19 48 -20 194
-1 91 -6 183 -12 205 -7 22 -12 95 -12 161 0 86 -4 125 -13 132 -18 15 -404
25 -412 11z"/>
<path d="M5469 5341 c-23 -19 -23 -19 -5 -40 20 -22 16 -26 -28 -33 -27 -4
-30 -24 -7 -47 10 -10 21 -30 23 -43 3 -22 7 -23 102 -26 l98 -3 -5 26 c-3 17
0 28 9 32 16 6 18 22 4 43 -6 10 -32 17 -72 20 -81 6 -77 24 7 28 56 3 65 5
65 22 0 28 -30 40 -103 40 -49 0 -71 -5 -88 -19z"/>
<path d="M4963 5320 c-50 -6 -68 -12 -88 -34 -17 -18 -24 -34 -20 -46 7 -21
64 -44 87 -35 9 4 19 2 22 -3 3 -6 -19 -13 -54 -17 -64 -7 -74 -19 -42 -48 38
-34 182 -12 182 28 0 7 -9 17 -20 20 -24 8 -17 25 11 25 13 0 19 7 19 24 0 13
7 26 15 30 8 3 15 12 15 20 0 16 -38 47 -55 45 -5 -1 -38 -5 -72 -9z"/>
<path d="M4240 5284 c-41 -7 -82 -12 -90 -11 -21 3 -25 -37 -5 -53 8 -7 15
-21 15 -31 0 -10 14 -31 30 -46 17 -14 30 -36 30 -48 0 -13 10 -29 23 -38 23
-16 24 -15 -25 -31 -25 -8 -22 -33 5 -50 15 -9 41 -12 86 -9 l63 6 -5 38 c-5
38 -4 39 27 39 42 0 59 16 44 43 -9 18 -17 19 -93 13 -72 -6 -83 -5 -89 10
-11 28 6 34 102 38 91 3 122 14 122 42 0 15 -1 15 -97 17 -76 2 -84 21 -12 25
39 2 56 9 69 25 10 12 16 25 13 29 -7 12 -130 8 -213 -8z m10 -82 c0 -13 -12
-22 -22 -16 -10 6 -1 24 13 24 5 0 9 -4 9 -8z"/>
<path d="M2534 5249 c-30 -11 -37 -25 -24 -49 10 -19 19 -20 138 -18 125 3
127 3 130 27 2 13 -1 28 -7 34 -13 13 -207 18 -237 6z"/>
<path d="M6777 5233 c-11 -11 -8 -58 5 -71 7 -7 27 -12 45 -12 28 0 33 4 33
23 0 39 -61 83 -83 60z"/>
<path d="M6921 5218 c-18 -47 34 -85 70 -52 25 22 24 39 -3 58 -32 22 -57 20
-67 -6z"/>
<path d="M3063 5154 c-25 -11 -14 -51 19 -72 29 -19 34 -19 60 -6 27 14 40 56
21 67 -14 8 -88 16 -100 11z"/>
<path d="M2553 5133 c-23 -8 -14 -41 12 -47 35 -9 21 -26 -21 -26 -26 0 -34
-4 -34 -18 0 -29 39 -43 110 -40 60 3 65 5 68 27 2 15 -3 28 -12 33 -15 8 -14
11 4 26 11 10 17 22 12 28 -7 11 -117 25 -139 17z"/>
<path d="M6710 5097 c-32 -17 -35 -32 -10 -57 20 -20 29 -22 99 -15 94 8 108
12 115 31 10 27 -3 34 -69 34 -35 0 -75 4 -88 9 -16 6 -32 5 -47 -2z"/>
<path d="M5388 5084 c-14 -14 -8 -44 12 -64 16 -16 33 -20 94 -20 90 0 106 5
106 35 0 19 -8 25 -47 34 -72 16 -157 24 -165 15z"/>
<path d="M3060 5017 c0 -37 72 -63 84 -31 14 36 7 44 -39 44 -31 0 -45 -4 -45
-13z"/>
<path d="M3599 5009 l-21 -21 28 -24 c34 -28 47 -29 68 -8 21 20 20 37 -2 57
-25 23 -48 21 -73 -4z"/>
<path d="M4866 5016 c-47 -15 -55 -30 -30 -57 21 -23 36 -24 110 -4 69 18 83
29 68 53 -14 21 -92 26 -148 8z"/>
<path d="M6932 4988 c-27 -27 -8 -49 54 -61 19 -4 39 -1 50 7 16 12 16 18 6
40 -10 22 -18 26 -55 26 -24 0 -48 -5 -55 -12z"/>
<path d="M2506 4944 c-8 -22 -9 -22 18 -39 68 -45 207 -10 165 41 -18 21 -175
20 -183 -2z"/>
<path d="M5423 4923 c-60 -5 -80 -21 -63 -52 9 -18 20 -21 80 -21 73 0 150 23
150 44 0 7 -11 18 -25 24 -25 12 -36 12 -142 5z"/>
<path d="M3066 4907 c-16 -12 -16 -14 5 -40 28 -36 72 -35 77 2 6 42 -44 65
-82 38z"/>
<path d="M6751 4906 c-9 -10 -5 -20 18 -45 33 -35 73 -41 111 -14 22 16 24 16
38 -5 24 -37 82 -23 82 19 0 25 -59 44 -78 25 -16 -16 -56 -8 -94 18 -28 20
-62 21 -77 2z"/>
<path d="M4177 4885 c-16 -15 -16 -18 1 -40 13 -18 30 -24 77 -30 77 -8 115 5
115 40 0 18 -6 25 -20 26 -51 3 -78 7 -116 13 -32 6 -44 4 -57 -9z"/>
<path d="M4835 4880 c-26 -42 77 -94 137 -69 34 14 35 28 4 51 -31 23 -130 35
-141 18z"/>
<path d="M3617 4846 c-8 -20 21 -56 44 -56 26 0 49 48 28 61 -22 13 -66 11
-72 -5z"/>
<path d="M6345 4440 c-33 -4 -127 -8 -210 -9 -131 -1 -154 -4 -182 -21 -37
-22 -40 -41 -17 -99 13 -32 13 -49 5 -97 -10 -52 -9 -62 7 -84 l19 -25 280 -3
281 -2 6 22 c3 13 -4 53 -16 91 -19 60 -20 72 -9 116 11 42 10 54 -3 79 -22
42 -42 46 -161 32z m93 -167 l-3 -98 -87 1 c-49 0 -142 1 -207 2 l-119 2 -4
73 c-2 39 0 78 5 85 6 7 37 12 86 13 42 1 101 4 131 9 30 4 88 8 128 9 l73 1
-3 -97z"/>
<path d="M6100 4280 c-12 -7 -12 -13 -4 -27 17 -28 49 -23 49 7 0 27 -21 36
-45 20z"/>
<path d="M6255 4271 c-9 -31 5 -51 36 -51 25 0 29 4 29 29 0 41 -53 59 -65 22z"/>
<path d="M6854 4433 c-266 -3 -272 -4 -277 -24 -8 -30 13 -59 42 -59 21 0 23
-3 18 -35 -3 -20 0 -66 7 -103 25 -132 44 -142 279 -142 213 0 279 16 277 65
-12 310 -12 307 -55 303 -11 -2 -142 -4 -291 -5z m46 -79 c54 -3 114 -1 139 4
70 17 77 8 84 -100 3 -51 4 -95 1 -97 -3 -3 -90 -7 -193 -9 -158 -3 -190 -2
-203 11 -17 17 -31 125 -21 165 8 36 21 44 63 37 19 -3 78 -8 130 -11z"/>
<path d="M6743 4294 c-10 -28 12 -48 60 -57 52 -8 97 5 97 28 0 37 -144 63
-157 29z"/>
<path d="M2449 4403 c-8 -20 -8 -51 1 -108 6 -44 13 -96 14 -116 6 -73 7 -74
168 -71 151 2 281 10 311 18 19 6 23 67 11 181 -10 94 -7 92 -190 98 -88 3
-186 10 -219 15 -83 14 -84 13 -96 -17z m423 -77 c11 -17 32 -145 25 -152 -3
-4 -26 -2 -49 4 -24 6 -101 11 -171 10 -71 0 -131 3 -135 6 -23 23 -41 134
-25 150 12 12 347 -5 355 -18z"/>
<path d="M2577 4303 c-15 -14 -6 -42 18 -57 35 -23 108 -18 113 7 6 28 -109
73 -131 50z"/>
<path d="M3027 4423 c-11 -10 -8 -79 4 -110 6 -15 13 -71 17 -123 l7 -95 150
0 c108 0 161 -4 188 -15 72 -27 99 27 78 159 -6 42 -11 91 -11 109 0 18 -7 44
-16 57 l-16 25 -197 0 c-109 0 -201 -3 -204 -7z m354 -118 c3 -22 10 -50 17
-62 7 -12 12 -35 12 -51 l0 -30 -147 3 -148 4 -6 83 c-4 46 -5 87 -2 91 2 4
64 6 136 5 l132 -3 6 -40z"/>
<path d="M3146 4282 c-10 -30 3 -50 35 -57 48 -11 119 11 119 36 0 13 -36 25
-97 34 -45 6 -52 4 -57 -13z"/>
<path d="M3770 4419 c-52 -5 -128 -11 -169 -13 -40 -2 -78 -9 -84 -15 -7 -7
-3 -25 11 -59 12 -27 24 -80 28 -118 7 -69 27 -113 52 -114 7 0 15 7 18 15 9
22 23 18 54 -15 l28 -30 149 0 c133 0 152 2 166 18 20 21 21 52 7 102 -8 25
-7 57 1 113 12 73 11 79 -7 97 -24 24 -120 32 -254 19z m184 -166 c-1 -49 -3
-92 -3 -96 -1 -5 -69 -7 -153 -4 -146 5 -152 6 -164 28 -14 25 -19 141 -7 152
3 4 79 7 168 7 l162 0 -3 -87z"/>
<path d="M3707 4303 c-12 -11 -8 -50 7 -62 21 -18 105 -18 116 -1 18 27 10 38
-37 54 -50 17 -76 20 -86 9z"/>
<path d="M5046 4418 c-11 -6 -89 -14 -174 -18 -134 -6 -156 -10 -173 -27 -17
-16 -18 -24 -9 -47 5 -15 10 -60 10 -100 0 -59 4 -78 21 -100 15 -19 27 -25
40 -21 13 4 21 1 26 -12 12 -34 36 -53 67 -53 17 0 63 -7 101 -15 97 -20 173
-19 215 4 41 22 47 42 27 85 -32 68 -52 140 -66 235 -12 79 -36 98 -85 69z
m15 -128 c7 -47 31 -117 51 -149 6 -10 8 -26 5 -35 -6 -15 -18 -16 -98 -10
-50 4 -121 15 -158 24 l-66 17 -12 64 c-21 113 -27 106 84 114 53 4 108 11
122 16 51 16 65 8 72 -41z"/>
<path d="M4854 4246 c-11 -29 1 -51 26 -51 31 0 40 33 14 52 -23 17 -33 16
-40 -1z"/>
<path d="M4132 4410 c-23 -5 -47 -12 -52 -15 -14 -9 -12 -37 5 -59 11 -14 15
-46 15 -109 0 -114 29 -174 67 -136 8 8 17 7 34 -3 13 -7 69 -16 124 -19 55
-3 132 -12 172 -19 67 -13 74 -13 92 4 19 17 21 30 19 178 -1 152 -2 160 -22
167 -32 12 -405 21 -454 11z m391 -77 c2 -5 7 -51 11 -105 8 -114 18 -107
-128 -94 -56 5 -131 9 -168 9 -59 0 -67 2 -72 21 -8 29 -7 161 1 169 9 10 351
9 356 0z"/>
<path d="M4237 4273 c-4 -3 -7 -15 -7 -25 0 -33 86 -52 109 -24 10 11 7 19
-10 35 -22 20 -78 29 -92 14z"/>
<path d="M5274 4393 c-18 -19 -18 -33 2 -61 10 -15 19 -57 23 -112 5 -55 14
-98 25 -114 l16 -26 153 0 c291 0 323 10 291 87 -13 30 -15 57 -10 130 5 59 3
93 -3 98 -6 3 -117 7 -247 9 -193 2 -238 0 -250 -11z m413 -76 c4 -3 8 -38 8
-79 l0 -73 -149 -3 c-82 -1 -153 1 -157 5 -13 13 -33 129 -26 147 6 16 21 17
162 13 85 -3 158 -8 162 -10z"/>
<path d="M5462 4268 c-7 -7 -12 -20 -12 -30 0 -15 9 -18 60 -18 64 0 85 15 60
45 -15 18 -91 20 -108 3z"/>
<path d="M2730 3920 c-191 -5 -195 -5 -198 -27 -5 -35 38 -57 95 -48 27 4 116
7 198 7 83 -1 156 2 163 7 32 20 -12 77 -53 69 -5 -1 -98 -5 -205 -8z"/>
<path d="M5600 3921 c-82 -6 -85 -7 -85 -31 0 -17 7 -26 25 -30 14 -3 25 -12
25 -20 0 -12 -36 -14 -213 -13 -117 0 -216 3 -220 7 -4 4 4 16 18 26 24 18 24
19 5 40 -17 19 -28 20 -129 18 -108 -3 -111 -4 -114 -26 -2 -13 3 -31 12 -41
9 -10 19 -32 22 -50 5 -25 2 -37 -16 -56 -25 -27 -21 -39 22 -61 l31 -16 -24
-21 c-13 -12 -40 -28 -59 -35 -34 -13 -211 -47 -281 -54 -42 -4 -50 -34 -17
-65 22 -21 25 -21 103 -8 44 8 94 15 112 15 80 0 213 80 213 128 0 48 17 62
74 62 43 0 57 4 76 25 22 24 29 25 144 26 110 1 145 4 269 25 36 6 37 5 37
-24 0 -40 32 -65 67 -51 13 5 28 9 33 9 19 0 67 -107 81 -180 31 -165 70 -253
143 -323 66 -64 104 -80 206 -86 82 -6 85 -7 86 -31 1 -45 4 -49 34 -65 19
-10 57 -15 107 -15 75 0 79 1 98 30 11 16 33 35 50 41 80 31 118 55 156 97 23
26 45 56 50 67 5 11 13 27 18 35 29 50 59 182 70 300 4 47 11 92 15 99 6 10
34 12 105 11 53 -2 102 -2 109 -1 14 1 16 57 2 66 -6 3 -7 17 -4 30 4 18 -1
30 -20 48 -15 14 -26 35 -26 50 0 15 -8 30 -17 35 -27 13 -190 7 -208 -8 -22
-18 -19 -57 5 -65 33 -10 45 -43 24 -66 -17 -19 -26 -55 -43 -179 -24 -168
-52 -256 -104 -327 -39 -54 -65 -74 -136 -109 -52 -25 -76 -22 -66 10 18 59
18 62 -17 77 -21 9 -65 14 -122 13 -95 -1 -108 -8 -104 -54 2 -19 -2 -26 -19
-28 -36 -5 -157 37 -195 68 -41 34 -99 146 -109 210 -9 63 -28 137 -50 192
-11 26 -19 61 -19 78 0 17 -11 48 -25 70 -25 40 -25 40 -90 40 -65 0 -93 13
-52 24 12 3 43 6 70 6 45 0 47 1 47 29 0 24 -5 29 -31 35 -17 3 -39 5 -48 4
-9 -1 -54 -4 -101 -7z m1394 -158 c15 -10 -19 -23 -60 -23 -47 0 -59 7 -42 27
8 10 23 12 52 7 23 -3 45 -9 50 -11z"/>
<path d="M2603 3795 c-10 -7 -12 -20 -8 -38 l7 -27 107 6 c129 7 131 7 131 38
0 19 -7 26 -28 31 -42 9 -193 2 -209 -10z"/>
<path d="M2685 3659 c-4 -6 -4 -50 0 -99 6 -80 10 -91 32 -105 19 -13 31 -14
56 -6 22 8 64 8 132 1 55 -5 141 -10 191 -10 81 0 93 2 112 23 20 21 20 23 3
43 -16 20 -29 22 -237 27 -120 4 -220 7 -221 7 -2 0 -3 22 -3 48 0 35 -5 54
-18 65 -21 20 -38 22 -47 6z"/>
<path d="M3230 3629 c-19 -35 -5 -67 32 -71 28 -3 34 -8 41 -38 5 -19 10 -53
11 -74 3 -42 25 -66 60 -66 12 0 51 7 89 16 71 18 84 35 52 68 -8 8 -15 25
-15 38 0 13 -7 33 -15 44 -8 10 -15 30 -15 42 0 46 -35 61 -137 62 -84 0 -93
-2 -103 -21z"/>
<path d="M4332 3589 c-17 -6 -22 -14 -18 -27 4 -12 -1 -26 -14 -37 -28 -25
-25 -39 14 -66 39 -27 44 -38 56 -129 5 -36 16 -90 26 -120 26 -82 29 -147 10
-169 -19 -21 -72 -44 -139 -60 -63 -15 -83 -14 -111 4 -31 21 -56 10 -56 -25
0 -33 16 -52 59 -70 25 -10 44 -10 108 3 141 28 187 53 209 116 14 43 8 89
-30 226 -8 28 -17 69 -20 93 -7 45 -7 45 47 56 18 4 27 13 27 26 0 13 10 24
25 30 35 13 33 47 -2 61 l-28 10 28 21 c30 22 36 53 11 62 -24 9 -176 6 -202
-5z"/>
<path d="M3603 3513 c-42 -14 -49 -25 -37 -57 5 -13 23 -16 95 -16 49 0 89 -3
89 -7 5 -137 20 -246 38 -280 7 -12 12 -33 12 -47 0 -17 10 -31 35 -46 48 -29
46 -50 -4 -50 -44 0 -64 -18 -59 -52 2 -16 11 -24 32 -28 27 -5 30 -8 30 -50
1 -41 4 -46 32 -55 17 -6 45 -25 62 -43 34 -37 46 -38 102 -16 62 25 93 101
50 124 -11 6 -46 8 -88 4 -80 -8 -122 6 -100 33 10 13 28 15 91 10 85 -6 95 0
83 48 -6 24 -9 25 -91 25 -84 0 -99 6 -70 30 23 19 18 43 -15 72 -18 16 -30
36 -30 51 0 13 -7 44 -15 67 -9 26 -15 78 -15 132 0 67 -4 95 -17 115 -34 51
-124 67 -210 36z"/>
<path d="M7512 2577 c-12 -6 -22 -18 -22 -27 0 -19 46 -57 95 -79 71 -32 294
-53 336 -31 10 6 19 19 19 30 0 31 -32 40 -144 40 -69 0 -117 5 -138 14 -18 8
-40 17 -48 20 -8 4 -29 14 -45 25 -23 14 -36 16 -53 8z"/>
<path d="M7340 2461 c0 -33 7 -46 46 -85 25 -25 51 -46 58 -46 7 0 17 -5 23
-11 7 -7 35 -20 62 -30 41 -14 90 -18 249 -20 108 -2 203 0 210 5 6 4 12 18
12 30 0 32 -19 36 -178 36 -234 0 -336 26 -390 98 -34 46 -52 61 -74 62 -14 0
-18 -8 -18 -39z"/>
<path d="M7461 2033 c-19 -16 -20 -20 -8 -37 17 -23 101 -56 144 -56 18 0 48
8 68 17 28 14 35 22 35 46 l0 30 -58 -7 c-39 -4 -73 -2 -107 9 -28 8 -51 15
-51 15 -1 0 -11 -8 -23 -17z"/>
</g>
</svg>
