<?xml version="1.0" standalone="no"?>
<!DOCTYPE svg PUBLIC "-//W3C//DTD SVG 20010904//EN"
 "http://www.w3.org/TR/2001/REC-SVG-20010904/DTD/svg10.dtd">
<svg version="1.0" xmlns="http://www.w3.org/2000/svg"
 width="300.000000pt" height="199.000000pt" viewBox="0 0 300.000000 199.000000"
 preserveAspectRatio="xMidYMid meet">
<metadata>
Created by potrace 1.10, written by Peter Selinger 2001-2011
</metadata>
<g transform="translate(0.000000,199.000000) scale(0.050000,-0.050000)"
fill="#000000" stroke="none">
<path d="M4506 3649 c-62 -32 -126 -146 -126 -225 0 -28 -16 -36 -72 -36 -143
0 -203 -200 -98 -324 79 -95 31 -644 -57 -644 -30 0 -173 -143 -173 -174 0
-12 -23 -27 -51 -35 -32 -7 -63 -37 -81 -77 -15 -35 -49 -89 -73 -120 -84
-106 -58 -557 40 -709 17 -25 33 -82 36 -127 3 -45 20 -97 37 -116 43 -47 41
-56 -18 -70 -106 -27 -61 -212 52 -212 32 0 58 -9 58 -20 0 -37 79 -100 125
-100 45 0 65 17 199 163 60 67 70 71 105 45 21 -15 57 -28 80 -28 31 0 43 -14
47 -53 13 -165 232 -136 274 36 8 33 36 63 72 78 71 29 76 87 13 154 -41 44
-42 49 -10 67 60 34 175 201 176 256 0 29 18 102 39 162 21 61 39 153 39 206
1 73 9 98 36 106 19 6 49 19 65 30 17 11 89 47 160 80 72 34 171 100 220 147
63 60 113 90 167 98 105 15 138 47 127 122 -6 40 4 80 30 116 101 143 48 273
-84 205 -68 -35 -69 -32 -38 113 32 149 -111 261 -162 127 -28 -74 -50 -61
-77 46 -44 171 -228 311 -204 154 6 -33 8 -109 6 -170 -2 -60 -4 -202 -4 -314
-2 -247 -19 -299 -110 -337 -123 -51 -346 -29 -396 41 -32 45 -17 135 20 119
118 -52 179 -37 295 72 158 150 160 277 5 341 l-57 24 49 52 c139 149 117 302
-44 302 -47 0 -69 12 -85 45 -11 25 -50 67 -87 95 -42 31 -66 66 -66 96 0 161
-237 275 -399 193z m227 -99 c81 -56 77 -121 -13 -202 -107 -97 -115 -215 -18
-296 l61 -52 -40 -65 c-73 -119 -53 -235 39 -235 29 0 38 15 38 65 0 112 236
355 344 355 86 0 -86 -211 -212 -259 -105 -40 -19 -136 94 -105 74 21 153 -3
169 -50 10 -30 -159 -206 -197 -206 -15 1 -68 28 -116 60 -90 61 -133 72 -177
43 -20 -12 -17 -24 11 -49 26 -23 34 -53 28 -94 -9 -63 -29 -65 -160 -17 -70
26 -224 22 -179 -5 19 -11 46 -14 59 -6 15 10 18 3 9 -21 -12 -31 -1 -34 92
-30 148 6 175 2 175 -24 0 -179 378 -284 617 -171 117 54 143 121 140 348 -2
97 -1 208 1 246 l3 70 28 -50 c16 -27 24 -68 19 -91 -15 -62 60 -124 105 -87
35 29 35 4 -2 -84 -35 -85 69 -118 137 -44 28 30 57 48 64 41 21 -21 -49 -115
-100 -134 -26 -10 -52 -32 -59 -49 -6 -18 -24 -32 -39 -32 -15 0 -56 -40 -92
-90 -79 -110 -271 -227 -422 -258 -105 -21 -110 -25 -107 -82 4 -82 -30 -305
-52 -346 -11 -19 -24 -65 -30 -104 -23 -139 -238 -320 -381 -320 -37 0 -73 -9
-80 -19 -22 -36 -170 -65 -229 -44 -30 10 -67 12 -81 3 -35 -22 -9 -81 40 -94
68 -18 44 -46 -40 -46 -64 0 -80 7 -80 37 0 20 -22 57 -50 83 -69 65 -63 80
31 80 114 0 174 37 327 202 162 175 202 314 77 268 -37 -13 -31 5 25 78 89
117 49 181 -84 133 -81 -29 -111 -13 -53 29 36 25 41 50 42 204 1 221 -1 223
-180 211 l-145 -10 49 53 c29 32 61 48 82 42 67 -22 123 164 151 505 13 154
17 165 59 165 143 0 223 202 119 300 -145 136 22 364 183 250z m-340 -267
c-18 -20 -36 -65 -40 -100 -16 -136 -88 -86 -75 53 1 14 31 39 67 54 85 37 87
37 48 -7z m567 -76 c0 -83 -120 -139 -176 -83 -41 41 -29 78 21 65 26 -6 62 2
85 19 52 40 70 39 70 -1z m-732 -1064 c9 -15 -171 -63 -233 -63 -37 0 0 49 46
62 72 20 175 21 187 1z m52 -161 c0 -48 -16 -68 -89 -110 -114 -67 -123 -66
-151 19 -31 93 -19 101 225 146 8 2 15 -23 15 -55z m-360 -19 c0 -10 6 -48 13
-85 13 -62 11 -65 -20 -41 -35 30 -46 143 -13 143 11 0 20 -8 20 -17z m23
-244 c55 -18 89 -19 138 -2 84 30 97 15 41 -45 -94 -100 27 -145 137 -51 68
58 121 76 121 41 0 -9 -58 -80 -130 -158 -144 -156 -153 -177 -78 -196 85 -22
10 -73 -121 -84 -106 -9 -111 -7 -111 39 0 26 -18 77 -40 113 -22 36 -49 126
-60 200 -25 175 -25 189 5 177 14 -6 58 -21 98 -34z m877 -709 c0 -32 -6 -34
-100 -34 -91 0 -100 2 -100 23 0 16 46 27 165 38 19 2 35 -10 35 -27z m-125
-184 c-43 -43 -64 -23 -46 46 12 51 16 52 46 21 31 -31 31 -35 0 -67z"/>
<path d="M1526 3571 c-63 -28 -146 -153 -146 -220 0 -21 -19 -31 -57 -31 -93
0 -215 -172 -199 -281 7 -48 1 -57 -51 -67 -127 -26 -152 -121 -56 -209 l57
-52 -59 -75 c-132 -163 49 -259 215 -113 88 77 86 80 70 -103 -13 -144 1 -220
39 -220 32 0 91 387 69 449 -4 11 29 48 73 80 46 34 77 73 73 90 -7 33 -17 34
-87 12 -54 -16 -45 47 15 101 37 33 41 32 84 -9 26 -24 62 -43 80 -43 30 0 34
-31 34 -277 0 -153 6 -306 13 -340 l12 -63 -137 -3 c-76 -1 -116 -7 -88 -12
27 -5 77 -27 110 -49 l60 -39 -50 44 -50 45 127 -11 c232 -21 364 -263 363
-669 -1 -197 -27 -237 -153 -233 -135 3 -200 37 -157 80 29 29 29 36 0 79 -29
45 -28 48 6 48 69 0 117 73 77 117 -32 35 -31 37 30 39 85 2 141 84 57 84 -34
0 -40 13 -40 90 l0 90 -168 0 c-198 0 -190 7 -261 -230 -80 -264 -79 -279 22
-286 66 -5 81 -13 74 -40 -9 -39 156 -124 241 -124 27 0 55 -9 62 -20 7 -11 2
-20 -10 -20 -12 0 -81 -28 -154 -62 -215 -100 -589 -56 -633 76 -6 20 -31 60
-55 89 -91 113 -83 347 17 472 115 143 135 203 58 173 -48 -18 -193 -245 -193
-301 0 -31 -8 -44 -22 -36 -13 9 -18 45 -12 90 5 41 2 83 -7 92 -9 9 -19 89
-23 177 l-6 160 -78 6 c-101 9 -120 -12 -96 -108 11 -43 25 -107 31 -143 l12
-65 -87 0 c-218 0 -270 -52 -139 -137 52 -34 65 -52 47 -63 -44 -27 -6 -77 70
-91 l72 -14 -43 -46 c-75 -80 -15 -145 72 -80 56 43 63 39 78 -39 14 -74 18
-77 81 -51 37 16 36 18 -15 38 -76 30 -72 83 5 83 50 0 60 -8 60 -47 0 -26 20
-73 45 -105 24 -31 42 -73 39 -92 -4 -23 16 -49 55 -71 69 -40 70 -69 0 -85
-93 -22 -52 -140 48 -140 33 0 50 -17 64 -65 25 -84 86 -95 151 -26 26 28 67
50 91 51 23 0 53 13 67 30 37 44 121 -8 148 -92 38 -118 232 -56 232 74 0 10
18 30 40 43 100 63 41 152 -98 150 -87 -1 -88 0 -26 15 37 8 102 44 144 78 43
34 97 62 120 62 289 0 166 933 -140 1060 l-60 25 0 307 0 307 65 28 c211 89
199 337 -20 395 -70 19 -85 31 -85 71 0 72 -51 181 -97 205 -48 26 -38 27
-117 -7z m93 -90 c42 -77 25 -174 -41 -240 -71 -71 -89 -67 -106 26 -27 141
93 315 147 214z m181 -251 c0 -3 -14 -39 -32 -81 -23 -56 -26 -87 -11 -121 18
-39 14 -46 -33 -58 -133 -33 -160 194 -31 266 27 16 107 11 107 -6z m-419 -31
c87 -46 108 -137 47 -201 -63 -66 -142 -81 -117 -23 34 79 34 167 -2 206 -42
46 0 57 72 18z m-155 -324 c72 -33 68 -51 -14 -66 -98 -18 -141 -5 -148 46 -8
53 70 63 162 20z m131 -133 c-10 -26 -180 -164 -232 -188 -71 -32 -78 1 -14
69 75 79 265 172 246 119z m414 -923 c31 -50 -8 -82 -59 -48 -104 68 -147 3
-63 -96 83 -97 89 -124 23 -107 -103 26 -145 -32 -72 -98 51 -46 51 -70 1 -70
-27 0 -36 10 -28 30 9 23 -4 30 -53 30 -43 0 -61 8 -55 25 5 14 25 88 45 165
20 77 45 151 56 165 23 30 186 33 205 4z m-1115 -103 c77 -77 6 -95 -106 -27
l-80 50 81 0 c45 1 92 -10 105 -23z m724 -775 c0 -37 -45 -45 -76 -13 -30 29
-28 32 22 32 30 0 54 -8 54 -19z m360 -99 c0 -26 -72 -83 -87 -69 -17 17 -17
96 0 113 15 15 87 -21 87 -44z"/>
<path d="M2778 3040 c-44 -44 -88 -80 -99 -80 -29 0 -99 -123 -99 -174 0 -34
-13 -45 -65 -50 -87 -8 -102 -93 -28 -157 l50 -44 -58 -49 c-151 -127 -23
-221 186 -136 83 34 45 -161 -52 -266 -84 -90 -153 -252 -153 -358 0 -20 -27
-53 -60 -73 -33 -19 -60 -50 -60 -68 0 -17 -16 -49 -35 -71 -70 -77 -48 -224
47 -310 75 -68 80 -79 62 -132 -17 -50 -13 -63 28 -94 27 -21 41 -37 32 -38
-8 0 -1 -27 16 -60 51 -100 250 -59 250 51 0 90 211 58 256 -40 52 -114 242
-30 226 101 -1 13 11 34 28 48 16 14 30 42 30 62 0 49 30 48 81 -3 84 -84 99
-40 71 211 -35 328 -35 327 8 316 31 -8 35 -18 20 -47 -60 -112 21 -104 99 10
71 103 77 151 20 165 -37 10 -38 14 -10 58 65 99 -42 131 -128 39 -56 -59 -72
-53 -89 34 -8 40 -41 88 -86 127 l-74 62 -4 257 c-4 239 -1 260 41 318 95 128
47 291 -86 291 -22 0 -46 17 -52 38 -49 155 -193 183 -313 62z m196 -43 c47
-45 62 -97 27 -97 -10 0 -24 9 -31 20 -7 11 -38 20 -70 20 -72 0 -98 38 -49
73 50 37 69 34 123 -16z m-186 -215 c-2 -94 -26 -129 -75 -111 -40 16 -44 49
-4 49 36 0 58 67 40 122 -9 31 -6 40 14 33 17 -6 26 -39 25 -93z m388 74 c29
-29 32 -96 4 -96 -11 0 -20 8 -20 18 0 32 -80 -1 -102 -42 -15 -27 -14 -47 3
-67 19 -23 17 -29 -8 -29 -95 0 -67 207 30 226 26 5 52 10 58 11 6 2 22 -8 35
-21z m-215 -261 c24 -19 65 -35 91 -35 46 0 47 -4 46 -187 0 -103 6 -212 14
-243 13 -52 11 -55 -34 -40 -84 27 -258 36 -258 12 0 -12 7 -21 15 -20 44 7
82 -6 121 -43 24 -22 44 -32 44 -20 0 11 -19 30 -42 42 -60 32 -37 41 47 18
46 -13 95 -49 135 -100 35 -43 75 -79 90 -79 29 0 66 -141 82 -310 5 -55 13
-139 19 -187 l9 -86 -85 6 c-80 7 -85 4 -80 -43 4 -37 0 -42 -13 -22 -16 24
-39 20 -142 -25 -156 -67 -227 -68 -293 -2 -47 47 -49 54 -19 87 18 19 32 46
32 59 0 14 14 46 32 73 43 66 30 138 -27 146 -53 8 -57 29 -14 65 58 48 28
128 -51 136 -122 11 -115 115 16 223 77 63 121 291 67 345 -16 16 -6 32 36 57
54 33 57 40 36 95 -18 47 -15 77 15 156 l38 97 14 -70 c8 -38 35 -85 59 -105z
m-301 1 c0 -21 -9 -20 -69 7 -28 13 -51 36 -51 51 0 23 12 21 60 -7 33 -20 60
-43 60 -51z m40 -125 c0 -14 -124 -71 -156 -71 -25 0 -24 7 6 40 30 34 150 59
150 31z m-82 -816 c-14 -24 -45 -61 -71 -81 -96 -75 -34 -151 76 -92 78 41 65
-4 -22 -79 -66 -57 -85 -85 -74 -112 27 -71 -49 -96 -112 -36 -62 59 -77 172
-25 192 17 7 30 24 30 39 0 31 174 214 203 214 10 0 8 -20 -5 -45z m582 -501
c0 -45 -39 -67 -100 -58 -71 10 -78 38 -15 63 66 27 115 25 115 -5z m-491 -37
c68 -31 64 -57 -9 -57 -47 0 -60 9 -60 40 0 47 2 47 69 17z"/>
<path d="M1159 2191 c-67 -44 -204 -207 -257 -307 -57 -107 -2 -74 145 85 85
94 167 171 182 171 46 0 83 60 50 81 -38 24 -38 24 -120 -30z"/>
<path d="M1275 2125 c-19 -4 -35 -20 -35 -35 0 -61 193 -73 277 -17 63 41 30
69 -58 49 -39 -9 -88 -10 -110 -3 -21 8 -55 10 -74 6z"/>
</g>
</svg>
