<?xml version="1.0" standalone="no"?>
<!DOCTYPE svg PUBLIC "-//W3C//DTD SVG 20010904//EN"
 "http://www.w3.org/TR/2001/REC-SVG-20010904/DTD/svg10.dtd">
<svg version="1.0" xmlns="http://www.w3.org/2000/svg"
 width="300.000000pt" height="313.000000pt" viewBox="0 0 300.000000 313.000000"
 preserveAspectRatio="xMidYMid meet">
<metadata>
Created by potrace 1.10, written by Peter Selinger 2001-2011
</metadata>
<g xmlns="http://www.w3.org/2000/svg" transform="translate(0.000000,313.000000) scale(0.050000,-0.050000)" fill="#000000" stroke="none">
<path d="M1800 5960 c-38 -8 -105 -30 -148 -49 l-77 -34 13 -149 c8 -82 18 -161 24 -175 13 -34 -754 -39 -776 -5 -75 115 -114 -243 -127 -1158 -5 -363 -19 -750 -30 -860 -29 -263 -55 -1035 -37 -1057 13 -15 266 -55 549 -85 l81 -9 -93 -185 c-51 -101 -148 -269 -216 -373 -67 -105 -123 -200 -123 -212 0 -13 -18 -39 -41 -60 -92 -83 83 -185 370 -215 57 -6 173 245 382 825 93 258 111 264 228 82 70 -109 285 -600 275 -629 -4 -11 9 -35 28 -54 18 -18 40 -70 47 -115 15 -89 54 -134 100 -116 179 69 529 353 435 353 -17 0 -164 186 -164 207 0 6 15 6 34 -1 19 -8 -4 21 -51 63 -50 45 -80 89 -74 105 6 16 2 23 -9 16 -11 -7 -49 36 -86 94 -112 177 -123 166 174 167 218 2 294 11 452 54 105 29 216 58 247 65 51 10 56 18 44 66 -30 123 -127 662 -138 769 -7 64 -17 136 -22 160 -10 51 -23 212 -51 643 -20 307 -29 411 -61 726 -10 102 -19 234 -19 294 0 60 -10 135 -22 166 -11 31 -23 110 -25 176 -4 158 -20 174 -127 126 -69 -30 -141 -38 -374 -42 l-288 -4 -30 196 c-41 263 -61 280 -274 234z m162 -170 c7 -44 18 -123 25 -175 l12 -95 -138 0 c-160 0 -163 2 -176 169 -11 136 -5 146 103 173 125 30 160 16 174 -72z m844 -365 c43 -291 57 -426 84 -825 16 -247 35 -535 40 -640 5 -104 16 -257 23 -340 8 -82 15 -183 16 -223 0 -40 7 -70 13 -65 7 4 19 -49 27 -117 15 -132 82 -543 102 -623 36 -142 -845 -255 -958 -123 -25 28 -55 51 -68 51 -13 0 -47 40 -75 88 -49 84 -110 152 -110 123 0 -7 36 -67 80 -133 44 -67 80 -129 80 -139 0 -46 -739 -6 -1182 63 l-132 21 -12 183 c-7 100 -9 186 -5 190 20 20 322 -43 343 -72 87 -119 1668 -97 1668 24 0 50 -31 54 -224 24 -102 -16 -267 -31 -366 -33 -310 -7 -306 -8 -355 74 -23 41 -47 62 -51 49 -5 -14 12 -47 37 -73 l46 -49 -131 0 c-112 0 -384 22 -606 49 -33 4 -125 14 -205 22 l-145 14 1 103 c0 56 12 250 27 430 15 181 28 625 30 988 2 363 8 667 13 676 6 9 11 66 12 126 2 184 -69 170 927 181 484 6 907 19 940 29 96 30 104 26 116 -53z m-1360 -3271 c-49 -123 -101 -251 -115 -284 -14 -33 -36 -96 -49 -140 -70 -248 -141 -304 -317 -248 l-64 21 28 68 c16 38 72 134 124 214 134 205 161 251 219 374 82 176 117 214 195 217 l69 3 -90 -225z m690 117 c18 -44 89 -160 158 -258 153 -216 152 -199 6 -273 -66 -33 -120 -65 -120 -71 0 -16 138 47 202 93 33 23 62 39 65 35 3 -4 29 -40 59 -80 l54 -74 -63 -52 c-62 -53 -201 -131 -232 -131 -8 0 -42 70 -75 155 -32 85 -74 182 -93 215 -19 33 -54 114 -79 180 -24 66 -64 152 -88 190 -105 168 -107 160 42 155 l133 -5 31 -79z"/>
<path d="M1640 5168 c-82 -48 -160 -88 -175 -88 -28 0 -34 -72 -7 -89 10 -6 77 25 150 69 72 44 136 80 141 80 5 0 7 -70 3 -155 -7 -173 0 -205 40 -205 32 0 31 -10 28 250 -3 248 1 245 -180 138z"/>
<path d="M2440 5194 c-208 -67 -228 -82 -194 -143 13 -23 28 -98 34 -168 l10 -128 200 -1 200 -1 -7 238 c-4 132 -12 246 -16 254 -12 20 -7 21 -227 -51z m180 -194 l0 -160 -118 0 c-136 0 -156 16 -165 138 l-6 89 130 45 c71 25 136 46 144 46 8 1 15 -70 15 -158z"/>
<path d="M1503 4839 c-24 -23 -39 -49 -34 -58 6 -9 -11 -31 -37 -48 -60 -39 -82 -133 -32 -133 21 0 46 27 62 65 14 36 47 81 72 101 44 35 64 114 30 114 -9 0 -36 -19 -61 -41z"/>
<path d="M1964 4759 c-18 -29 -38 -37 -67 -28 -56 18 -85 -29 -46 -72 26 -29 25 -39 -13 -86 l-42 -54 -69 61 c-104 91 -133 75 -156 -90 -8 -55 -23 -115 -33 -133 -11 -22 -8 -40 10 -55 39 -33 69 12 85 125 15 109 17 110 92 39 l56 -55 76 86 76 85 23 -51 c14 -30 40 -51 64 -51 50 0 50 14 0 90 -48 72 -51 116 -10 150 17 14 30 37 30 52 0 42 -47 34 -76 -13z"/>
<path d="M2433 4667 c-9 -9 -41 -17 -70 -17 -59 0 -57 20 -31 -276 16 -179 26 -192 108 -134 36 25 105 48 171 54 76 8 116 23 129 46 21 39 -18 266 -51 299 -26 26 -235 49 -256 28z m200 -102 c59 -38 54 -162 -6 -176 -31 -7 -92 -22 -134 -32 -93 -24 -86 -31 -97 103 l-8 110 111 5 c61 3 121 -1 134 -10z"/>
<path d="M1281 4511 c-27 -28 -41 -62 -34 -80 18 -48 49 -37 82 28 56 108 30 135 -48 52z"/>
<path d="M1155 4295 c-59 -77 -71 -135 -30 -135 34 0 101 125 92 171 -6 29 -18 22 -62 -36z"/>
<path d="M1671 4321 c-16 -26 18 -91 67 -125 21 -15 52 -61 70 -104 39 -94 41 -111 5 -63 -34 47 -62 10 -45 -60 14 -56 72 -67 72 -14 1 30 3 31 20 5 33 -51 22 -2 -31 137 -85 223 -124 279 -158 224z"/>
<path d="M2586 4213 c-103 -28 -144 -63 -112 -95 17 -17 40 -17 87 0 116 40 129 32 133 -78 4 -120 -21 -140 -172 -140 l-100 0 -6 125 c-10 211 -66 173 -66 -45 l0 -170 70 -7 c92 -9 336 37 344 65 4 12 4 101 0 197 -8 197 -6 195 -178 148z"/>
<path d="M962 4113 c-13 -16 -22 -36 -19 -46 2 -9 -8 -43 -24 -74 -72 -149 124 -280 206 -139 l38 65 -56 105 c-59 110 -104 138 -145 89z m96 -138 c24 -62 -10 -126 -49 -94 -35 29 -37 83 -5 115 32 32 35 31 54 -21z"/>
<path d="M1807 3850 c-6 -17 -6 -61 1 -99 8 -39 5 -73 -8 -81 -53 -33 -83 -131 -60 -200 46 -138 240 -115 240 29 0 60 -67 161 -108 161 -19 0 -22 23 -13 86 18 119 -18 192 -52 104z m89 -335 c5 -43 -2 -55 -33 -55 -38 0 -63 36 -63 93 0 58 89 23 96 -38z"/>
<path d="M1193 3607 c-24 -24 -13 -76 27 -127 60 -76 35 -166 -40 -145 -26 7 -26 5 -1 -12 25 -18 25 -26 -5 -58 -45 -50 -43 -78 5 -91 39 -10 77 30 107 111 20 55 40 42 99 -65 56 -102 115 -132 115 -60 0 22 -32 84 -71 139 l-71 99 41 80 c50 98 18 134 -47 53 l-43 -54 -34 71 c-34 70 -55 86 -82 59z"/>
<path d="M4174 5310 c-91 -83 -84 -83 -166 -20 -140 107 -327 -61 -357 -322 -34 -290 -32 -287 -165 -288 -24 0 -51 -11 -60 -25 -18 -29 -157 -121 -213 -142 -39 -14 -39 -22 7 -183 13 -44 25 -102 27 -130 2 -39 14 -50 53 -50 28 0 77 -11 110 -25 33 -14 127 -37 208 -50 152 -26 202 -61 116 -82 -193 -49 -100 -453 104 -453 27 0 42 -13 42 -36 0 -32 -14 -36 -120 -28 -179 13 -234 -177 -90 -316 68 -65 69 -69 35 -109 -131 -154 -70 -320 144 -391 95 -31 89 -54 -23 -102 -330 -141 -572 -519 -569 -890 3 -410 158 -720 379 -757 45 -8 93 -28 108 -46 14 -17 52 -47 83 -66 57 -35 57 -35 14 -58 -100 -54 -82 -225 27 -252 35 -9 52 -31 61 -81 27 -144 271 -122 271 24 0 15 12 28 27 28 116 0 144 206 33 246 -16 6 -3 12 30 13 33 1 82 7 109 15 l49 13 -43 -56 c-64 -81 59 -219 161 -180 18 7 33 -4 39 -29 25 -95 155 -76 225 34 22 34 50 63 63 63 34 1 127 118 127 159 0 78 -118 131 -205 93 -52 -23 -43 24 10 50 25 12 104 83 175 157 72 75 225 217 340 316 270 232 273 235 241 294 -21 39 -20 56 9 99 41 63 22 100 -43 84 -44 -11 -47 -8 -28 27 12 22 21 54 21 72 0 50 -89 31 -92 -20 -5 -97 -14 -92 -39 25 -70 317 -349 585 -609 585 -50 0 -58 10 -78 95 -37 160 -82 498 -95 716 l-13 208 73 80 c71 79 83 116 75 221 -8 119 -97 220 -192 220 -61 0 -25 69 40 77 79 8 318 113 422 185 91 62 129 134 136 255 2 44 17 94 31 112 43 52 -86 130 -214 131 -31 0 -45 12 -45 39 0 60 -43 74 -76 24 -35 -52 -100 -56 -135 -8 -21 28 -31 30 -52 10 -57 -56 -126 42 -167 235 -52 241 -193 321 -336 190z m219 -152 c13 -38 37 -108 52 -158 16 -49 36 -106 44 -125 24 -55 -38 -43 -132 25 -81 58 -137 56 -137 -5 0 -11 12 -10 29 4 34 29 71 12 71 -32 0 -24 -15 -29 -60 -23 -33 5 -60 1 -60 -10 0 -10 -29 -14 -65 -9 -42 7 -77 0 -100 -20 -23 -20 -77 -32 -155 -33 -66 -1 -120 -8 -120 -17 0 -8 -7 -15 -16 -15 -40 0 13 323 66 400 71 103 94 108 181 39 98 -78 128 -75 218 22 87 95 141 82 184 -43z m556 -440 c132 -25 142 -37 119 -152 -13 -70 -30 -101 -63 -116 -25 -11 -45 -26 -45 -33 0 -47 -123 -101 -158 -69 -40 36 -100 -3 -72 -47 7 -12 -16 -34 -54 -50 -103 -43 -113 17 -19 116 115 121 299 197 277 114 -5 -23 -2 -36 8 -30 33 21 20 89 -17 89 -100 0 -188 -46 -270 -141 -47 -54 -101 -99 -120 -99 -24 0 -35 -16 -35 -50 0 -44 -9 -50 -70 -50 -49 0 -70 9 -70 30 0 17 -18 30 -40 30 -26 0 -40 -13 -40 -39 0 -41 -21 -50 -153 -71 -79 -12 -83 -10 -104 50 -26 75 -73 70 -72 -7 1 -49 -6 -53 -85 -53 -47 0 -86 4 -86 8 0 5 -5 23 -12 40 -9 24 1 33 45 34 71 3 -67 35 -159 37 l-56 1 41 -44 c49 -52 43 -62 -25 -45 -38 9 -55 31 -68 86 -25 104 -99 106 -90 3 l5 -70 -70 70 c-122 122 -42 318 110 270 31 -10 44 -4 52 26 14 54 175 101 229 67 51 -31 78 -29 78 7 0 17 7 30 15 31 8 0 53 8 100 17 47 9 85 9 85 -1 0 -28 60 -19 72 12 38 97 259 47 272 -61 10 -83 8 -83 -77 -8 -110 96 -115 69 -6 -33 85 -79 99 -103 99 -167 0 -73 45 -141 68 -103 6 10 -7 102 -29 204 -23 102 -36 199 -30 214 12 32 310 21 520 -17z m-489 -638 c0 -11 -14 -20 -32 -20 -180 0 -269 -336 -119 -450 35 -28 93 -55 128 -62 84 -17 78 5 113 -380 57 -621 88 -747 185 -748 76 0 193 -127 263 -284 142 -319 170 -404 171 -537 0 -63 8 -111 16 -106 103 63 -114 689 -298 861 -105 98 -94 106 50 39 132 -61 247 -150 230 -177 -8 -13 -4 -16 9 -8 47 29 164 -285 164 -441 0 -66 -100 -275 -157 -328 -152 -141 -296 -174 -441 -100 -43 22 -84 33 -92 25 -28 -26 16 86 62 159 73 116 27 164 -100 102 -98 -47 -126 -28 -41 27 104 69 59 119 -99 111 -102 -6 -133 -1 -123 16 8 13 29 18 46 12 17 -7 66 11 108 38 63 42 100 51 217 51 137 0 242 48 212 97 -15 24 -355 2 -411 -27 -49 -25 -51 -24 -121 147 -88 212 -74 211 -429 26 -297 -155 -311 -177 -232 -355 48 -109 48 -108 18 -108 -27 0 -75 -60 -76 -95 -1 -35 69 -31 99 5 25 30 121 42 119 15 0 -8 -13 -37 -29 -65 -59 -104 -9 -181 71 -109 56 50 64 29 25 -68 -44 -113 -10 -160 82 -113 94 49 101 25 17 -60 -226 -230 -512 -209 -621 45 -212 494 -30 1028 428 1258 120 60 148 83 148 121 0 38 11 46 59 46 115 0 235 114 299 285 31 82 5 66 -31 -18 -23 -57 -35 -67 -49 -45 -14 22 -32 11 -86 -52 -157 -184 -565 -50 -461 152 36 70 33 70 266 -12 207 -74 334 -25 347 134 3 31 27 66 60 89 31 20 56 44 56 53 0 25 -183 -112 -196 -146 -63 -167 -585 40 -584 232 1 106 124 116 251 19 36 -28 80 -51 98 -51 53 0 34 69 -29 107 -76 44 -86 158 -18 194 159 85 98 383 -90 437 -55 16 -48 19 58 21 66 2 179 15 250 30 163 33 240 37 240 11z m179 -153 c42 -54 52 -116 27 -180 -12 -32 -16 -31 -26 13 -26 112 -180 49 -180 -74 0 -57 -15 -58 -74 -3 -61 58 -64 194 -6 247 22 20 40 31 40 26 0 -6 29 -4 65 4 102 25 110 23 154 -33z m-693 -23 c66 -69 72 -166 14 -224 -51 -51 -127 -55 -112 -5 33 112 34 147 4 207 -40 79 -40 78 4 78 20 0 61 -25 90 -56z m363 -1829 c19 -47 48 -109 63 -138 22 -41 22 -55 3 -63 -14 -5 -64 -38 -111 -73 -114 -83 -90 -117 89 -125 l130 -6 -51 -76 c-93 -137 -57 -176 93 -101 111 56 113 51 42 -86 -65 -125 -54 -176 33 -157 72 16 89 -78 25 -135 -43 -38 -354 -124 -394 -108 -72 28 -97 107 -52 167 108 147 65 289 -55 183 -88 -77 -97 -64 -42 62 57 133 33 166 -74 100 -69 -43 -74 -44 -59 -8 48 110 39 169 -25 169 -54 0 -144 144 -144 229 0 7 259 160 370 218 94 49 121 41 159 -52z m1145 -422 c-32 -42 -45 -74 -33 -86 12 -12 -11 -48 -61 -97 -83 -81 -106 -76 -45 11 49 69 105 183 105 212 0 22 59 48 78 34 4 -3 -16 -36 -44 -74z m-486 -518 c-280 -267 -605 -364 -955 -286 -192 42 -198 54 -66 129 132 76 121 76 170 -8 27 -45 57 -70 84 -70 90 0 417 101 496 153 88 57 94 69 65 123 -16 30 -4 34 115 34 94 0 147 10 182 35 28 19 52 35 56 35 3 0 -63 -65 -147 -145z m-245 -384 c27 -59 27 -72 3 -97 -25 -24 -25 -32 -1 -56 16 -16 24 -40 20 -53 -9 -27 -64 -35 -66 -10 -1 8 -4 60 -8 115 -3 55 -12 116 -20 135 -30 69 40 36 72 -34z m186 11 c29 -48 -40 -112 -98 -90 -22 9 -20 21 14 60 45 51 66 59 84 30z m-761 -70 c-12 -30 57 -80 79 -58 7 7 13 -3 13 -21 0 -42 -52 -65 -85 -38 -14 11 -46 16 -72 12 -41 -6 -46 -1 -36 38 7 25 13 56 13 70 0 14 22 25 49 25 35 0 46 -9 39 -28z m-194 -43 c35 -35 33 -39 -27 -57 -48 -15 -77 14 -59 59 14 38 47 37 86 -2z m606 4 c0 -43 -22 -53 -65 -30 -33 17 -35 25 -13 39 41 26 78 22 78 -9z m-470 -152 c14 -46 -23 -128 -51 -110 -34 21 -15 149 22 149 9 0 22 -18 29 -39z"/>
</g>
</svg>
