<?xml version="1.0" standalone="no"?>
<!DOCTYPE svg PUBLIC "-//W3C//DTD SVG 20010904//EN"
 "http://www.w3.org/TR/2001/REC-SVG-20010904/DTD/svg10.dtd">
<svg version="1.0" xmlns="http://www.w3.org/2000/svg"
 width="450.000000pt" height="286.000000pt" viewBox="0 0 450.000000 286.000000"
 preserveAspectRatio="xMidYMid meet">
<metadata>
Created by potrace 1.10, written by Peter Selinger 2001-2011
</metadata>
<g xmlns="http://www.w3.org/2000/svg" transform="translate(0.000000,286.000000) scale(0.050000,-0.050000)" fill="#000000" stroke="none">
<path d="M3183 5320 c-96 -41 -165 -106 -214 -201 -32 -65 -58 -94 -77 -87 -43 17 -183 -64 -233 -133 -80 -113 -65 -206 52 -318 97 -93 113 -152 58 -218 -3 -4 -78 26 -165 65 -260 117 -484 75 -484 -91 0 -45 54 -157 76 -157 7 -1 35 -17 60 -37 l47 -35 -82 -82 c-216 -216 -36 -304 354 -174 80 26 150 48 154 48 5 0 -4 -25 -20 -55 -16 -30 -29 -71 -29 -90 0 -20 -16 -83 -37 -140 -21 -61 -33 -136 -27 -180 6 -56 1 -75 -20 -75 -16 0 -275 -23 -577 -51 -302 -28 -569 -48 -595 -43 -68 13 -128 -81 -115 -180 5 -42 14 -127 20 -188 l11 -113 -85 -57 c-118 -80 -175 -142 -219 -242 -25 -56 -51 -86 -74 -86 -107 0 -227 -312 -183 -476 52 -192 334 -372 583 -373 81 -1 144 -11 165 -28 40 -34 111 -9 234 80 86 63 119 71 119 30 0 -53 296 -248 426 -280 104 -26 69 -87 -56 -97 -224 -19 -269 -296 -48 -296 20 0 46 -17 56 -37 67 -125 320 -138 406 -22 24 32 52 59 63 59 11 0 41 20 67 43 35 34 46 37 46 14 0 -48 67 -97 132 -97 47 0 64 -12 82 -59 41 -110 212 -101 342 18 37 34 82 61 101 61 156 0 82 240 -87 282 -74 19 -148 106 -106 126 87 40 233 76 327 80 127 5 97 -9 717 320 120 64 175 101 288 194 21 18 21 30 -4 68 -30 46 -28 50 68 120 107 79 128 139 68 200 -30 29 -27 38 41 105 166 167 69 236 -208 147 -301 -97 -332 -99 -350 -29 -27 114 -115 209 -376 404 -455 342 -439 304 -333 771 150 661 174 732 245 732 84 0 179 125 194 255 18 156 3 184 -138 265 -115 66 -122 74 -119 141 3 99 -33 154 -119 180 -104 31 -365 43 -422 19z m302 -129 c41 -7 76 -19 76 -27 1 -8 5 -46 9 -86 6 -62 -1 -79 -53 -117 -165 -122 -162 -385 5 -472 67 -34 65 -29 37 -103 -12 -31 -58 -213 -102 -406 -148 -642 -141 -598 -108 -657 16 -29 43 -80 59 -113 35 -73 97 -133 285 -273 475 -356 520 -455 358 -791 -152 -316 -414 -546 -736 -646 -147 -46 -156 -41 -87 41 81 96 60 179 -45 179 l-50 0 44 46 c50 54 55 99 14 134 -36 29 -233 8 -256 -27 -10 -17 -14 -16 -15 2 0 14 -20 26 -45 27 -25 1 0 14 55 28 136 34 325 107 410 158 39 23 106 60 149 82 106 53 405 350 422 419 34 132 -62 196 -118 79 -99 -207 -378 -412 -839 -615 -75 -33 -75 -33 -53 9 12 23 17 63 10 89 -6 27 -3 127 8 223 31 277 35 940 6 969 -15 15 -68 22 -135 19 -60 -3 -110 2 -110 9 0 82 151 585 183 610 24 18 40 57 41 95 2 64 25 86 41 39 5 -14 10 17 11 68 2 67 -6 97 -28 105 -66 25 8 202 74 181 80 -25 204 129 214 265 8 118 8 120 -68 183 l-77 63 38 71 c59 109 173 175 271 158 17 -3 64 -11 105 -18z m-487 -313 c96 -46 104 -111 25 -218 -38 -51 -163 -83 -163 -41 0 11 9 21 19 21 35 0 68 164 45 225 -11 30 -18 55 -16 55 2 0 43 -19 90 -42z m780 7 c62 -35 96 -185 42 -185 -11 0 -20 17 -20 37 0 20 -22 47 -49 59 -59 27 -171 -62 -171 -136 0 -26 -10 -40 -25 -35 -46 17 -19 178 40 240 61 64 99 68 183 20z m-1149 -606 c128 -48 130 -62 7 -70 -148 -10 -296 48 -296 115 0 30 150 7 289 -45z m239 -166 c-16 -43 -548 -211 -548 -174 0 20 69 46 240 91 162 43 245 72 269 93 29 26 51 20 39 -10z m-48 -1381 c0 -325 -7 -474 -22 -483 -23 -14 -14 -143 13 -215 11 -29 0 -34 -77 -34 -60 0 -93 -10 -101 -29 -9 -25 -73 -29 -376 -28 -255 2 -368 -5 -373 -20 -14 -42 -44 -24 -44 26 0 30 -23 66 -61 96 l-61 47 53 95 c101 179 21 269 -164 184 -62 -28 -115 -51 -119 -51 -5 0 -8 174 -8 387 l0 388 96 13 c53 7 150 17 215 22 65 6 164 15 219 22 55 6 167 15 249 21 82 5 152 11 154 13 2 2 94 6 205 10 l202 5 0 -469z m-1488 -312 c-1 -131 -9 -180 -27 -180 -39 0 -69 -95 -44 -141 28 -53 43 -50 192 33 165 93 187 70 50 -53 -160 -143 -109 -280 66 -177 40 24 79 36 87 28 8 -8 -3 -25 -24 -37 -86 -51 -114 -92 -92 -133 24 -44 99 -53 136 -16 19 19 24 19 24 -1 0 -13 -16 -29 -35 -35 -19 -6 -50 -19 -68 -29 -22 -11 -41 -8 -56 10 -16 19 -57 23 -151 16 -258 -21 -505 146 -485 327 12 107 61 176 55 78 -8 -116 0 -145 40 -156 53 -14 60 1 70 157 10 155 81 327 175 424 87 90 90 87 87 -115z m3208 -20 c0 -12 -22 -31 -50 -44 -69 -31 -68 -116 2 -159 l53 -31 -133 -87 c-130 -86 -156 -127 -108 -175 13 -13 19 -26 15 -29 -5 -4 -67 -36 -139 -72 -71 -36 -170 -87 -220 -114 -128 -68 -142 -60 -48 26 105 97 283 403 337 580 8 28 30 46 57 46 24 1 80 19 124 39 95 44 110 47 110 20z m-1830 -579 c11 -9 56 -22 100 -30 142 -26 124 -41 -64 -51 -414 -22 -1008 41 -744 80 113 17 687 17 708 1z m-138 -212 c146 4 163 0 180 -37 20 -46 94 -54 236 -25 l78 16 -53 -63 c-29 -35 -53 -71 -53 -82 0 -56 -519 34 -705 122 -164 78 -160 97 19 79 75 -8 209 -12 298 -10z m656 -354 c-15 -111 25 -172 85 -134 49 30 147 10 147 -30 0 -37 -54 -47 -135 -26 -91 24 -157 -51 -85 -95 29 -18 5 -50 -37 -50 -29 0 -36 19 -37 115 -1 63 -11 149 -22 191 -19 70 -16 78 23 94 69 28 73 24 61 -65z m-660 28 c6 -10 3 -44 -6 -77 -25 -88 6 -132 82 -115 45 10 57 7 46 -11 -10 -17 -45 -20 -113 -12 -102 14 -139 -38 -73 -104 19 -19 17 -24 -8 -24 -104 0 -124 76 -56 210 22 43 40 95 40 114 0 37 68 51 88 19z m298 -44 l104 -1 -56 -30 c-31 -17 -65 -54 -77 -84 l-21 -54 -30 45 c-18 25 -51 45 -78 45 -40 0 -48 10 -48 60 0 55 3 58 51 40 29 -11 98 -20 155 -21z m-570 -76 c34 -22 -9 -60 -75 -68 -63 -7 -73 33 -17 60 57 28 60 28 92 8z m732 -55 c48 -19 38 -42 -23 -54 -67 -13 -87 -2 -72 37 12 31 44 37 95 17z"/>
<path d="M7297 5046 c-16 -19 -29 -19 -58 -1 -74 46 -79 3 -81 -616 -2 -421 -10 -629 -28 -699 -37 -142 -15 -152 210 -98 88 21 201 29 350 25 251 -7 336 30 255 111 -8 9 -15 305 -15 659 l0 643 -307 0 c-214 0 -312 -7 -326 -24z m496 -81 c24 -15 34 -325 29 -907 l-2 -292 -245 -11 c-135 -6 -261 -18 -280 -25 -41 -17 -46 925 -5 955 11 8 79 15 150 15 219 1 337 41 300 100 -15 24 -67 30 -244 32 -159 1 -225 8 -224 25 1 13 3 40 5 62 2 29 21 40 78 46 139 15 415 15 438 0z"/>
<path d="M7389 4571 c-113 -113 -28 -302 133 -298 167 4 198 171 54 291 -82 68 -124 70 -187 7z"/>
<path d="M7490 4204 c-134 -6 -183 -42 -149 -107 42 -77 379 -39 379 44 0 63 -34 73 -230 63z"/>
<path d="M7350 3982 c-22 -71 23 -122 106 -122 100 0 214 59 214 110 0 61 -300 72 -320 12z"/>
<path d="M6263 5034 c-15 -19 -22 -208 -23 -596 0 -312 -11 -638 -23 -724 -30 -210 -32 -209 247 -168 124 18 262 38 306 43 222 29 262 38 284 66 17 21 18 42 5 67 -23 42 -30 704 -8 739 8 13 3 31 -12 39 -30 19 -39 369 -13 473 21 82 9 84 -408 86 -256 1 -338 -5 -355 -25z m617 -155 c0 -76 -2 -79 -43 -58 -25 14 -130 22 -260 20 l-217 -2 0 60 0 61 260 0 260 0 0 -81z m9 -254 c11 -92 46 -881 39 -900 -5 -16 -191 -37 -200 -22 -6 9 -28 8 -50 -4 -21 -11 -47 -16 -57 -10 -10 7 -23 5 -28 -4 -5 -9 -70 -18 -144 -22 -133 -6 -134 -5 -119 41 9 25 18 222 21 436 4 215 7 431 8 481 l1 91 234 4 c129 3 238 10 243 15 26 26 39 -1 52 -106z"/>
<path d="M6400 4561 c-16 -30 -15 -53 3 -86 14 -25 22 -73 20 -107 -8 -88 36 -118 126 -88 39 13 71 35 71 50 0 62 -26 90 -85 90 -88 0 -56 20 58 37 91 13 97 17 97 73 l0 60 -134 6 c-117 5 -136 1 -156 -35z"/>
<path d="M6439 4191 c-24 -24 -24 -92 0 -129 22 -36 345 5 381 47 20 25 8 90 -17 92 -120 11 -349 5 -364 -10z"/>
<path d="M5329 5021 c-70 -29 -103 -81 -64 -103 19 -11 29 -36 25 -60 -8 -41 -10 -171 -9 -568 1 -110 0 -257 -1 -326 0 -69 4 -135 11 -146 7 -11 1 -65 -14 -121 -37 -146 -11 -161 263 -149 115 5 233 15 260 21 28 7 117 21 198 31 82 11 153 24 159 30 5 6 12 303 14 660 l5 650 -53 11 c-29 7 -121 29 -204 50 -158 41 -510 52 -590 20z m488 -109 c62 -15 138 -33 168 -40 30 -7 55 -24 55 -38 0 -24 -48 -25 -555 -15 -59 1 -65 7 -65 61 l0 60 142 0 c78 0 193 -13 255 -28z m230 -524 c-1 -164 -6 -380 -10 -480 l-7 -182 -147 -25 c-239 -40 -414 -46 -440 -14 -16 19 -21 173 -18 505 l5 478 118 6 c103 5 116 2 104 -28 -11 -29 -9 -30 20 -7 27 23 297 60 358 49 12 -2 19 -116 17 -302z"/>
<path d="M5615 4544 c-161 -6 -169 -11 -155 -104 7 -49 30 -52 224 -31 216 24 241 35 218 96 -18 48 -24 49 -287 39z"/>
<path d="M5569 4363 c-60 -11 -75 -35 -60 -94 20 -81 311 -52 311 31 0 71 -87 93 -251 63z"/>
<path d="M5540 4121 c0 -12 11 -21 25 -22 14 0 0 -14 -30 -30 -30 -17 -55 -38 -55 -47 0 -19 121 -48 137 -32 5 5 -5 10 -24 10 -18 0 -33 9 -33 20 0 11 21 20 48 20 49 0 108 51 85 74 -23 22 -153 28 -153 7z"/>
<path d="M5495 3866 c-19 -5 -35 -18 -35 -30 0 -25 119 -5 148 24 21 21 -45 24 -113 6z"/>
<path d="M7067 3450 c-86 -36 -140 -136 -194 -353 -25 -103 -54 -185 -64 -182 -33 8 -33 166 0 235 91 193 -125 234 -433 83 -65 -32 -101 -40 -115 -26 -45 45 -71 -28 -74 -203 -2 -96 -5 -196 -7 -223 -5 -67 53 -106 130 -87 33 9 155 16 270 17 255 1 260 1 260 39 0 52 89 33 151 -32 l59 -62 170 11 c393 27 509 140 292 289 -63 43 -67 52 -78 202 -21 271 -158 380 -367 292z m188 -107 c38 -23 65 -137 65 -269 0 -103 7 -124 60 -177 75 -75 75 -71 -15 -96 -215 -60 -425 30 -425 181 0 42 9 81 20 88 11 7 30 53 43 102 40 160 151 236 252 171z m-566 -171 c-26 -40 -28 -72 -12 -185 22 -167 42 -151 -175 -135 l-182 14 0 82 c0 45 -6 100 -12 123 -9 36 9 47 146 94 212 71 279 73 235 7z"/>
<path d="M5395 3293 c-46 -36 -44 -89 7 -217 23 -58 55 -151 72 -206 56 -194 66 -207 135 -188 33 10 88 18 121 18 84 0 150 51 150 114 0 51 -2 52 -115 40 -144 -15 -148 -12 -212 145 -62 155 -82 138 157 143 l200 4 10 -202 c10 -205 31 -260 89 -237 41 15 46 485 6 538 -20 27 -71 35 -255 41 -126 5 -252 14 -280 21 -30 8 -64 3 -85 -14z"/>
<path d="M6338 2628 c-37 -45 3 -64 168 -80 l135 -13 -5 -183 -6 -182 -150 -11 c-246 -18 -248 -16 -233 224 14 204 2 257 -57 257 -107 0 -90 -498 21 -608 50 -50 426 -26 522 34 19 11 22 546 3 565 -29 28 -373 26 -398 -3z"/>
<path d="M6900 2590 c-32 -39 -12 -482 24 -525 28 -33 480 -29 514 5 10 11 25 79 32 150 6 72 21 166 33 209 28 105 5 119 -235 151 -297 40 -325 -60 -30 -107 l143 -22 -13 -121 c-17 -158 -8 -150 -187 -150 l-157 0 -13 95 c-7 52 -14 140 -15 195 -4 137 -42 185 -96 120z"/>
<path d="M5312 2543 c-26 -42 111 -478 179 -571 14 -19 51 -38 82 -42 31 -4 91 -12 133 -18 41 -6 84 -16 96 -23 102 -63 158 112 67 212 -32 35 -31 41 7 103 137 225 107 305 -120 322 -91 7 -225 19 -298 26 -90 9 -137 6 -146 -9z m349 -148 c156 -3 163 -12 96 -125 -31 -53 -39 -92 -31 -151 23 -172 -142 -77 -233 134 -64 148 -66 174 -12 157 22 -7 103 -14 180 -15z"/>
</g>
</svg>
