<?xml version="1.0" encoding="UTF-8"?>
<svg width="44px" height="51px" viewBox="0 0 44 51" version="1.1" xmlns="http://www.w3.org/2000/svg" xmlns:xlink="http://www.w3.org/1999/xlink">
    <!-- Generator: Sketch 48.2 (47327) - http://www.bohemiancoding.com/sketch -->
    <title>Reverse alien</title>
    <desc>Created with Sketch.</desc>
    <defs>
        <circle id="path-1" cx="49" cy="42" r="1"></circle>
        <circle id="path-2" cx="62" cy="46" r="1"></circle>
    </defs>
    <g id="Reverse-alien" stroke="none" stroke-width="1" fill="none" fill-rule="evenodd" transform="translate(-28.000000, -25.000000)">
        <path d="M29.0895933,62.8356661 C33.2995688,50.710017 33.6753837,47.1000059 40.6623875,37.3270857 C63.2554925,5.72547 84.8039889,47.7971446 59.3300586,71.6518633 C50.4423562,79.9746324 58.7254171,69.3846393 53.890028,67.7755702 C51.2477497,66.896301 48.8445743,72.1303271 46.2425132,71.1383457 C44.26707,70.3852493 47.0111677,66.6959359 46.0797266,64.7980562 C45.6485886,63.9195808 44.0588667,64.4775115 43.1441425,64.8251873 C41.4713283,65.461004 40.0776059,68.6262372 38.5782264,67.6492873 C36.5089311,66.3009976 38.684675,61.7562867 36.5438878,60.5246626 C34.8469464,59.548389 32.7574155,62.8104397 31.0895933,63.8356661 C29.4217711,64.8608926 28.7385856,63.846645 29.0895933,62.8356661 Z" id="Path" stroke="#7ED321" fill="#19171A"></path>
        <path d="M50.75,50.5 L51.25,50.5 C51.6642136,50.5 52,50.8357864 52,51.25 L52,51.25 C52,51.6642136 51.6642136,52 51.25,52 L50.75,52 C50.3357864,52 50,51.6642136 50,51.25 L50,51.25 C50,50.8357864 50.3357864,50.5 50.75,50.5 Z" id="Rectangle" fill="#D8D8D8"></path>
        <circle id="Oval" stroke="#7ED321" stroke-width="0.5" cx="61.5" cy="45.5" r="2.75"></circle>
        <circle id="Oval" stroke="#7ED321" stroke-width="0.5" cx="49.5" cy="42.5" r="2.75"></circle>
        <g id="Oval">
            <use fill="#9DFF32" fill-rule="evenodd" xlink:href="#path-1"></use>
            <circle stroke="#7ED321" stroke-width="0.5" cx="49" cy="42" r="1.25"></circle>
        </g>
        <g id="Oval">
            <use fill="#9DFF32" fill-rule="evenodd" xlink:href="#path-2"></use>
            <circle stroke="#7ED321" stroke-width="0.5" cx="62" cy="46" r="1.25"></circle>
        </g>
        <path d="M46.75,50.5 L47.25,50.5 C47.6642136,50.5 48,50.8357864 48,51.25 L48,51.25 C48,51.6642136 47.6642136,52 47.25,52 L46.75,52 C46.3357864,52 46,51.6642136 46,51.25 L46,51.25 C46,50.8357864 46.3357864,50.5 46.75,50.5 Z" id="Rectangle" fill="#D8D8D8"></path>
        <path d="M54.25,51 L54.75,51 C55.1642136,51 55.5,51.3357864 55.5,51.75 L55.5,51.75 C55.5,52.1642136 55.1642136,52.5 54.75,52.5 L54.25,52.5 C53.8357864,52.5 53.5,52.1642136 53.5,51.75 L53.5,51.75 C53.5,51.3357864 53.8357864,51 54.25,51 Z" id="Rectangle" fill="#D8D8D8"></path>
        <path d="M58.75,51.5 L59.25,51.5 C59.6642136,51.5 60,51.8357864 60,52.25 L60,52.25 C60,52.6642136 59.6642136,53 59.25,53 L58.75,53 C58.3357864,53 58,52.6642136 58,52.25 L58,52.25 C58,51.8357864 58.3357864,51.5 58.75,51.5 Z" id="Rectangle" fill="#D8D8D8"></path>
        <path d="M45.2296723,50.317802 C50.6992104,51.0011682 56.3078158,50.9647195 61.6382866,52.3679004 C62.0921353,52.4873705 62.0715421,61.798258 49.4193937,56.2859496 C42.3394332,53.2013409 41.9019803,57.3898442 45.0933469,50.7675452 L45.2296723,50.317802 Z" id="Path-2" stroke="#7ED321"></path>
        <path d="M47.1346308,52.8920156 C42.5204815,67.5749628 70.0866507,57.3985841 47.7677711,52.8234742 L47.1346308,52.8920156 Z" id="Path-3" stroke="#FE137A" fill="#FE137A" transform="translate(51.603077, 56.679219) rotate(-10.186324) translate(-51.603077, -56.679219) "></path>
    </g>
</svg>