<?xml version="1.0" standalone="no"?>
<!DOCTYPE svg PUBLIC "-//W3C//DTD SVG 20010904//EN"
 "http://www.w3.org/TR/2001/REC-SVG-20010904/DTD/svg10.dtd">
<svg version="1.0" xmlns="http://www.w3.org/2000/svg"
 width="300.000000pt" height="186.000000pt" viewBox="0 0 300.000000 186.000000"
 preserveAspectRatio="xMidYMid meet">
<metadata>
Created by potrace 1.10, written by Peter Selinger 2001-2011
</metadata>
<g transform="translate(0.000000,186.000000) scale(0.050000,-0.050000)"
fill="#000000" stroke="none">
<path d="M1948 3501 c-39 -16 -136 -117 -151 -158 -4 -10 -52 -23 -107 -30
-142 -17 -231 -164 -148 -247 15 -15 -3 -19 -68 -11 -143 16 -208 -122 -106
-225 l48 -48 -48 -31 c-207 -136 -95 -335 120 -214 61 35 115 63 120 63 5 0
-23 -94 -61 -210 -39 -115 -78 -210 -86 -210 -29 0 -249 -139 -338 -213 -73
-61 -102 -72 -190 -74 l-103 -2 -6 214 c-5 191 -10 217 -45 236 -75 40 -121 6
-107 -78 11 -67 6 -77 -43 -100 -74 -33 -56 -303 20 -303 38 0 49 -67 42 -260
-5 -110 1 -175 15 -184 15 -9 12 -25 -12 -51 -79 -88 -33 -137 86 -95 114 40
109 43 138 -69 35 -137 119 -246 230 -298 91 -43 121 -83 61 -83 -120 0 -172
-141 -66 -178 35 -12 58 -28 51 -35 -18 -18 23 -87 52 -87 38 0 254 143 254
168 0 13 -14 43 -31 68 -31 44 -30 44 64 44 84 0 91 -3 58 -27 -45 -33 -29
-124 24 -141 20 -7 44 -32 55 -57 34 -78 210 -51 210 32 0 15 23 37 50 49 28
13 51 30 52 39 8 84 5 140 -7 132 -8 -5 -34 2 -57 14 -52 28 -30 47 86 80 41
11 113 49 160 85 47 36 149 100 226 143 171 95 412 255 447 298 33 39 10 80
-38 67 -28 -7 -40 5 -50 53 -8 35 -24 69 -37 77 -14 10 -8 25 21 45 73 51 72
123 -2 122 -56 -1 -61 -7 -60 -66 0 -36 -6 -65 -15 -65 -9 0 -16 24 -16 53 0
48 -5 51 -64 39 -51 -10 -60 -8 -40 12 13 13 24 48 24 78 0 30 14 59 31 66 24
9 26 20 9 52 -27 51 -59 50 -180 -2 l-98 -42 -84 67 c-200 161 -201 163 -147
421 72 347 107 445 168 472 117 52 149 304 39 304 -15 0 -19 21 -11 58 38 190
-145 321 -339 243z m212 -101 c58 -58 54 -160 -5 -161 -216 -6 -275 -202 -102
-338 l47 -37 -32 -127 c-18 -70 -53 -223 -77 -341 l-44 -214 54 -88 c31 -50
81 -98 116 -113 143 -59 46 -129 -132 -95 -158 30 -423 -259 -425 -463 -2
-348 417 -382 888 -72 85 56 151 86 170 78 43 -16 -14 -62 -215 -172 -84 -46
-202 -117 -263 -158 -155 -106 -393 -183 -597 -195 -171 -9 -184 -6 -403 103
-174 86 -215 543 -70 773 56 89 180 186 348 272 140 72 124 48 230 368 49 149
95 286 103 305 23 60 -46 41 -200 -55 -200 -125 -286 -120 -141 7 60 53 104
69 250 90 17 2 29 23 29 46 -1 29 8 39 32 32 72 -18 64 49 -11 91 -37 21 -36
23 17 23 115 2 213 166 154 260 -72 115 181 279 279 181z m-349 -202 c18 -58
-25 -132 -86 -147 -68 -18 -69 -12 -19 94 48 101 84 119 105 53z m459 -116 c0
-55 -87 -130 -139 -119 -31 6 -31 12 7 55 23 26 42 65 42 86 0 29 12 37 45 32
32 -4 45 -19 45 -54z m-670 -162 l70 -59 -126 0 c-93 -1 -128 7 -137 29 -38
101 86 120 193 30z m-910 -921 c5 -58 1 -97 -8 -87 -23 24 -45 179 -28 195 21
22 28 2 36 -108z m1670 -160 c-27 -22 -75 -55 -105 -74 -71 -44 -76 -115 -7
-97 33 8 52 2 59 -19 14 -34 93 -23 167 23 65 41 83 33 29 -13 -71 -59 -44
-102 48 -76 116 32 100 12 -87 -108 -371 -239 -634 -307 -753 -196 -160 151
49 519 298 522 55 1 151 18 211 38 157 53 206 53 140 0z m-1380 -30 c0 -6 -14
-38 -31 -70 -16 -33 -37 -124 -45 -202 -15 -151 -53 -203 -68 -96 -6 41 0 66
17 73 31 12 36 78 8 95 -10 7 -13 42 -7 79 6 39 1 73 -12 81 -45 28 -19 51 58
51 44 0 80 -5 80 -11z m888 -1053 c20 4 31 -2 24 -12 -28 -46 -142 -15 -148
40 -9 74 61 89 77 17 7 -36 21 -49 47 -45z m-518 44 c-6 -9 4 -31 22 -49 41
-41 31 -51 -27 -29 -42 16 -61 76 -32 104 17 18 50 -5 37 -26z m447 -182 c-57
-36 -83 8 -33 58 19 19 28 17 42 -8 13 -22 10 -38 -9 -50z"/>
<path d="M4098 3074 c-17 -13 -43 -45 -56 -70 -23 -43 -37 -46 -178 -43 -241
5 -232 17 -217 -279 l12 -252 -87 -95 c-181 -196 -227 -30 -101 362 65 199 64
200 -158 270 -153 49 -173 51 -245 26 l-78 -27 0 -112 0 -112 -40 50 c-68 85
-133 35 -115 -87 7 -51 19 -65 54 -65 86 0 111 -57 111 -255 0 -107 9 -188 21
-196 48 -29 140 -29 210 0 110 46 146 39 191 -38 74 -125 196 -102 170 33 -7
35 2 69 26 99 37 45 37 45 28 -54 -4 -54 -1 -166 8 -249 l16 -149 170 8 c241
12 265 11 315 -6 28 -10 45 -8 45 6 0 11 -20 21 -43 21 -53 0 -39 18 23 30 85
16 120 67 109 157 -15 132 -24 693 -11 693 7 0 38 -24 70 -53 l57 -53 -8 -242
c-7 -233 -6 -242 33 -234 22 4 103 8 180 7 122 0 128 2 50 13 l-90 13 81 16
c47 9 103 7 135 -5 65 -25 59 -62 62 378 1 193 10 379 20 414 20 78 -18 93
-235 94 -181 0 -253 -66 -253 -232 l0 -103 -50 47 c-33 31 -46 60 -39 84 19
58 -8 113 -49 102 -27 -7 -43 7 -58 52 -24 68 -38 73 -86 36z m675 -267 c-7
-117 -13 -283 -13 -367 l0 -154 -105 -12 c-58 -7 -124 -18 -146 -25 -39 -11
-41 -4 -41 118 0 99 6 126 26 119 93 -36 118 130 26 171 -58 25 -60 31 -60
160 1 188 12 199 208 201 l118 2 -13 -213z m-1477 99 c134 -43 138 -53 88
-221 -22 -74 -46 -179 -54 -233 -12 -91 -15 -95 -47 -64 -31 31 -31 37 2 94
51 90 45 104 -36 89 -78 -14 -74 47 4 77 26 10 28 19 10 37 -17 17 -40 7 -93
-45 -88 -85 -92 -79 -101 129 l-8 171 63 0 c34 0 112 -15 172 -34z m661 -48
c-15 -23 -62 -54 -104 -68 -105 -36 -134 -112 -30 -79 45 14 34 -15 -40 -109
l-37 -48 -14 72 c-7 40 -8 118 0 173 l13 101 120 0 c117 0 119 -1 92 -42z
m207 4 c20 -28 27 -142 26 -463 l0 -426 -100 -26 c-55 -15 -155 -26 -222 -27
l-122 0 -12 115 c-11 110 -1 368 16 420 5 14 30 25 56 25 77 0 174 41 174 74
0 24 -15 28 -70 17 -105 -19 -86 23 25 55 102 30 116 56 41 76 -54 15 -22 33
74 42 79 8 98 76 21 76 -55 0 -65 18 -27 56 35 35 90 29 120 -14z m-993 -500
c-6 -9 17 -23 49 -29 79 -16 76 -45 -7 -72 -108 -36 -133 -14 -133 116 l0 113
51 -55 c28 -31 46 -63 40 -73z"/>
<path d="M4543 2899 c-65 -26 -43 -68 38 -72 75 -4 109 27 75 67 -24 30 -48
31 -113 5z"/>
<path d="M4555 2738 c-52 -30 -43 -53 26 -68 75 -17 132 20 97 63 -27 32 -74
34 -123 5z"/>
<path d="M3880 2402 c-67 -19 -80 -82 -16 -82 57 0 141 55 125 81 -13 21 -36
21 -109 1z"/>
<path d="M5065 2407 c-14 -6 -25 -20 -25 -31 0 -34 -157 -222 -246 -294 -216
-175 -314 -238 -354 -228 -61 16 -100 -29 -100 -116 0 -72 4 -78 56 -78 63 0
104 32 104 80 0 18 82 94 181 170 100 75 227 187 283 249 56 61 120 116 142
121 51 14 84 65 68 107 -12 32 -58 40 -109 20z"/>
<path d="M3051 2033 c-97 -97 -114 -276 -51 -523 59 -230 55 -290 -18 -290
-92 0 -172 -83 -225 -233 -54 -152 -106 -197 -226 -197 -104 0 -108 -43 -10
-99 47 -27 68 -53 63 -76 -5 -24 12 -44 53 -61 54 -23 57 -28 31 -63 -57 -78
-2 -147 68 -86 119 105 337 185 393 144 45 -34 137 -38 192 -8 30 16 39 14 39
-7 0 -40 66 -94 115 -94 47 0 165 157 165 220 0 21 9 43 20 50 24 15 7 50 -23
50 -12 0 -16 -13 -10 -30 13 -32 -17 -42 -36 -12 -6 10 -27 14 -48 9 -30 -8
-36 2 -35 62 2 57 10 71 42 71 50 1 186 65 244 116 111 97 184 264 116 264
-34 0 -40 62 -9 93 34 34 -33 79 -71 47 -35 -29 -37 -6 -10 80 11 36 17 40 18
14 1 -24 14 -35 37 -30 50 9 80 196 36 228 -17 12 -31 35 -31 51 0 39 -41 77
-83 77 -73 0 -97 -55 -97 -221 l0 -158 -117 -119 c-103 -105 -127 -120 -204
-126 -126 -9 -142 -76 -18 -76 111 0 205 48 290 146 l69 81 0 -56 c0 -47 7
-54 42 -45 36 10 40 5 29 -40 -9 -34 -4 -58 13 -68 46 -29 -94 -150 -221 -189
-125 -38 -283 -123 -283 -151 0 -27 18 -22 94 24 91 56 102 37 34 -56 -71 -97
-128 -145 -173 -146 -40 0 -47 32 -10 46 83 30 -26 55 -113 26 -52 -18 -104
-32 -118 -33 -13 0 -60 -17 -104 -38 -50 -24 -87 -31 -99 -20 -10 11 -36 19
-56 19 -23 0 -32 9 -23 23 8 14 -9 42 -42 69 l-57 45 74 35 c73 36 88 63 122
230 25 125 122 186 216 135 102 -55 112 67 31 402 -59 245 -30 461 62 461 52
0 92 -94 139 -332 23 -111 49 -223 60 -250 62 -158 91 -218 107 -218 41 0 36
68 -17 231 l-57 174 50 32 c176 113 238 265 115 279 -37 5 -55 18 -55 43 0 69
-57 94 -124 55 -59 -34 -61 -33 -99 16 -52 65 -142 67 -206 3z m349 -99 c0
-43 -59 -113 -59 -71 -1 47 20 97 41 97 10 0 18 -12 18 -26z m120 -106 c0 -18
-28 -58 -62 -90 -63 -59 -98 -73 -98 -40 0 10 -5 33 -12 50 -8 20 -2 32 17 32
16 0 45 18 65 40 44 48 90 52 90 8z m40 -1189 c0 -9 -20 -19 -45 -23 -32 -4
-45 -19 -44 -50 1 -24 -5 -39 -15 -34 -51 32 -16 141 44 132 33 -5 60 -16 60
-25z"/>
</g>
</svg>
