<?xml version="1.0" standalone="no"?>
<!DOCTYPE svg PUBLIC "-//W3C//DTD SVG 20010904//EN"
 "http://www.w3.org/TR/2001/REC-SVG-20010904/DTD/svg10.dtd">
<svg version="1.0" xmlns="http://www.w3.org/2000/svg"
 width="300.000000pt" height="354.000000pt" viewBox="0 0 300.000000 354.000000"
 preserveAspectRatio="xMidYMid meet">
<metadata>
Created by potrace 1.10, written by Peter Selinger 2001-2011
</metadata>
<g transform="translate(0.000000,354.000000) scale(0.050000,-0.050000)"
fill="#000000" stroke="none">
<path d="M4383 6420 c-146 -22 -246 -119 -304 -294 -34 -100 -51 -127 -86
-129 -23 -2 -77 -6 -119 -8 -297 -19 -409 -214 -278 -484 43 -91 42 -96 -18
-64 -165 88 -151 -153 18 -305 l82 -74 -74 -13 c-307 -54 -318 -191 -30 -391
51 -35 26 -208 -34 -240 -16 -8 -102 -49 -189 -89 -159 -74 -371 -247 -371
-302 0 -46 -22 -31 -142 101 -136 148 -213 173 -324 105 -35 -22 -132 -77
-214 -121 -322 -175 -496 -347 -750 -742 -192 -299 -200 -313 -299 -520 -52
-110 -116 -242 -141 -293 -113 -228 -165 -496 -169 -876 -1 -79 -5 -86 -30
-60 -26 25 -26 43 -3 131 40 151 24 166 -164 156 -271 -14 -334 -42 -333 -149
2 -74 10 -93 52 -113 119 -59 127 -96 33 -152 -55 -32 -91 -43 -99 -29 -13 21
-97 -123 -97 -168 0 -13 19 -64 43 -112 31 -65 36 -94 20 -110 -41 -41 -29
-155 16 -155 36 0 187 -217 177 -256 -24 -91 65 -135 186 -91 112 40 158 19
158 -74 0 -102 69 -166 109 -101 22 36 166 46 214 16 34 -21 73 -26 137 -16
50 8 117 7 150 -1 128 -32 467 -58 542 -42 43 10 114 10 158 2 150 -28 262
-20 313 22 26 22 43 41 37 42 -48 10 -420 21 -627 19 -239 -3 -453 25 -453 58
0 62 53 84 105 42 74 -58 264 -97 316 -64 21 13 56 35 78 48 29 18 50 19 85 2
68 -34 309 -72 338 -55 13 9 61 18 106 21 45 2 123 15 172 28 50 13 116 27
148 31 32 4 73 22 92 39 24 22 102 37 248 49 239 19 263 31 294 148 28 107 54
135 193 203 180 89 225 139 225 253 0 80 8 101 50 129 28 18 50 44 50 58 0 17
41 26 133 28 73 1 154 8 180 14 46 12 46 11 17 -45 -38 -73 -38 -136 0 -174
17 -17 30 -43 30 -58 0 -96 180 -113 280 -26 16 14 63 32 102 39 183 32 202
261 25 290 -125 20 -116 81 27 178 224 154 321 327 335 597 1 13 28 45 61 70
269 210 330 499 211 1000 -50 208 -213 558 -319 684 -37 45 -335 253 -362 253
-31 0 -10 371 43 776 19 148 27 168 74 193 253 131 286 460 60 603 -77 48 -77
49 -47 107 71 138 -10 398 -139 448 -58 22 -207 29 -308 13z m251 -122 c95
-35 126 -138 96 -316 -11 -70 -15 -73 -93 -73 -81 0 -126 -33 -188 -139 -19
-33 -26 -29 -64 37 -52 86 -123 98 -170 28 l-31 -45 -24 53 c-44 96 39 369
130 429 55 36 206 67 260 53 22 -6 60 -18 84 -27z m-542 -536 c53 -97 32 -179
-67 -261 -161 -133 -365 -10 -365 220 l0 62 58 -42 c112 -80 262 -29 262 89 0
68 56 34 112 -68z m694 39 c30 -2 134 -129 134 -164 0 -23 -23 -37 -75 -46
-106 -19 -139 -50 -166 -157 -13 -52 -32 -94 -43 -94 -104 0 -175 173 -128
314 54 163 76 184 176 164 47 -9 93 -17 102 -17z m-466 -114 c0 -17 12 -59 28
-94 15 -35 42 -106 61 -158 38 -107 104 -168 199 -186 l65 -12 -16 -114 c-8
-62 -21 -171 -28 -243 -6 -71 -19 -202 -28 -290 -10 -88 -16 -214 -14 -280 l3
-120 64 -1 c35 0 80 -16 101 -35 21 -19 45 -34 53 -34 139 0 405 -474 483
-860 98 -481 10 -712 -352 -928 -203 -120 -365 -116 -637 15 l-128 62 87 26
c154 44 178 121 48 153 -85 22 -53 49 34 29 135 -30 186 65 65 120 -28 13 -45
32 -38 43 7 12 19 17 27 12 56 -35 398 103 471 190 89 105 67 532 -27 513 -25
-5 -30 -30 -24 -132 13 -233 -7 -298 -112 -364 -121 -77 -145 -76 -134 6 4 36
18 140 30 231 24 186 8 236 -71 216 -34 -9 -43 -2 -42 30 2 34 -36 55 -223
128 -130 50 -256 113 -296 148 -39 34 -132 103 -208 153 -75 49 -148 103 -161
119 -32 39 -93 38 -116 -1 -15 -29 -19 -29 -43 0 -65 78 -129 20 -70 -65 39
-56 28 -55 -58 1 -37 25 -85 55 -106 67 -44 27 70 68 190 68 44 0 64 8 58 25
-13 39 -88 41 -189 7 -121 -41 -125 -32 -19 44 109 78 286 149 334 134 44 -14
64 20 97 160 l24 100 87 2 c77 2 391 126 391 155 0 87 -59 91 -223 13 -168
-79 -224 -77 -345 15 -207 158 -219 149 343 259 136 27 165 39 165 70 0 52
-49 65 -152 42 -139 -32 -305 36 -367 152 -33 61 -30 62 119 30 167 -36 353
-57 435 -50 14 1 25 20 25 42 0 38 -19 49 -75 41 -14 -1 -41 6 -60 17 -30 18
-30 21 -3 21 46 1 85 51 168 216 68 133 110 169 110 92z m-1541 -1666 c219
-228 222 -240 293 -931 18 -176 40 -419 49 -540 10 -121 26 -317 37 -435 37
-401 -130 -739 -423 -859 -19 -8 -35 -25 -35 -37 0 -13 -17 -16 -41 -9 -22 7
-52 5 -65 -5 -35 -28 -200 -65 -288 -65 -42 0 -146 -31 -236 -70 -197 -86
-203 -86 -238 -2 -39 94 -99 128 -252 143 -123 12 -400 62 -410 74 -3 3 -23
48 -46 100 -23 52 -52 95 -64 95 -73 0 -2 687 96 930 340 842 707 1330 1225
1630 257 148 237 149 398 -19z m946 -199 c221 -143 237 -171 100 -174 -52 0
-79 3 -60 7 60 14 39 56 -60 120 -88 57 -241 200 -195 182 11 -4 108 -65 215
-135z m-341 -34 c113 -84 239 -184 279 -222 90 -87 429 -196 676 -217 l165
-15 -12 -142 c-27 -334 -45 -356 -250 -305 -113 28 -152 -32 -69 -106 70 -64
67 -81 -14 -81 -105 0 -124 -93 -28 -137 69 -31 61 -56 -22 -72 -91 -17 -107
-59 -47 -124 185 -198 635 -292 850 -177 118 63 124 56 79 -85 -88 -280 -413
-504 -808 -557 -205 -27 -408 90 -366 211 54 154 -382 412 -465 275 -17 -28
-15 -42 8 -60 17 -13 30 -42 30 -64 0 -28 15 -42 50 -46 126 -17 89 -164 -41
-164 -63 0 -116 -51 -85 -82 29 -29 204 19 232 65 28 44 54 48 54 8 0 -44 43
-61 69 -26 27 37 83 -4 180 -132 l59 -78 -46 -37 c-70 -57 -170 -50 -199 13
-52 114 -107 -113 -59 -244 43 -119 -113 -212 -352 -210 -118 1 -180 -27 -163
-72 16 -42 -23 -65 -109 -63 -38 1 -57 6 -41 12 15 7 67 41 114 77 47 36 103
72 124 78 48 15 65 112 30 175 -36 65 -34 70 32 72 74 2 134 33 161 84 26 49
-10 54 -69 9 -45 -34 -118 -38 -173 -8 -77 41 -164 -31 -91 -75 120 -71 101
-204 -36 -257 -81 -31 -87 -30 -161 14 -42 24 -118 56 -168 70 -69 18 -79 25
-38 26 30 0 61 13 70 27 9 15 48 39 86 54 204 81 409 404 433 682 7 87 20 158
30 158 9 0 17 14 17 30 0 17 9 30 20 30 41 0 18 36 -30 48 -45 11 -50 23 -53
117 -1 58 -5 123 -8 145 -3 22 -10 108 -16 190 -6 83 -24 294 -40 470 -17 176
-35 381 -40 455 -6 74 -17 145 -24 157 -17 27 30 258 52 258 9 0 109 -69 223
-152z m276 -1881 c93 -61 108 -127 30 -127 -27 0 -50 9 -50 19 0 11 -32 51
-71 90 -89 90 -33 101 91 18z m-2910 -121 c87 -41 88 -102 4 -142 -66 -32
-180 13 -230 91 -51 79 97 112 226 51z m3810 -304 c0 -77 37 -103 126 -89 66
11 74 7 74 -30 0 -67 -75 -96 -122 -45 -28 29 -50 36 -80 25 -123 -45 -182 6
-108 93 28 33 50 70 50 82 0 12 14 22 30 22 20 0 30 -20 30 -58z m-3845 -22
c55 0 -68 -111 -154 -140 -83 -27 -150 -16 -136 24 11 34 244 159 252 136 3
-11 21 -20 38 -20z m249 -55 c5 -64 12 -74 51 -70 25 2 45 -4 45 -14 0 -10 5
-32 12 -49 24 -64 -216 -24 -280 45 -31 35 -30 41 22 100 79 90 142 85 150
-12z m2856 -151 c0 -106 -47 -155 -97 -104 -72 72 -64 138 17 152 39 7 72 14
75 15 3 2 5 -27 5 -63z m-3107 -30 c-6 -8 5 -17 23 -18 19 -2 84 -18 144 -35
61 -18 125 -28 144 -24 60 15 82 -138 23 -161 -50 -19 -213 31 -248 76 -47 61
-143 60 -158 -2 -20 -79 -126 -72 -142 10 -14 71 27 130 89 130 23 0 56 9 72
20 36 23 66 26 53 4z m536 -64 c29 -11 144 -28 256 -39 176 -16 210 -25 242
-64 53 -66 9 -70 -100 -8 -88 49 -95 50 -131 17 -36 -32 -37 -32 -24 1 12 31
2 35 -84 29 -82 -5 -99 -13 -104 -49 -17 -119 498 -196 689 -102 31 15 111 44
177 64 66 20 142 44 168 55 62 23 487 -64 513 -106 26 -42 -39 -118 -99 -116
-34 0 -51 6 -37 11 57 23 18 40 -92 40 -80 0 -146 14 -210 46 -109 52 -143 46
-159 -32 -6 -31 -37 -111 -68 -177 l-56 -120 -10 90 c-10 92 -44 122 -57 50
-11 -60 -37 -80 -71 -51 -17 13 -40 18 -52 11 -12 -7 -52 19 -90 58 -75 80
-100 88 -119 38 -9 -23 16 -62 82 -129 103 -105 93 -134 -38 -109 -121 23
-205 88 -167 130 18 19 32 60 32 91 l0 56 -40 -50 c-25 -32 -53 -48 -76 -42
-20 5 -49 -4 -63 -22 -33 -39 -75 -39 -149 0 -41 21 -65 24 -80 9 -34 -34 12
-86 105 -121 111 -41 79 -111 -41 -89 -115 22 -165 188 -135 460 9 88 17 167
18 175 1 19 8 19 70 -5z m-255 -257 c73 6 84 2 92 -38 5 -25 -2 -46 -14 -46
-12 -1 -66 -22 -121 -48 -72 -34 -112 -42 -150 -30 -28 9 -73 15 -101 13 -45
-4 -50 3 -47 65 5 105 68 143 174 106 46 -15 121 -25 167 -22z m2401 -83 c-23
-93 -28 -95 -277 -116 -195 -17 -228 40 -40 68 53 8 108 33 135 59 40 40 72
52 180 66 17 2 17 -18 2 -77z m-1002 30 c40 -16 94 -30 122 -30 38 0 45 -6 29
-25 -11 -14 -19 -60 -18 -102 3 -98 -41 -133 -165 -133 -190 1 -219 35 -134
160 26 39 54 90 62 115 16 53 13 53 104 15z m459 -128 l48 -38 -46 -29 c-25
-17 -91 -36 -146 -44 l-101 -14 9 67 c15 104 139 135 236 58z m-1780 -57 c6
-19 24 -64 39 -100 26 -60 26 -65 -10 -65 -21 0 -52 -5 -68 -12 -22 -8 -41 11
-66 65 -19 42 -38 83 -42 90 -6 12 80 51 121 55 8 1 20 -14 26 -33z"/>
<path d="M3483 3514 c-12 -15 -27 -129 -33 -255 -13 -246 -18 -317 -38 -519
-6 -71 -16 -170 -20 -220 -5 -49 -15 -128 -23 -175 l-14 -85 100 0 c107 0 164
-30 355 -189 245 -203 282 -216 426 -143 103 52 151 119 141 194 -11 73 -74
73 -99 1 -14 -39 -48 -74 -96 -98 l-76 -37 -68 50 c-37 28 -117 93 -178 144
-159 134 -239 178 -328 178 l-77 0 14 125 c8 69 18 175 22 235 14 219 49 632
62 725 13 99 -19 130 -70 69z"/>
<path d="M3683 3427 c-16 -17 -33 -88 -38 -159 -6 -71 -18 -134 -28 -140 -9
-6 -17 -62 -17 -126 0 -64 -13 -160 -30 -214 -56 -185 -30 -388 49 -388 9 0
17 84 16 187 0 103 5 197 12 208 7 12 18 87 25 168 7 81 24 210 40 287 42 209
35 250 -29 177z"/>
<path d="M3328 1232 c-29 -75 78 -151 144 -103 46 34 23 91 -31 77 -26 -7 -45
1 -53 22 -15 40 -46 42 -60 4z"/>
</g>
</svg>
