<?xml version="1.0" standalone="no"?>
<!DOCTYPE svg PUBLIC "-//W3C//DTD SVG 20010904//EN"
 "http://www.w3.org/TR/2001/REC-SVG-20010904/DTD/svg10.dtd">
<svg version="1.0" xmlns="http://www.w3.org/2000/svg"
 width="300.000000pt" height="253.000000pt" viewBox="0 0 300.000000 253.000000"
 preserveAspectRatio="xMidYMid meet">
<metadata>
Created by potrace 1.10, written by Peter Selinger 2001-2011
</metadata>
<g xmlns="http://www.w3.org/2000/svg" transform="translate(0.000000,253.000000) scale(0.050000,-0.050000)" fill="#000000" stroke="none">
<path d="M1353 4983 c-38 -15 -72 -449 -37 -471 73 -45 1034 -32 1048 15 19 61 -15 380 -42 389 -23 8 -25 -22 -13 -171 l14 -180 -67 -12 c-70 -14 -868 0 -892 15 -8 4 -11 89 -8 188 l7 180 72 -20 c93 -25 698 -10 765 19 39 17 -39 23 -346 24 -259 1 -392 8 -384 21 14 23 -61 25 -117 3z"/>
<path d="M530 4937 c-110 -10 -234 -14 -275 -9 -82 9 -80 11 -76 -128 7 -207 95 -383 175 -350 20 8 214 21 432 28 477 18 458 7 434 235 -18 176 -44 247 -91 247 -36 0 -37 -24 -4 -57 25 -24 78 -324 61 -343 -5 -5 -181 -17 -392 -26 -211 -9 -406 -18 -434 -20 -63 -5 -110 87 -128 250 -10 93 -7 113 16 104 15 -6 98 -1 185 10 86 12 225 22 307 24 209 3 329 20 296 41 -32 20 -237 18 -506 -6z"/>
<path d="M2520 4933 c0 -17 10 -37 22 -44 32 -20 719 -10 756 11 44 26 20 28 -378 29 -181 1 -346 9 -365 18 -26 13 -35 9 -35 -14z"/>
<path d="M2439 4785 c-14 -329 -12 -331 264 -354 479 -39 667 -44 689 -17 27 31 57 367 38 426 -24 77 -50 39 -50 -75 0 -63 -6 -161 -13 -218 l-12 -104 -103 8 c-56 4 -244 19 -417 31 -378 28 -369 22 -341 234 21 164 17 204 -24 204 -17 0 -27 -43 -31 -135z"/>
<path d="M697 4871 c-6 -7 -78 -13 -159 -14 -148 -2 -218 -21 -218 -58 0 -12 42 -16 105 -10 83 8 91 7 39 -7 -77 -20 -75 -19 -93 -77 -13 -42 -8 -45 78 -45 68 0 91 -8 91 -30 0 -34 74 -40 120 -9 44 29 -28 79 -114 79 -75 0 -89 34 -21 49 234 53 338 84 341 101 4 21 -149 40 -169 21z"/>
<path d="M3542 4677 c-2 -251 14 -277 167 -277 56 0 174 -8 262 -19 87 -10 222 -21 299 -25 l140 -6 4 100 c3 55 19 143 36 196 40 121 19 154 -95 154 -45 0 -90 12 -103 28 -16 20 -109 31 -366 41 l-343 13 -1 -205z m598 121 c316 -26 295 -15 261 -134 -15 -52 -32 -133 -37 -181 l-8 -88 -93 12 c-51 6 -220 22 -376 35 l-283 24 -11 68 c-6 37 -1 122 11 188 l21 121 122 -12 c68 -6 245 -21 393 -33z"/>
<path d="M3711 4725 c-7 -18 19 -26 95 -27 96 -2 99 -3 37 -18 -111 -26 -140 -100 -39 -100 34 0 37 -5 16 -30 -35 -42 -16 -55 45 -32 81 31 85 61 12 87 l-67 24 60 13 c33 7 98 14 144 16 76 2 126 29 100 55 -26 26 -393 37 -403 12z"/>
<path d="M1531 4844 c-25 -25 20 -44 105 -46 l94 -2 -85 -19 c-91 -21 -119 -76 -40 -79 25 0 34 -6 20 -11 -30 -13 -33 -67 -4 -67 72 0 132 85 74 105 -14 5 22 16 79 24 105 15 178 62 123 79 -40 13 -355 27 -366 16z"/>
<path d="M4680 4839 c-47 -8 6 -16 160 -23 127 -5 271 -19 320 -31 50 -12 167 -32 260 -44 228 -32 260 -41 260 -73 0 -44 -106 -247 -123 -236 -9 6 -11 -5 -4 -23 11 -28 1 -31 -75 -19 -49 7 -261 19 -472 27 -449 16 -412 -4 -423 235 -11 251 -55 252 -49 1 6 -295 -28 -275 516 -294 231 -9 444 -22 474 -29 49 -13 58 -6 107 92 130 256 122 338 -32 338 -31 0 -64 13 -73 29 -12 22 -87 31 -316 42 -165 7 -336 15 -380 17 -44 2 -111 -1 -150 -9z"/>
<path d="M2755 4804 c-52 -3 -95 -15 -95 -25 0 -10 55 -14 125 -9 l125 9 -100 -21 c-55 -11 -121 -25 -146 -30 -65 -13 -44 -57 30 -64 50 -5 60 -14 52 -45 -12 -43 16 -50 75 -18 54 28 49 52 -16 74 -51 18 -47 21 65 43 219 43 217 43 194 66 -23 23 -143 31 -309 20z"/>
<path d="M5679 4806 c86 -5 157 -18 167 -32 12 -17 15 -15 9 6 -6 23 -44 30 -167 31 l-158 2 149 -7z"/>
<path d="M4684 4718 c5 -16 59 -37 128 -49 103 -18 111 -23 63 -35 -103 -27 -33 -134 88 -134 39 0 13 43 -38 63 l-55 23 50 15 c28 8 93 16 145 17 176 4 115 51 -100 77 -107 14 -216 30 -243 38 -35 10 -45 6 -38 -15z"/>
<path d="M5771 4475 c-7 -146 -38 -463 -67 -705 -49 -413 -75 -1865 -34 -1907 33 -33 39 91 33 684 -7 603 -3 705 44 1133 61 566 96 1018 82 1042 -32 51 -45 -6 -58 -247z"/>
<path d="M1246 4431 c-16 -18 -21 -67 -14 -139 8 -92 5 -112 -21 -112 -17 0 -31 -9 -31 -20 0 -11 12 -20 28 -20 17 0 32 -33 41 -90 16 -108 51 -100 51 11 0 84 45 101 175 66 65 -17 138 -287 78 -287 -18 0 -33 -13 -33 -30 0 -23 25 -30 105 -30 135 -1 146 -10 164 -128 l14 -98 -122 11 c-89 8 -121 5 -115 -12 7 -22 228 -55 259 -38 19 10 19 248 -1 279 -8 13 -55 26 -103 30 l-89 6 -30 160 c-34 187 -37 189 -185 190 l-112 0 -16 115 c-9 63 -14 126 -12 140 6 31 -1 31 -31 -4z"/>
<path d="M2329 4329 c29 -118 -12 -669 -51 -669 -20 0 -41 -9 -48 -20 -7 -11 6 -20 29 -20 50 0 53 -85 20 -492 -24 -302 -7 -494 45 -504 31 -6 32 1 12 58 -22 63 -11 590 17 833 16 137 93 157 114 30 28 -169 17 -245 -35 -245 -45 0 -47 -6 -45 -125 l3 -125 160 -6 160 -6 -7 131 c-7 141 -9 143 -141 131 -41 -3 -46 3 -35 45 36 142 -48 350 -132 328 -42 -11 -43 8 -15 365 21 265 13 342 -34 342 -23 0 -27 -13 -17 -51z m311 -1149 l0 -80 -90 0 c-49 0 -97 -2 -105 -5 -8 -3 -18 33 -21 80 l-6 85 111 0 111 0 0 -80z"/>
<path d="M193 4346 c-6 -10 -2 -153 8 -317 10 -165 18 -480 18 -701 1 -760 24 -1248 57 -1248 26 0 28 46 15 345 -8 190 -21 694 -30 1121 -14 713 -27 865 -68 800z"/>
<path d="M4429 4210 c10 -103 8 -150 -7 -150 -13 0 -20 28 -17 65 5 64 4 65 -90 71 -57 4 -95 -2 -95 -15 0 -22 39 -30 115 -23 54 4 59 -36 10 -91 -59 -66 -156 -34 -150 49 5 63 -19 85 -46 43 -8 -14 -24 -6 -42 20 -33 46 -106 53 -206 18 -73 -25 -81 -163 -12 -201 23 -14 31 -50 30 -152 -2 -233 -80 -363 -134 -222 -23 62 -26 63 -125 53 -146 -14 -179 -84 -180 -380 0 -71 -8 -95 -30 -95 -16 0 -30 4 -30 9 0 45 90 690 121 869 47 271 46 262 11 262 -29 0 -42 -70 -113 -600 -21 -159 -38 -326 -39 -370 0 -44 -6 -100 -13 -125 -15 -57 -87 -62 -87 -6 0 52 -21 62 -108 47 l-74 -12 6 -102 c7 -114 46 -124 46 -12 0 100 78 114 98 17 12 -62 1 -82 -58 -104 -45 -17 12 -36 70 -23 50 11 61 22 54 52 -7 24 0 38 19 38 22 0 26 -21 18 -95 -28 -243 -51 -709 -39 -783 27 -171 42 -89 55 304 17 538 22 567 95 581 57 12 57 12 45 132 l-13 121 143 0 c137 0 143 2 143 48 0 34 17 54 60 72 74 31 100 113 100 316 l0 147 55 -7 c45 -5 60 6 89 64 28 57 34 62 35 26 2 -84 156 -116 252 -54 l49 33 -1 -108 c-1 -59 -9 -291 -18 -516 -9 -225 -12 -420 -7 -435 29 -75 46 -3 48 199 2 223 29 617 35 509 7 -125 52 -170 157 -159 116 12 101 -4 109 115 l7 100 -80 10 -80 10 0 136 c0 142 -23 183 -95 166 -30 -7 -35 7 -35 95 -1 122 -17 193 -45 193 -13 0 -15 -54 -6 -150z m-359 -102 c0 -54 -6 -58 -85 -64 -116 -9 -135 107 -20 121 96 12 105 7 105 -57z m490 -218 c0 -117 -4 -130 -40 -130 -36 0 -40 13 -40 130 0 117 4 130 40 130 36 0 40 -13 40 -130z m160 -196 c-2 -147 -145 -163 -188 -21 -13 40 -6 43 87 44 66 0 101 -8 101 -23z m-966 -171 c5 -72 0 -85 -26 -75 -17 7 -67 12 -110 12 -54 0 -78 9 -78 29 0 162 203 195 214 34z"/>
<path d="M795 4305 c-92 -9 -100 -153 -16 -284 37 -59 43 -3 10 108 -39 135 -39 135 96 146 88 8 111 2 143 -33 39 -43 72 -55 72 -26 0 82 -98 111 -305 89z"/>
<path d="M450 4284 c-133 -8 -137 -16 -109 -191 28 -173 60 -195 241 -159 85 16 88 20 94 97 16 216 -28 265 -226 253z m165 -94 c5 -22 14 -79 19 -126 l10 -86 -116 6 -116 6 -23 126 -22 126 119 -6 c101 -5 122 -12 129 -46z"/>
<path d="M5594 4015 c-46 -378 -51 -538 -19 -550 18 -6 25 28 25 128 0 75 18 257 40 404 38 252 38 303 3 303 -8 0 -30 -128 -49 -285z"/>

<path d="M5213 4147 c-35 -36 -3 -46 100 -34 103 12 112 10 100 -21 -7 -20 -13 -48 -13 -64 0 -21 -28 -28 -110 -28 -103 0 -110 3 -110 49 0 50 -29 84 -47 56 -24 -39 19 -155 60 -161 48 -7 76 -135 54 -245 -16 -79 -152 -84 -163 -6 -10 68 -204 123 -204 58 0 -18 26 -31 73 -35 126 -11 123 -136 -3 -136 l-90 0 0 90 c0 101 -29 121 -46 33 -28 -136 5 -173 153 -174 108 0 133 5 133 31 0 25 16 30 68 24 104 -12 142 57 124 225 l-13 129 75 6 c75 6 128 109 97 190 -10 27 -212 38 -238 13z"/>
<path d="M930 4081 c-84 -35 -127 -106 -134 -221 -6 -105 -9 -110 -66 -120 -55 -10 -59 -16 -53 -80 10 -96 17 -103 95 -88 44 8 68 5 68 -10 0 -12 -8 -22 -19 -22 -128 0 -93 -327 38 -353 70 -14 73 -23 138 -377 101 -549 103 -763 10 -1010 -28 -71 -55 -148 -61 -170 -43 -144 -244 -360 -400 -429 -216 -96 -222 -106 -99 -150 l102 -36 -69 -58 c-77 -64 -63 -96 44 -97 73 0 80 -20 48 -128 -21 -67 -22 -93 -5 -94 59 -5 166 8 196 24 23 12 62 5 120 -22 56 -25 137 -40 227 -43 77 -2 111 -7 75 -11 -37 -5 -78 -27 -95 -52 -33 -48 -40 -82 -12 -65 10 6 23 -3 29 -19 7 -17 26 -30 43 -30 17 0 54 -15 81 -32 46 -30 53 -30 104 5 30 20 79 47 108 60 29 13 59 43 67 66 11 34 19 38 42 20 15 -13 46 -19 68 -13 22 6 40 2 40 -8 0 -44 101 -17 120 32 10 28 28 50 39 50 11 0 34 22 52 49 39 59 10 131 -52 131 -51 0 -50 24 3 72 69 62 158 258 158 348 0 89 -16 78 239 172 196 72 290 222 378 608 65 287 55 320 -56 185 l-62 -75 32 100 c17 55 37 116 43 135 20 65 -49 37 -122 -49 -82 -95 -90 -73 -32 95 53 154 22 189 -54 59 -83 -140 -344 -486 -393 -520 -153 -108 -334 112 -383 466 -7 58 -25 148 -39 201 l-25 96 102 37 c56 21 107 36 113 35 39 -9 -16 124 -69 170 l-64 55 47 105 c67 148 22 181 -159 117 -70 -25 -74 -24 -85 22 -14 55 0 86 38 86 34 0 91 87 91 138 0 59 -91 155 -161 169 -80 16 -75 80 8 89 43 5 53 15 43 40 -7 19 -18 59 -24 90 -10 50 -18 55 -69 43 -48 -10 -57 -6 -57 28 0 151 -175 248 -330 184z m205 -72 c95 -66 94 -203 -1 -234 -49 -17 18 -125 73 -119 65 7 67 -9 8 -71 -90 -96 -25 -305 95 -305 68 0 43 -127 -45 -224 -47 -52 -85 -103 -85 -114 0 -47 45 -41 85 11 104 135 284 245 328 201 26 -26 -42 -139 -130 -214 -96 -82 -79 -142 21 -72 78 55 173 22 175 -61 1 -27 -234 -125 -345 -144 -42 -7 -73 -22 -70 -33 6 -22 74 -22 159 0 59 15 50 40 126 -340 119 -594 370 -622 736 -81 57 85 69 69 35 -48 -31 -110 8 -111 91 -2 91 119 98 118 59 -11 -52 -173 -18 -234 59 -104 89 151 20 -177 -88 -414 -74 -163 -93 -176 -423 -282 l-92 -29 9 -95 c11 -109 -67 -299 -148 -363 -76 -60 -61 -134 26 -123 36 5 55 -38 28 -65 -12 -12 -38 -23 -57 -23 -23 0 -32 -14 -28 -43 3 -24 -4 -49 -15 -56 -13 -8 -21 10 -21 48 0 74 -34 80 -60 11 -22 -58 -51 -65 -64 -15 -14 54 3 85 47 85 32 0 39 11 34 57 -5 44 15 80 87 161 146 162 180 410 37 273 -47 -45 -57 -49 -51 -19 38 187 4 285 -54 158 -34 -76 -47 -60 -39 52 11 158 -16 162 -167 21 -72 -68 -145 -123 -161 -123 -16 0 -29 -13 -29 -30 0 -59 79 -28 192 75 l114 105 -11 -125 c-12 -137 13 -181 61 -108 45 67 62 51 39 -38 -26 -102 -10 -117 65 -62 118 87 41 -87 -89 -203 -311 -276 -776 -298 -883 -41 -92 219 -8 467 264 776 61 70 81 154 28 121 -25 -15 -27 15 -2 41 110 120 75 913 -61 1344 -18 60 -15 69 41 117 122 102 42 328 -117 328 -51 0 -54 32 -3 45 84 22 76 175 -9 175 -44 0 -49 8 -49 87 0 145 156 226 275 142z m204 -501 c-14 -39 -12 -68 9 -110 27 -55 27 -58 -13 -58 -92 0 -154 133 -91 196 50 50 117 30 95 -28z m-338 -43 c78 -100 26 -225 -93 -225 -67 0 -95 46 -46 76 67 43 88 127 40 166 -40 33 -40 33 9 33 30 0 66 -21 90 -50z m-318 -2414 c-5 -117 3 -168 35 -242 52 -117 54 -109 -27 -109 l-69 0 27 89 c30 101 26 111 -51 111 -48 0 -110 39 -64 40 9 1 38 18 65 38 l48 38 -88 44 -87 45 89 47 c128 67 130 66 122 -101z m882 -342 c-23 -16 -45 -46 -49 -67 -5 -31 -15 -34 -56 -18 -49 18 -49 19 40 75 91 57 144 65 65 10z m-134 -129 c56 0 63 -24 17 -61 -25 -22 -34 -22 -47 0 -25 40 -70 14 -71 -40 0 -30 -13 -51 -35 -55 -24 -5 -35 6 -35 33 0 54 -29 70 -60 33 -28 -34 -60 -22 -60 23 0 23 18 28 75 24 64 -6 76 -1 81 37 7 48 70 73 80 32 4 -14 29 -26 55 -26z"/>
<path d="M1884 3667 l6 -157 165 -6 c149 -5 202 11 148 44 -10 6 -9 51 3 101 28 125 2 151 -148 151 -149 0 -153 -33 -7 -51 l111 -14 -6 -92 -6 -93 -86 -6 c-118 -9 -144 18 -144 147 0 59 -9 112 -21 120 -14 8 -19 -39 -15 -144z"/>
<path d="M4939 3394 c-72 -51 -156 -200 -230 -409 -34 -98 -41 -105 -103 -105 -132 0 -213 -187 -129 -300 39 -53 40 -60 10 -137 l-32 -80 -59 43 c-82 61 -240 59 -297 -2 -22 -24 -32 -44 -22 -44 10 0 23 -33 30 -73 6 -40 35 -98 65 -129 l53 -55 -72 -14 c-100 -19 -162 -169 -70 -169 11 0 13 -10 5 -23 -9 -14 -5 -18 8 -10 12 8 31 -3 43 -25 11 -21 51 -57 88 -80 l67 -42 -65 -135 c-36 -74 -58 -143 -49 -152 29 -31 55 4 102 133 l45 127 75 -20 c99 -27 249 7 427 97 169 85 164 93 91 -117 -65 -188 -79 -333 -32 -333 16 0 33 11 37 25 14 40 168 -216 237 -392 130 -338 47 -629 -198 -691 -354 -90 -988 -77 -726 14 69 24 79 53 28 81 -29 16 -23 24 40 50 93 39 93 58 -1 116 l-75 46 102 15 c127 18 422 110 438 137 28 44 -15 53 -86 19 -90 -44 -297 -100 -432 -117 -125 -16 -133 -41 -32 -103 99 -61 99 -62 -5 -106 -77 -33 -82 -39 -50 -62 49 -37 44 -48 -29 -67 -107 -28 -88 -60 64 -106 369 -113 1040 53 1040 257 0 11 32 54 71 97 78 85 138 185 121 202 -6 5 7 33 29 60 50 64 49 85 -3 85 -42 0 -41 2 10 69 95 125 65 141 -95 51 -138 -78 -135 -79 -192 55 -65 149 -197 345 -233 345 -42 0 -37 28 74 361 112 339 166 459 205 459 78 0 143 162 95 238 -12 18 8 82 60 190 119 248 168 443 127 506 -26 40 -27 54 -6 80 95 115 -417 242 -564 140z m305 -23 c141 -43 183 -69 157 -99 -15 -19 -10 -36 19 -62 69 -63 19 -327 -107 -567 l-46 -87 -56 52 c-92 85 -236 24 -279 -119 -17 -57 67 -214 131 -244 l53 -25 -51 -145 -52 -145 -172 -79 c-350 -161 -452 -158 -636 20 -153 148 -119 189 158 189 203 0 186 51 -26 77 -119 15 -178 74 -184 185 -5 108 149 113 245 7 67 -74 201 -148 268 -149 56 0 22 35 -77 78 -100 44 -101 48 -59 150 29 68 36 72 121 72 127 0 189 63 189 193 0 96 -40 167 -93 167 -34 0 -37 -16 34 170 138 359 231 431 463 361z m-456 -636 c51 -145 -115 -268 -235 -174 -62 49 -70 87 -14 69 83 -26 181 76 142 148 -18 35 -15 37 34 24 34 -9 62 -35 73 -67z m282 -155 c-7 -12 21 -20 73 -20 l85 0 -44 -41 c-55 -50 -62 -187 -11 -215 58 -33 -8 -47 -80 -17 -116 49 -137 175 -48 288 24 30 43 34 25 5z m291 -1669 c-46 -49 -39 -102 11 -83 41 16 34 -9 -16 -63 -34 -35 -39 -51 -20 -63 19 -11 15 -24 -16 -52 -40 -36 -40 -35 -40 54 0 50 -5 117 -12 149 -10 51 -3 62 55 90 84 41 97 30 38 -32z"/>
<path d="M2756 3295 c-36 -30 -30 -180 9 -230 24 -30 191 -33 263 -6 51 20 59 175 12 228 -28 31 -247 37 -284 8z m260 -121 l7 -76 -116 6 -116 6 -13 76 -12 76 122 -6 122 -6 6 -76z"/>

<path d="M2700 1954 c0 -47 74 -55 588 -64 369 -7 473 -4 467 16 -6 17 -134 27 -477 36 -257 7 -493 19 -523 27 -43 12 -55 8 -55 -15z"/>
<path d="M510 1899 c-55 -8 -152 -16 -217 -17 -142 -2 -150 -49 -10 -58 101 -7 373 44 405 76 23 23 -25 23 -178 -1z"/>
<path d="M5205 1881 c4 -25 44 -32 205 -37 250 -7 233 25 -26 50 -162 15 -185 14 -179 -13z"/>
<path d="M3995 1370 c-52 -39 -100 -70 -107 -70 -6 0 -38 -18 -69 -41 -66 -47 -259 -78 -259 -42 0 13 -9 23 -20 23 -21 0 8 -62 58 -124 24 -31 21 -37 -25 -55 -62 -23 -66 -37 -19 -71 31 -23 29 -30 -20 -89 -68 -81 -68 -91 6 -121 33 -14 60 -40 61 -57 6 -179 49 -313 110 -336 59 -23 28 -52 -42 -41 -77 13 -160 -15 -177 -59 -13 -34 6 -87 31 -87 11 0 14 -8 8 -18 -6 -10 6 -14 26 -9 29 8 40 -4 50 -52 14 -71 57 -95 119 -67 113 51 165 60 192 31 14 -15 39 -23 54 -17 18 7 28 -3 28 -29 0 -35 14 -39 127 -39 134 0 125 -6 189 125 4 8 -17 15 -47 15 -43 0 -52 -8 -44 -38 16 -61 -20 -100 -53 -57 -32 43 -72 46 -72 5 0 -16 -14 -30 -32 -30 -25 0 -28 13 -18 62 14 61 13 62 -50 48 -46 -10 -61 -8 -51 8 7 12 44 22 82 22 38 0 69 10 69 23 0 15 -33 19 -100 12 -55 -5 -100 -1 -100 8 0 9 11 17 26 17 39 0 116 61 103 82 -7 10 -30 6 -55 -12 -23 -16 -64 -30 -91 -30 -40 0 -45 -7 -35 -48 19 -78 -42 -113 -89 -51 -37 48 -43 45 -47 -26 -4 -67 -42 -33 -45 40 -3 112 -3 112 -56 78 -30 -20 -54 -25 -61 -13 -24 39 14 60 110 60 98 0 191 73 123 96 -133 44 -160 363 -51 604 58 130 201 281 343 362 47 26 85 55 85 63 0 35 -77 9 -165 -55z m-260 -249 c-28 -40 -29 -40 -64 -3 -33 38 -32 39 22 46 74 9 77 6 42 -43z m-101 -236 c-22 -85 -40 -103 -65 -64 -10 17 71 166 84 153 2 -3 -6 -43 -19 -89z"/>
</g>

</svg>
