<?xml version="1.0" standalone="no"?>
<!DOCTYPE svg PUBLIC "-//W3C//DTD SVG 20010904//EN"
 "http://www.w3.org/TR/2001/REC-SVG-20010904/DTD/svg10.dtd">
<svg version="1.0" xmlns="http://www.w3.org/2000/svg"
 width="450.000000pt" height="457.000000pt" viewBox="0 0 450.000000 457.000000"
 preserveAspectRatio="xMidYMid meet">
<metadata>
Created by potrace 1.10, written by Peter Selinger 2001-2011
</metadata>
<g transform="translate(0.000000,457.000000) scale(0.050000,-0.050000)"
fill="#000000" stroke="none">
<path d="M2934 8945 c-5 -8 -16 -46 -24 -85 -9 -38 -33 -82 -55 -98 -50 -35
-37 -172 26 -278 22 -38 38 -71 35 -73 -254 -179 -358 -330 -371 -538 l-10
-146 -104 9 c-321 26 -519 -282 -371 -577 75 -148 116 -181 320 -249 50 -16
68 -25 40 -19 -290 61 -501 12 -538 -123 -32 -117 32 -247 160 -323 l53 -31
-88 -83 c-182 -175 8 -462 303 -458 l100 1 2 -215 2 -215 -62 -13 c-34 -8 -89
-13 -121 -13 -69 1 -421 -168 -484 -232 -24 -25 -70 -61 -102 -80 -153 -93
-433 -373 -709 -706 -239 -288 -368 -933 -306 -1520 27 -250 157 -746 215
-816 20 -24 20 -32 0 -39 -14 -5 -95 -57 -180 -117 -85 -59 -186 -122 -224
-139 -146 -65 -173 -122 -90 -193 27 -24 78 -87 112 -140 33 -53 68 -96 77
-96 8 0 26 -25 39 -55 12 -30 68 -104 124 -165 55 -60 123 -146 152 -190 155
-240 726 -836 781 -815 39 14 124 99 124 123 0 29 207 213 322 286 62 39 155
122 209 184 87 101 99 109 129 82 37 -33 60 -35 296 -24 186 9 220 28 242 137
11 57 25 70 93 87 115 29 129 44 129 133 0 91 -85 197 -158 197 -43 0 -59 66
-27 111 18 25 505 13 505 -13 0 -10 -23 -18 -51 -18 -124 0 -229 -110 -229
-242 0 -135 144 -274 261 -251 46 9 57 3 68 -39 46 -183 391 -82 391 115 0 25
23 69 51 98 134 140 63 368 -112 363 -87 -2 -82 78 7 134 37 22 84 60 105 84
22 24 71 67 110 96 223 165 331 348 345 588 2 23 54 64 143 114 353 194 515
618 436 1140 -13 83 -33 213 -46 290 -45 274 -229 762 -328 870 -25 28 -62 92
-81 144 -53 144 -359 416 -467 416 -21 0 -51 19 -67 43 -27 41 -33 42 -163 18
-74 -14 -138 -23 -142 -18 -34 34 -26 482 17 927 26 275 40 513 32 528 -10 19
4 45 41 76 180 151 227 320 139 498 l-62 127 25 202 c64 510 -54 720 -434 774
-253 37 -368 112 -329 215 39 101 25 146 -60 200 -78 49 -149 64 -166 35z
m125 -150 c12 -31 8 -60 -12 -91 -81 -128 121 -302 375 -324 189 -17 302 -79
334 -184 55 -176 46 -589 -11 -567 -88 34 -306 35 -389 2 -340 -136 -410 -504
-140 -747 89 -80 123 -89 302 -81 130 6 142 4 145 -33 5 -84 -3 -187 -32 -390
-29 -206 -52 -411 -55 -490 -1 -22 5 -121 13 -220 13 -165 -16 -773 -41 -854
-12 -41 -218 -156 -279 -156 -69 0 -176 -41 -212 -81 -30 -35 -33 -32 -42 63
-13 138 -27 147 -174 121 -241 -42 -272 -91 -222 -343 38 -196 41 -228 16
-243 -13 -8 -38 -3 -55 12 -16 15 -52 30 -80 34 -37 5 -48 17 -44 47 4 22 11
130 16 240 5 110 19 268 30 350 12 83 28 364 37 626 18 538 12 518 190 602
144 69 194 126 143 163 -63 46 -150 13 -421 -161 -77 -50 -156 -90 -175 -90
-49 0 -196 136 -196 181 0 76 230 218 355 219 74 0 150 63 133 109 -18 46 -77
56 -260 40 -168 -14 -171 -13 -229 42 -189 181 94 295 391 158 168 -78 238
-93 265 -56 36 49 23 71 -56 97 -81 27 -101 80 -38 100 314 100 359 653 61
753 -43 14 -33 317 14 410 63 123 229 263 320 271 95 8 123 102 37 124 -88 22
-169 194 -103 219 17 7 30 34 30 61 0 102 31 138 59 67z m-443 -1243 c265
-137 132 -575 -155 -508 l-99 22 29 56 c65 125 -44 338 -173 338 -21 0 -38 7
-38 16 0 30 48 64 92 64 24 0 55 15 70 32 32 39 181 28 274 -20z m1039 -13
c64 -23 205 -184 205 -235 0 -23 -6 -24 -30 -4 -16 14 -30 40 -30 57 -1 23 -5
26 -16 9 -8 -13 -58 -27 -110 -30 -153 -10 -217 -196 -121 -351 37 -60 -109
-66 -203 -8 -219 133 -144 602 82 515 17 -7 54 6 82 28 60 47 61 47 141 19z
m-1288 -2419 c-3 -220 -49 -655 -89 -836 -36 -161 22 -201 342 -233 31 -3 52
-19 56 -43 43 -259 86 -292 271 -208 157 71 181 97 153 169 -28 74 -26 85 18
96 33 9 40 -5 51 -102 7 -62 18 -142 24 -178 l11 -65 -92 13 c-135 18 -254
-122 -137 -162 19 -7 64 -50 100 -97 88 -115 56 -141 -155 -123 -142 12 -152
10 -197 -37 l-46 -50 36 -103 c21 -57 71 -148 112 -203 94 -124 95 -118 -28
-118 -176 0 -222 -79 -118 -201 70 -81 73 -93 26 -106 -26 -8 -24 -9 7 -7 26
3 80 -34 146 -98 63 -62 137 -113 188 -129 46 -14 93 -32 104 -39 21 -13 178
-61 205 -62 8 -1 31 -15 50 -33 19 -17 41 -25 48 -18 8 7 3 13 -10 13 -13 0
-23 8 -23 18 0 10 18 14 40 8 22 -6 40 -19 40 -28 0 -10 10 -18 21 -18 12 0
15 10 7 23 -13 21 12 20 102 -3 55 -14 120 1 90 21 -23 15 -13 19 40 18 101
-3 279 24 292 44 6 9 30 17 54 18 24 0 80 14 124 29 73 27 96 20 92 -25 -1 -8
-13 -15 -26 -15 -13 0 -31 -30 -38 -68 -18 -86 -63 -146 -206 -271 l-116 -101
-183 -12 -183 -13 175 2 c109 2 173 -5 169 -17 -13 -38 -177 -114 -253 -117
-42 -2 -73 -9 -69 -17 15 -25 -38 -43 -141 -48 -55 -3 -143 -10 -193 -16 -218
-25 -301 11 -449 196 -75 93 -76 98 -29 86 341 -84 469 15 134 105 -346 93
-690 362 -704 551 -6 85 -34 309 -63 510 -17 116 -37 255 -45 310 -8 55 -16
107 -18 115 -2 8 -4 29 -4 46 0 18 -9 25 -23 17 -15 -9 -18 -56 -9 -146 7 -73
22 -244 33 -382 11 -137 35 -288 53 -335 49 -132 26 -117 -103 66 -112 159
-169 201 -201 149 -7 -11 -66 -56 -131 -101 l-119 -80 0 87 c0 48 6 93 12 100
7 6 16 105 19 218 10 313 132 652 254 703 115 48 295 335 295 470 0 29 13 116
30 193 19 92 29 257 30 483 0 400 3 411 88 403 l62 -6 -3 -210z m-260 -122
c-2 -125 -10 -277 -17 -338 -7 -60 -15 -139 -19 -174 -4 -35 -14 -75 -22 -88
-8 -13 -19 -70 -23 -126 -9 -123 -86 -245 -266 -419 -66 -65 -126 -141 -133
-170 -7 -29 -21 -63 -30 -76 -44 -56 -119 -334 -139 -517 -12 -110 -32 -220
-43 -245 -23 -47 0 -150 96 -430 47 -135 41 -154 -33 -114 -119 64 -158 -40
-90 -242 56 -167 54 -178 -20 -130 -107 70 -154 18 -144 -159 11 -179 -14
-174 -90 16 -28 68 -79 187 -114 264 -136 297 -219 631 -244 980 -24 332 -23
351 66 816 76 403 599 1025 1108 1321 162 94 161 95 157 -169z m1821 77 c6
-91 14 -234 18 -319 l8 -154 -55 60 c-31 32 -88 72 -127 89 -71 29 -72 31 -72
146 0 283 26 338 163 342 53 1 54 -1 65 -164z m240 86 c135 -92 270 -241 295
-323 12 -41 49 -104 81 -139 274 -301 458 -1368 296 -1723 -123 -270 -175
-329 -387 -435 -606 -302 -1295 -245 -1594 133 -10 13 -19 28 -19 32 0 16 131
-13 143 -31 8 -13 38 -11 85 4 73 25 107 137 52 171 -27 17 -220 272 -220 290
0 8 45 21 100 28 55 7 100 22 100 33 0 10 7 17 15 15 23 -5 191 48 220 70 50
38 27 115 -55 189 -104 93 -103 120 5 120 211 -2 559 68 680 135 125 70 142
96 147 230 3 64 15 135 27 158 22 41 -19 210 -78 321 -18 33 -16 48 8 73 17
17 27 50 22 74 -15 72 -33 634 -20 634 6 0 50 -26 97 -59z m-1306 -576 c2 -41
5 -84 7 -95 3 -11 6 -35 8 -54 2 -26 26 -35 98 -40 131 -8 162 -216 33 -216
-58 0 -168 -70 -168 -106 0 -15 8 -12 19 5 24 38 33 27 49 -62 10 -57 6 -75
-20 -85 -47 -18 -47 -16 -79 171 -61 363 -66 497 -21 528 61 43 72 36 74 -46z
m873 19 c21 -7 88 -95 151 -197 11 -18 -39 -23 -191 -20 l-205 3 -18 86 c-26
123 100 185 263 128z m-452 -109 c81 -69 93 -175 21 -175 -78 0 -104 34 -104
134 0 98 10 103 83 41z m612 -275 c36 -22 65 -52 65 -66 0 -15 23 -38 52 -51
37 -17 46 -31 33 -48 -11 -14 -26 -59 -33 -100 -18 -100 -314 -244 -373 -181
-22 23 -84 442 -69 466 23 37 254 23 325 -20z m-467 -105 c7 -47 25 -150 39
-229 28 -154 24 -166 -67 -166 -83 0 -138 450 -57 466 26 5 53 10 59 11 7 2
19 -35 26 -82z m-1549 -1453 c11 -22 32 -51 46 -65 14 -15 61 -81 105 -147 44
-66 115 -164 159 -218 l80 -99 -219 13 c-252 14 -247 11 -360 242 -77 155 -73
174 53 263 82 58 110 60 136 11z m-229 -576 c33 -6 74 -23 90 -36 18 -15 96
-27 191 -28 309 -6 336 -40 290 -374 -14 -102 -20 -194 -12 -206 7 -12 8 -31
1 -42 -22 -36 -224 157 -314 301 -99 158 -127 177 -184 120 -32 -32 -36 -50
-21 -90 26 -67 307 -391 340 -391 14 0 45 -26 67 -57 l41 -57 -63 -85 c-77
-104 -402 -377 -469 -394 -60 -15 -99 19 -353 313 -192 222 -250 254 -305 170
-25 -37 -10 -58 177 -255 112 -119 248 -265 302 -325 54 -61 115 -110 135
-110 44 0 440 352 591 526 58 66 125 130 150 143 39 20 45 37 41 115 -4 80 1
93 41 103 25 6 63 28 84 48 22 19 83 70 135 112 l94 77 19 -50 c11 -28 29 -56
41 -63 40 -25 21 -115 -48 -218 -130 -196 -739 -761 -923 -858 -37 -19 -82
-57 -100 -85 -18 -27 -43 -50 -56 -50 -33 0 -510 489 -624 640 -127 170 -150
198 -198 250 -131 142 -296 384 -280 411 54 86 337 240 358 194 6 -14 7 -5 0
20 -32 129 43 27 113 -155 105 -272 327 -500 390 -399 6 10 20 19 31 19 11 0
15 -9 8 -20 -7 -11 2 -20 19 -20 23 0 27 9 14 35 -33 64 -81 234 -95 335 -15
110 -5 110 108 -4 142 -143 268 36 144 204 -15 21 -100 243 -100 263 0 6 16 5
35 -2 19 -8 62 -19 95 -25z m786 -280 c-35 -36 -64 -63 -65 -61 -2 3 1 64 5
135 l8 130 58 -69 58 -69 -64 -66z m64 -142 c0 -9 -40 -55 -89 -103 -73 -71
-87 -79 -77 -41 18 68 166 197 166 144z m1164 -328 c-12 -12 -24 9 -33 55 -10
53 -6 80 13 91 31 20 50 -116 20 -146z m-249 -64 c-24 -18 -35 -54 -35 -114
-1 -64 -6 -80 -20 -58 -35 53 -23 136 24 169 54 38 80 40 31 3z m505 -22 c0
-14 -31 -29 -69 -34 -67 -7 -71 0 -27 57 22 29 96 11 96 -23z m-1012 -61 c27
-7 60 -6 73 2 17 10 17 3 1 -27 -12 -22 -33 -45 -47 -51 -16 -6 -12 -10 9 -11
19 -1 42 13 52 31 18 31 64 23 64 -12 0 -52 -120 -58 -159 -8 -80 102 -152
-34 -100 -190 5 -16 -4 -32 -21 -37 -27 -8 -27 -7 0 12 24 17 20 21 -24 22
-29 0 -59 9 -66 20 -20 33 -124 23 -138 -13 -7 -18 -18 -27 -25 -21 -6 6 59
93 146 192 133 153 159 175 171 142 8 -21 37 -44 64 -51z m625 61 c12 -33 78
-41 96 -12 6 11 38 5 73 -12 44 -22 55 -37 40 -52 -35 -35 -26 -90 16 -103 94
-30 70 -111 -32 -111 -67 0 -70 3 -57 55 45 175 -32 245 -119 110 -70 -109
-115 -106 -139 9 -20 93 90 198 122 116z"/>
<path d="M2229 3682 c-170 -73 -92 -113 207 -105 264 6 331 26 272 83 -26 24
-430 43 -479 22z"/>
<path d="M7580 3143 c-93 -53 -210 -121 -260 -153 -170 -109 -267 -160 -801
-418 -39 -19 -82 -20 -176 -5 -123 21 -279 -11 -358 -72 -33 -26 -9 -61 33
-50 31 8 31 2 -4 -67 -33 -67 -65 -90 -251 -179 -407 -197 -493 -244 -550
-302 -31 -32 -96 -77 -145 -100 -58 -27 -88 -54 -88 -79 0 -21 -13 -38 -29
-38 -30 0 -77 -92 -163 -318 -90 -237 -268 -499 -378 -557 -52 -27 -65 -82
-29 -118 12 -12 24 -36 27 -54 20 -140 213 -279 296 -215 80 62 283 172 386
211 55 21 105 44 110 52 34 51 117 -11 188 -142 132 -246 211 -283 319 -152
99 121 179 153 241 95 l46 -43 138 108 c109 86 290 269 368 372 21 28 266 181
289 181 14 0 41 18 61 40 20 22 44 40 53 40 9 0 59 26 112 59 52 32 158 78
235 102 77 24 214 78 304 121 90 43 169 78 176 78 7 0 59 22 116 48 207 96
387 168 524 211 186 59 199 67 206 127 5 36 -6 58 -36 74 -24 13 -57 56 -74
97 -17 40 -50 100 -73 132 -59 83 -58 109 4 122 88 18 192 77 199 114 16 83
-278 246 -416 232 -78 -8 -300 312 -300 433 0 124 -95 128 -300 13z m226 -171
c20 -48 77 -149 127 -223 l90 -135 -34 -77 c-49 -109 -19 -172 90 -189 l81
-13 -13 -77 c-14 -89 36 -189 84 -170 16 7 42 17 58 24 20 8 39 -12 60 -63 38
-90 57 -73 -159 -145 -99 -34 -254 -98 -343 -142 -90 -45 -173 -82 -184 -82
-10 0 -104 -41 -207 -90 -103 -50 -214 -96 -246 -101 -33 -6 -148 -55 -255
-110 -108 -54 -209 -99 -225 -99 -17 0 -30 -8 -30 -17 0 -10 -38 -43 -85 -74
-47 -31 -189 -159 -316 -284 l-231 -227 -59 31 c-33 17 -52 31 -43 31 8 0 -10
25 -41 55 -31 30 -104 127 -163 215 -59 88 -123 178 -142 200 -94 105 -260
490 -260 603 0 13 34 44 75 69 101 62 325 175 325 164 0 -5 27 11 60 34 42 30
60 35 60 16 0 -16 6 -18 15 -6 18 25 116 70 152 70 14 0 41 -45 61 -100 54
-150 104 -140 187 39 36 76 65 147 65 157 0 11 29 31 65 46 69 28 115 65 115
92 0 9 92 64 205 122 418 216 624 325 671 356 26 17 99 59 161 92 62 34 122
69 132 79 37 33 61 16 97 -71z m489 -423 c24 -17 68 -28 97 -25 30 3 57 -4 62
-16 5 -14 -41 -23 -133 -26 -99 -3 -141 3 -141 20 0 15 -15 10 -40 -12 -34
-30 -40 -31 -40 -6 0 74 123 115 195 65z m-1916 -98 c50 -59 -219 -123 -299
-71 -35 24 3 59 64 60 18 0 39 9 46 20 19 31 162 24 189 -9z m-1088 -862 c36
-140 111 -279 267 -496 61 -86 121 -172 132 -190 11 -17 54 -83 95 -146 l74
-113 -63 -22 c-34 -12 -92 -45 -128 -72 -94 -72 -96 -71 -209 165 -57 118
-144 298 -192 399 -49 101 -105 230 -126 287 -20 57 -51 121 -69 142 -18 21
-28 48 -21 59 7 11 -4 34 -24 49 -26 20 -28 26 -6 18 17 -6 71 7 120 29 106
47 110 44 150 -109z m-272 -241 l43 -102 -60 -90 c-33 -49 -110 -183 -172
-297 -143 -267 -147 -272 -229 -230 -96 50 -93 76 27 224 99 121 248 387 311
555 26 68 25 69 80 -60z m177 -390 c37 -67 64 -124 60 -127 -53 -37 -353 -142
-366 -127 -8 9 215 376 229 376 6 0 41 -55 77 -122z"/>
<path d="M7446 2777 c-86 -46 -276 -144 -423 -218 -315 -159 -312 -157 -281
-226 30 -66 52 -66 139 -2 59 44 342 189 369 189 8 0 306 171 405 233 39 24
41 33 20 67 -34 55 -51 52 -229 -43z"/>
<path d="M7807 2510 c-22 -58 9 -102 46 -65 33 33 25 95 -13 95 -12 0 -26 -13
-33 -30z"/>
<path d="M7499 2252 c-64 -34 -438 -223 -552 -278 -67 -33 -110 -43 -122 -31
-30 30 -168 -15 -223 -73 -26 -28 -104 -83 -175 -122 -124 -70 -140 -91 -115
-156 20 -51 63 -38 213 61 133 89 143 92 206 69 77 -28 210 25 249 98 12 22
29 40 39 40 10 0 113 59 230 130 117 72 219 130 227 130 8 0 38 22 67 49 29
27 58 43 65 36 12 -12 17 22 7 49 -8 23 -72 21 -116 -2z"/>
<path d="M7621 1999 c-113 -40 -140 -65 -141 -125 0 -63 60 -61 187 5 253 134
221 217 -46 120z"/>
<path d="M5800 1921 c-49 -20 -115 -46 -145 -58 -60 -24 -66 -44 -34 -104 21
-41 88 -53 108 -20 7 11 66 39 132 63 97 35 119 52 119 89 0 75 -46 82 -180
30z"/>
<path d="M6873 1619 c-76 -33 -173 -65 -216 -72 -43 -7 -89 -27 -103 -45 -28
-39 -165 -122 -201 -122 -13 0 -38 -16 -54 -35 -17 -19 -53 -50 -80 -68 -67
-46 -21 -144 71 -151 63 -5 117 27 97 58 -21 36 38 115 125 166 86 50 215 67
238 30 13 -21 109 31 136 75 9 15 50 40 91 56 97 39 134 95 91 138 -39 39 -33
40 -195 -30z"/>
<path d="M5633 1404 c-24 -37 11 -86 70 -98 45 -9 53 -17 36 -37 -37 -44 -15
-159 29 -159 66 0 172 218 128 262 -39 40 -244 64 -263 32z"/>
<path d="M6083 1107 c4 -20 21 -37 37 -37 43 0 37 58 -7 67 -27 5 -35 -3 -30
-30z"/>
<path d="M5690 631 c-55 -26 -92 -49 -81 -49 22 -2 191 78 191 90 0 12 -2 11
-110 -41z"/>
</g>
</svg>
