<?xml version="1.0" standalone="no"?>
<!DOCTYPE svg PUBLIC "-//W3C//DTD SVG 20010904//EN"
 "http://www.w3.org/TR/2001/REC-SVG-20010904/DTD/svg10.dtd">
<svg version="1.0" xmlns="http://www.w3.org/2000/svg"
 width="450.000000pt" height="387.000000pt" viewBox="0 0 450.000000 387.000000"
 preserveAspectRatio="xMidYMid meet">
<metadata>
Created by potrace 1.10, written by Peter Selinger 2001-2011
</metadata>
<g xmlns="http://www.w3.org/2000/svg" transform="translate(0.000000,387.000000) scale(0.050000,-0.050000)" fill="#000000" stroke="none">


<path d="M5016 7210 c-8 -8 -195 -22 -416 -32 -421 -18 -642 -39 -910 -87 -88 -16 -254 -44 -370 -62 -309 -48 -300 -42 -300 -206 0 -76 -13 -213 -29 -305 -107 -630 -88 -884 75 -986 56 -34 817 -33 1170 1 136 14 178 -14 263 -176 76 -142 317 -510 405 -617 31 -38 66 -81 77 -95 27 -33 102 -20 128 22 16 25 9 65 -25 158 -78 210 -107 389 -84 514 11 59 20 112 20 116 0 53 493 108 750 84 190 -19 210 9 260 351 18 121 46 291 63 377 17 87 33 236 36 330 3 95 17 243 30 329 29 191 20 205 -134 221 -580 57 -990 82 -1009 63z m498 -169 c163 -1 426 -36 468 -62 76 -47 -57 -1279 -139 -1279 -548 -3 -890 -49 -900 -121 -4 -27 -15 -59 -25 -71 -43 -53 -78 -222 -67 -328 l12 -110 -49 59 c-27 33 -102 161 -166 285 l-116 225 -109 23 c-65 13 -185 18 -292 11 -1002 -64 -987 -65 -1047 47 -29 56 -21 368 18 626 40 265 53 384 45 398 -32 56 21 115 120 133 57 11 202 39 323 62 264 52 773 99 1090 102 127 2 275 8 330 16 55 7 159 7 230 -1 72 -8 195 -14 274 -15z"/>

<path d="M5020 6711 c-82 -14 -244 -32 -360 -39 -115 -8 -237 -18 -270 -22 -77 -11 -460 -33 -640 -37 l-140 -3 -6 -63 c-5 -49 3 -66 33 -76 63 -20 1559 112 1608 142 48 30 -3 134 -62 125 -7 -1 -80 -13 -163 -27z"/>
<path d="M4798 6433 c-4 -4 -228 -13 -497 -20 -520 -13 -526 -14 -516 -113 6 -60 2 -59 508 -24 189 13 433 24 544 24 205 0 235 11 214 78 -14 44 -113 69 -137 35 -13 -17 -20 -17 -27 2 -9 23 -69 35 -89 18z"/>
<path d="M3834 6066 c-37 -82 10 -147 90 -126 36 9 246 27 466 39 544 30 631 41 645 76 21 56 -48 63 -612 59 l-568 -3 -21 -45z"/>

<path d="M5910 5498 c-408 -56 -526 -179 -460 -480 10 -45 1 -59 -58 -94 -127 -75 -214 -324 -131 -375 99 -61 60 -92 -94 -77 -226 23 -270 17 -322 -42 -115 -133 6 -310 212 -310 142 0 149 -10 82 -128 -118 -209 -35 -373 155 -311 38 13 75 17 82 9 24 -23 -122 -129 -219 -158 -81 -25 -612 -272 -787 -366 -79 -42 -204 -171 -290 -298 -52 -77 -81 -102 -119 -102 -115 0 -220 -22 -251 -53 -18 -18 -60 -33 -94 -33 -34 0 -94 -8 -134 -19 -39 -10 -175 -43 -302 -72 -126 -29 -239 -64 -250 -77 -11 -14 -51 -42 -90 -63 -78 -43 -102 -69 -88 -93 13 -20 -34 -20 -67 0 -26 17 35 84 77 84 12 0 17 14 10 31 -7 19 -3 26 10 18 42 -26 238 91 238 143 0 77 -56 90 -191 44 -184 -62 -484 -62 -568 0 -78 58 -129 51 -137 -18 -14 -117 203 -204 422 -170 l84 14 -105 -93 c-118 -103 -119 -107 -69 -169 l36 -45 83 43 c103 52 112 52 85 2 -26 -48 5 -120 52 -120 61 0 6 -37 -75 -51 -46 -7 -143 -35 -217 -60 -322 -113 -599 -47 -668 158 l-38 113 77 173 c75 169 260 407 317 407 13 0 70 45 127 99 58 55 133 114 168 132 43 23 55 38 38 48 -18 11 -8 34 35 83 114 131 199 376 265 762 22 127 26 135 90 156 219 72 241 384 34 478 -31 15 -44 34 -38 57 6 19 16 81 23 137 31 248 248 370 395 223 53 -53 32 -281 -37 -402 -76 -133 -50 -333 43 -333 47 0 32 -26 -52 -90 -133 -102 -202 -249 -129 -277 19 -7 49 18 87 73 101 145 379 335 400 272 11 -33 -103 -125 -232 -187 -156 -75 -146 -171 17 -171 154 0 269 -114 195 -193 -94 -100 -213 -99 -293 3 -22 27 -50 50 -62 50 -12 0 -22 20 -22 43 0 56 -15 41 -27 -28 -6 -30 -2 -60 8 -66 11 -6 19 -27 19 -46 0 -20 16 -53 35 -74 25 -28 35 -73 35 -160 0 -152 54 -278 133 -313 31 -14 57 -41 57 -59 0 -34 100 -204 172 -292 45 -56 108 -52 108 6 0 46 -155 305 -196 327 -40 22 -120 222 -128 320 -6 68 -4 69 104 97 271 69 327 315 100 443 -91 51 -99 75 -35 102 143 60 215 203 141 284 -25 28 -28 42 -10 60 39 39 27 144 -23 212 -63 86 -194 188 -226 176 -20 -8 -23 19 -13 120 18 193 -89 288 -327 288 -215 0 -342 -147 -396 -460 -9 -53 -27 -78 -76 -102 -182 -89 -227 -403 -71 -497 77 -47 78 -88 14 -408 -44 -218 -126 -402 -212 -476 -31 -26 -69 -73 -86 -105 -16 -31 -87 -107 -158 -169 -360 -314 -577 -696 -473 -834 17 -22 30 -51 30 -66 3 -114 163 -242 338 -270 80 -12 69 2 109 -142 39 -140 42 -133 -52 -112 -134 30 -197 -78 -165 -288 15 -98 74 -156 117 -113 16 16 13 22 -10 22 -17 0 -43 14 -57 31 -23 28 -20 29 26 8 37 -17 69 -18 111 -3 48 16 70 13 116 -18 109 -71 266 -38 321 68 l30 58 44 -41 c62 -58 140 -83 223 -69 68 11 72 9 62 -36 -42 -207 -29 -278 50 -278 21 0 38 -8 38 -19 0 -25 67 -45 104 -30 22 8 34 55 43 165 19 228 25 244 105 244 157 0 186 112 60 229 -112 104 -114 203 -4 183 54 -9 204 -28 507 -64 97 -12 102 -31 65 -229 -23 -121 3 -173 75 -151 52 17 80 83 97 232 l14 124 102 -13 c56 -6 150 -13 209 -14 98 -2 105 -6 95 -45 -5 -23 -12 -141 -13 -262 -2 -142 -13 -239 -31 -274 -45 -88 -30 -256 23 -256 14 0 29 -25 33 -55 12 -108 125 -78 130 35 5 98 46 580 56 660 4 28 7 65 8 83 2 35 134 92 158 68 7 -7 -16 -36 -52 -64 -101 -79 -72 -140 91 -190 47 -15 85 -37 85 -50 0 -101 266 -103 305 -2 8 19 53 35 122 44 124 15 150 37 166 138 17 100 -69 181 -177 167 -53 -7 -76 -2 -85 20 -16 42 -17 42 54 56 36 7 160 35 275 62 466 110 429 109 434 13 4 -68 0 -75 -49 -78 -199 -12 -162 -258 48 -328 35 -12 78 -43 96 -70 17 -27 49 -49 70 -49 34 0 39 -15 39 -131 0 -149 22 -189 104 -189 76 0 98 48 98 214 0 115 6 140 40 161 22 14 40 47 40 74 0 30 14 53 38 60 110 35 78 228 -46 273 -69 25 -72 30 -72 122 0 53 -2 103 -5 111 -3 8 37 25 89 38 166 41 286 111 244 141 -42 31 -145 34 -217 6 -103 -39 -48 15 63 62 183 77 451 321 416 378 -6 9 8 55 30 103 67 149 37 383 -71 539 -100 144 -412 398 -489 398 -162 1 -240 144 -240 438 0 178 1 182 48 182 134 0 236 237 163 378 -29 56 -159 182 -187 182 -9 0 -9 65 -1 145 23 226 19 440 -9 495 -24 48 -163 142 -204 137 -11 -1 -74 -9 -140 -19z m184 -190 c50 -51 51 -56 39 -245 -7 -106 -13 -218 -13 -248 0 -42 -10 -55 -41 -55 -243 0 -263 -469 -24 -562 42 -16 45 -29 45 -194 l0 -178 -105 5 c-58 2 -177 -3 -265 -12 -191 -20 -202 -13 -105 65 41 33 75 75 75 94 0 88 -128 115 -160 33 -38 -100 -320 -245 -320 -164 0 48 140 213 180 213 22 0 54 23 73 51 62 95 -2 128 -264 136 -279 8 -368 49 -248 113 46 25 415 -21 506 -62 73 -33 120 -10 105 52 -10 40 -5 50 25 50 189 0 265 352 104 481 -140 113 -161 335 -37 408 146 86 353 95 430 19z m-471 -547 l47 -39 -40 -75 c-60 -114 -194 -152 -153 -44 13 34 10 69 -9 115 -36 86 -38 82 40 82 37 0 89 -17 115 -39z m-2186 -108 c14 -17 16 -47 5 -86 -10 -35 -10 -74 1 -93 15 -26 7 -35 -37 -45 -31 -7 -72 -17 -91 -22 -52 -14 -62 38 -25 125 54 129 105 172 147 121z m2843 -117 c0 -9 -8 -16 -17 -16 -10 0 -43 -38 -75 -85 -31 -47 -60 -89 -64 -95 -4 -5 -29 15 -56 46 -66 77 -65 178 3 231 l50 40 80 -52 c43 -29 79 -60 79 -69z m-3504 -27 c9 -17 34 -34 55 -37 71 -11 52 -132 -29 -186 -86 -58 -132 -62 -103 -7 34 63 25 100 -41 160 -58 53 -60 58 -25 78 54 32 122 28 143 -8z m3363 -808 c12 -21 21 -46 21 -55 0 -9 -144 -19 -320 -23 -214 -5 -320 0 -320 14 0 33 23 40 181 54 126 11 354 38 403 46 8 2 24 -14 35 -36z m105 -221 c20 -21 74 -48 121 -61 334 -87 614 -449 540 -696 -89 -301 -220 -414 -635 -554 l-155 -52 -117 44 c-138 51 -137 64 11 97 233 52 233 202 0 202 -126 0 -143 28 -34 54 55 13 77 29 81 62 5 31 20 44 54 44 120 0 260 107 282 215 18 89 -41 103 -120 29 -120 -113 -150 -124 -325 -124 -120 0 -169 -8 -181 -28 -13 -23 -52 -24 -214 -9 -110 10 -204 10 -210 1 -7 -9 -28 -23 -47 -30 -44 -16 -47 31 -5 66 39 33 39 118 -1 133 -26 10 -222 -31 -323 -68 -17 -6 -21 12 -12 63 15 94 -22 108 -168 62 -94 -30 -124 -32 -179 -12 -75 27 -107 17 -107 -35 0 -63 48 -105 126 -109 69 -4 74 -8 64 -54 -19 -85 30 -129 112 -103 309 101 322 100 208 -17 l-78 -80 43 -58 43 -58 -54 -14 c-30 -7 -81 -25 -114 -40 -394 -179 -833 -91 -805 161 21 184 340 563 503 598 81 18 380 162 471 228 48 35 106 63 129 63 23 1 83 20 132 43 77 35 127 41 350 40 143 -1 301 6 350 14 167 28 226 24 264 -17z m-2303 -877 c-131 -386 338 -619 839 -416 153 62 195 42 84 -40 -74 -54 -90 -58 -257 -55 -168 2 -180 -1 -243 -55 -36 -31 -82 -57 -102 -57 -20 0 -58 -17 -84 -38 -27 -20 -65 -41 -86 -45 -73 -14 -53 -50 42 -75 170 -44 213 -49 198 -25 -8 13 -31 23 -51 23 -20 0 -59 12 -88 27 -68 35 206 185 376 205 130 16 155 -12 57 -64 -100 -53 -113 -97 -24 -81 38 7 82 4 98 -7 23 -15 16 -20 -30 -20 -61 -1 -127 -30 -109 -48 16 -16 179 31 179 52 0 29 126 -3 155 -40 18 -23 25 -24 25 -5 0 19 19 23 69 15 57 -9 74 -3 100 37 35 53 93 67 311 74 l149 5 13 76 c7 42 31 102 55 134 77 105 28 141 -233 174 l-147 19 -28 -55 c-16 -31 -29 -70 -29 -87 0 -24 -24 -31 -110 -31 -143 0 -139 10 58 136 90 59 193 133 228 166 60 57 68 59 228 52 l166 -6 0 -59 c0 -47 14 -65 70 -93 l70 -34 -86 -1 c-192 -2 -112 -181 136 -305 l170 -86 -150 -24 c-82 -13 -235 -43 -340 -67 -104 -23 -226 -51 -270 -61 -176 -40 -513 -97 -584 -99 -137 -2 -654 17 -766 29 -60 7 -159 17 -220 23 -60 6 -200 24 -310 39 -110 16 -249 33 -308 40 -161 18 -385 68 -416 93 -21 18 17 45 177 125 218 109 262 149 224 207 -23 37 -72 41 -185 14 l-69 -15 39 51 c42 58 242 126 307 105 85 -27 567 126 602 191 17 32 121 104 133 92 1 -2 -13 -51 -33 -110z m1519 -310 c72 -14 130 -34 129 -44 0 -14 -59 -144 -101 -225 -4 -6 -31 -10 -228 -33 l-90 -11 85 78 c102 93 106 118 19 126 -65 6 -66 8 -50 71 20 74 33 76 236 38z m-274 -152 l77 -1 -43 -55 c-120 -152 -164 -171 -371 -155 -219 16 -223 20 -88 100 194 115 227 129 288 121 34 -5 95 -9 137 -10z m-2527 -243 c-34 -63 25 -113 166 -142 l119 -25 -12 -70 c-6 -39 -12 -93 -12 -121 l-1 -50 -52 59 c-48 54 -49 60 -17 84 20 14 30 39 23 56 -20 52 -444 45 -472 -8 -42 -78 -23 -181 39 -208 17 -7 2 -9 -33 -4 -74 11 -117 -27 -97 -88 19 -61 -38 -52 -80 12 -34 51 -33 54 7 85 41 32 24 150 -47 327 -12 30 -2 35 69 35 101 0 356 56 372 82 24 38 50 17 28 -24z m3576 -298 c2 -159 -3 -260 -15 -260 -11 0 -20 21 -20 48 0 68 -50 104 -106 76 -44 -23 -112 -33 -181 -27 -69 6 -19 53 99 93 l118 40 6 94 c3 52 -3 112 -15 134 -17 31 -14 41 14 48 96 25 95 28 100 -246z m-1090 -74 c6 -51 1 -112 -10 -135 -12 -22 -27 -54 -35 -70 -24 -52 -63 -49 -49 4 23 92 -57 138 -142 82 -60 -39 -87 -22 -40 25 18 18 30 56 27 84 -6 48 3 54 104 75 61 13 116 25 122 26 7 2 18 -39 23 -91z m-2437 41 c15 -37 17 -34 -45 -66 -39 -20 -53 -18 -85 11 -54 48 -48 64 27 74 36 4 71 9 78 11 7 2 18 -12 25 -30z m-568 -141 c16 -15 -64 -66 -103 -66 -47 0 -66 35 -36 71 21 26 107 23 139 -5z m665 -31 c7 -17 -11 -25 -56 -25 -50 0 -61 6 -45 25 12 14 37 25 56 25 20 0 40 -11 45 -25z"/>




<path d="M3590 2379 c-66 -21 -140 -39 -165 -39 -51 0 -54 -7 -24 -63 28 -51 -2 -90 -82 -107 -74 -16 -74 -26 5 -144 103 -153 101 -152 210 -119 53 15 105 29 116 31 11 1 34 6 50 10 17 5 55 14 86 21 51 11 55 19 44 71 -11 50 -5 62 49 89 74 39 74 40 11 123 -27 36 -59 88 -69 117 -24 62 -65 64 -231 10z m227 -94 c50 -82 57 -110 26 -121 -11 -3 -23 14 -26 40 -7 44 -15 46 -177 46 -193 0 -236 39 -90 83 155 47 215 36 267 -48z m-65 -80 c37 -24 28 -182 -10 -193 -269 -79 -263 -78 -303 -41 -22 19 -39 46 -39 60 0 13 -13 35 -30 49 -54 45 29 100 151 100 27 0 63 9 79 20 35 23 121 26 152 5z"/>
<path d="M4430 1809 c-65 -20 -73 -27 -43 -40 21 -8 62 -2 98 15 83 39 46 56 -55 25z"/>

























</g>
</svg>
